<svg width="192" height="34" viewBox="0 0 192 34" fill="none" xmlns="http://www.w3.org/2000/svg">
<path d="M39.6285 17L34.9837 24.9704L33.2408 21.9798L36.1427 17L28.4613 3.82277L27.9762 2.99058H11.6523L4.46954 15.3133L3.97093 16.1678L3.49029 17L3.97093 17.8277L11.6523 31.005H17.4559L19.1988 34H9.90936L0 17L0.979257 15.3133L9.90936 0H29.7191L39.6285 17Z" fill="#DDDDDD"/>
<path d="M18.835 15.3131H10.2732L14.5541 7.97021H23.1113L18.835 15.3131Z" fill="#DDDDDD"/>
<path d="M26.8038 23.0566L30.3345 16.9998L25.0744 7.97021L19.8142 16.9998H9.29395L14.5541 26.0249H21.6155L26.2602 33.9998H29.7191L31.4485 31.027L26.8038 23.0566Z" fill="#DDDDDD"/>
<path d="M60.1478 28.7308C59.0922 28.7308 58.2612 28.5884 57.6638 28.3036C57.0663 28.0187 56.6486 27.5915 56.415 27.0219C56.1814 26.4522 56.0556 25.7447 56.0421 24.8947C54.0971 24.6632 52.6192 23.9334 51.6085 22.7096C50.5978 21.4858 50.0947 19.7101 50.0947 17.3826C50.0947 14.6235 50.7326 12.6475 52.0083 11.4415C53.284 10.2399 55.1437 9.63916 57.5829 9.63916C60.0221 9.63916 61.8817 10.2399 63.1575 11.4415C64.4332 12.6431 65.0711 14.6235 65.0711 17.3826C65.0711 19.6611 64.5859 21.4101 63.6112 22.6295C62.6409 23.8488 61.2259 24.5876 59.3797 24.8502C59.3797 25.3441 59.4695 25.6868 59.6492 25.8782C59.8289 26.0695 60.1344 26.1674 60.5701 26.1674C61.0507 26.1674 61.5404 26.1051 62.039 25.9805V28.4994C61.8054 28.5617 61.4999 28.6151 61.1181 28.6596C60.7363 28.7041 60.4129 28.7308 60.1523 28.7308H60.1478ZM57.5829 21.8195C58.8407 21.8195 59.766 21.4635 60.3455 20.747C60.9294 20.0305 61.2214 18.9091 61.2214 17.3826C61.2214 15.7182 60.9294 14.5433 60.3455 13.858C59.7615 13.1727 58.8407 12.83 57.5829 12.83C56.3251 12.83 55.3773 13.1727 54.7934 13.858C54.2094 14.5433 53.9174 15.7182 53.9174 17.3826C53.9174 18.9091 54.2094 20.0305 54.7934 20.747C55.3773 21.4635 56.3072 21.8195 57.5829 21.8195Z" fill="#DDDDDD"/>
<path d="M70.7805 24.9882C69.4733 24.9882 68.4536 24.6233 67.7259 23.889C66.9937 23.1591 66.6299 22.0911 66.6299 20.6892V13.8047H70.3852V20.4845C70.3852 21.0987 70.5379 21.5526 70.8389 21.8374C71.1399 22.1222 71.598 22.2646 72.2045 22.2646C72.6537 22.2646 73.0849 22.1712 73.4892 21.9887C73.8935 21.8018 74.2259 21.5748 74.4909 21.2945V13.8047H78.2462V24.7568H74.7469L74.6301 23.8311C74.1809 24.1693 73.6329 24.4453 72.9951 24.6633C72.3572 24.8769 71.6205 24.9882 70.7805 24.9882Z" fill="#DDDDDD"/>
<path d="M86.5473 24.9882C84.6202 24.9882 83.0705 24.5164 81.9071 23.5685C80.7391 22.6206 80.1597 21.1921 80.1597 19.2829C80.1597 17.5429 80.6403 16.1544 81.6061 15.1219C82.5719 14.0895 84.0183 13.5732 85.9454 13.5732C87.7017 13.5732 89.0628 14.0183 90.0286 14.9128C90.9944 15.8073 91.475 17.0088 91.475 18.5175V20.48H83.6365C83.8072 21.2054 84.207 21.7083 84.8358 21.9931C85.4647 22.278 86.3227 22.4204 87.4143 22.4204C88.0207 22.4204 88.6406 22.367 89.2695 22.2602C89.8983 22.1533 90.4239 22.0154 90.8417 21.8463V24.2717C90.3116 24.5164 89.6827 24.6989 88.9505 24.8146C88.2183 24.9303 87.4187 24.9882 86.5473 24.9882ZM83.632 18.335H88.2048V17.8499C88.2048 17.3115 88.0431 16.8842 87.7152 16.5683C87.3873 16.2523 86.8348 16.0965 86.0577 16.0965C85.1548 16.0965 84.5259 16.279 84.1665 16.6395C83.8072 16.9999 83.632 17.5696 83.632 18.3395V18.335Z" fill="#DDDDDD"/>
<path d="M93.3841 24.7568V13.8047H96.9508L97.0676 14.8193C97.5482 14.5256 98.1457 14.263 98.8644 14.0227C99.5786 13.7824 100.293 13.6355 101.012 13.5732V16.368C100.607 16.4125 100.158 16.4882 99.6684 16.5861C99.1788 16.6884 98.7116 16.8041 98.2669 16.9421C97.8222 17.08 97.4449 17.2269 97.135 17.3827V24.7523H93.3796L93.3841 24.7568Z" fill="#DDDDDD"/>
<path d="M104.906 28.8243C104.345 28.8243 103.868 28.7976 103.473 28.7442C103.078 28.6908 102.683 28.584 102.296 28.4327V25.8426C102.561 25.9361 102.804 25.9984 103.033 26.0296C103.258 26.0607 103.487 26.0741 103.72 26.0741C104.358 26.0741 104.834 25.9628 105.153 25.7403C105.472 25.5178 105.796 25.1217 106.123 24.5521L101.155 13.8047H105.099L108.015 20.7604L110.885 13.8047H114.802L110.579 23.8578C110.157 24.8591 109.695 25.7314 109.178 26.479C108.666 27.2267 108.068 27.8052 107.381 28.2102C106.698 28.6196 105.872 28.8243 104.911 28.8243H104.906Z" fill="#DDDDDD"/>
<path d="M121.257 24.7567V9.875H129.185C130.695 9.875 131.831 10.231 132.604 10.9386C133.372 11.6462 133.758 12.6475 133.758 13.9425C133.758 14.7302 133.606 15.3889 133.305 15.9185C133.004 16.448 132.599 16.8619 132.105 17.1556C132.788 17.4004 133.327 17.7653 133.713 18.2415C134.104 18.7177 134.297 19.4342 134.297 20.391C134.297 21.8106 133.88 22.892 133.04 23.6397C132.2 24.3873 130.996 24.7611 129.424 24.7611H121.262L121.257 24.7567ZM125.012 15.9274H128.067C128.718 15.9274 129.194 15.7805 129.491 15.4868C129.787 15.1931 129.936 14.7836 129.936 14.263C129.936 13.6933 129.787 13.2661 129.491 12.9813C129.194 12.6965 128.66 12.5541 127.883 12.5541H125.012V15.9274ZM125.012 22.0954H128.44C129.123 22.0954 129.635 21.9575 129.967 21.6771C130.299 21.4012 130.47 20.9072 130.47 20.1996C130.47 19.63 130.308 19.2027 129.981 18.9179C129.653 18.6331 129.096 18.4907 128.301 18.4907H125.012V22.0954Z" fill="#DDDDDD"/>
<path d="M139.616 24.988C138.403 24.988 137.532 24.7254 137.002 24.2003C136.471 23.6752 136.211 22.8385 136.211 21.6814V9.18066H139.966V21.3121C139.966 21.6681 140.038 21.9084 140.186 22.0419C140.335 22.171 140.555 22.2377 140.851 22.2377C141.273 22.2377 141.646 22.1843 141.97 22.0775V24.5964C141.61 24.7343 141.26 24.8367 140.91 24.8945C140.559 24.9568 140.128 24.988 139.616 24.988Z" fill="#DDDDDD"/>
<path d="M149.152 24.9882C147.023 24.9882 145.451 24.4986 144.44 23.5196C143.429 22.5405 142.926 21.1298 142.926 19.2785C142.926 17.4272 143.434 16.0342 144.454 15.0507C145.473 14.0628 147.036 13.5732 149.152 13.5732C151.268 13.5732 152.858 14.0672 153.878 15.0507C154.897 16.0387 155.405 17.445 155.405 19.2785C155.405 21.112 154.902 22.5405 153.887 23.5196C152.876 24.4986 151.299 24.9882 149.152 24.9882ZM149.152 22.0777C150.024 22.0777 150.644 21.8641 151.016 21.4324C151.389 21.0007 151.578 20.2842 151.578 19.2829C151.578 18.2816 151.389 17.5651 151.016 17.1335C150.644 16.7018 150.019 16.4882 149.152 16.4882C148.285 16.4882 147.683 16.7062 147.31 17.1335C146.938 17.5651 146.749 18.2816 146.749 19.2829C146.749 20.2842 146.938 21.0007 147.31 21.4324C147.683 21.8641 148.299 22.0777 149.152 22.0777Z" fill="#DDDDDD"/>
<path d="M163.149 24.9882C161.173 24.9882 159.632 24.512 158.518 23.5552C157.404 22.5984 156.852 21.1743 156.852 19.2785C156.852 17.3827 157.431 15.9186 158.59 14.9796C159.749 14.0406 161.29 13.5688 163.221 13.5688C164.03 13.5688 164.735 13.6267 165.332 13.7424C165.93 13.8581 166.509 14.045 167.071 14.3076V16.9421C166.199 16.5283 165.18 16.3191 164.016 16.3191C162.929 16.3191 162.098 16.5372 161.532 16.9644C160.966 17.3961 160.679 18.166 160.679 19.2741C160.679 20.3065 160.944 21.0586 161.469 21.5259C161.999 21.9976 162.839 22.2291 163.989 22.2291C165.139 22.2291 166.159 21.9976 167.093 21.5348V24.2851C166.532 24.5298 165.93 24.7079 165.288 24.8147C164.641 24.9215 163.931 24.9749 163.154 24.9749L163.149 24.9882Z" fill="#DDDDDD"/>
<path d="M169.002 24.7566V9.18066H172.758V17.3157L176.374 13.8045H180.641L176.208 18.3571L180.897 24.7566H176.908L173.854 20.3197L172.758 21.3833V24.7566H169.002Z" fill="#DDDDDD"/>
<path d="M185.843 24.9878C184.958 24.9878 184.118 24.9255 183.323 24.8009C182.528 24.6763 181.899 24.525 181.432 24.338V21.4943C181.975 21.7257 182.604 21.9038 183.323 22.0239C184.037 22.1485 184.675 22.2108 185.236 22.2108C185.906 22.2108 186.391 22.1797 186.692 22.1174C186.997 22.0551 187.146 21.886 187.146 21.61C187.146 21.303 186.898 21.0716 186.4 20.9158C185.901 20.76 185.218 20.5375 184.347 20.2438C183.336 19.8878 182.568 19.4784 182.052 19.0066C181.531 18.5349 181.27 17.8407 181.27 16.915C181.27 15.838 181.679 15.0103 182.496 14.4318C183.314 13.8532 184.617 13.564 186.404 13.564C187.105 13.564 187.797 13.6174 188.48 13.7242C189.162 13.831 189.724 13.9556 190.16 14.0935V16.8883C189.724 16.688 189.225 16.5412 188.668 16.4477C188.107 16.3543 187.604 16.3098 187.15 16.3098C186.575 16.3098 186.09 16.3454 185.695 16.4121C185.299 16.4833 185.102 16.648 185.102 16.9106C185.102 17.2043 185.317 17.409 185.753 17.5247C186.189 17.6404 186.818 17.8273 187.644 18.0899C188.516 18.3524 189.194 18.6328 189.675 18.9354C190.155 19.2336 190.497 19.5941 190.699 20.0079C190.901 20.4218 191.004 20.9469 191.004 21.5789C191.004 22.6737 190.568 23.5103 189.697 24.0977C188.826 24.6852 187.545 24.9744 185.847 24.9744L185.843 24.9878Z" fill="#DDDDDD"/>
</svg>
