<svg width="138" height="76" viewBox="0 0 138 76" fill="none" xmlns="http://www.w3.org/2000/svg">
<path d="M4.60588 13.2457L4.27478 12.5537C3.8623 11.6903 2.82603 11.3248 1.96315 11.7378L0.986027 12.2054C0.123148 12.6179 -0.242324 13.6541 0.170159 14.517L28.7286 74.22C29.1416 75.0844 30.1773 75.4483 31.0402 75.0338L32.0173 74.5687C32.8802 74.1542 33.2462 73.118 32.8332 72.2587L13.8989 32.6734C16.4208 29.4478 23.6964 21.415 34.7243 19.717C34.2824 20.0193 33.9968 20.5466 34.1409 21.4478C34.5883 24.2488 40.3094 23.6397 40.7583 23.4996C46.7555 22.986 61.8536 20.0143 65.2025 3.20707C50.344 5.45096 45.6187 8.5911 34.5317 5.73658L34.5256 5.72038C34.5256 5.72038 33.602 5.51919 32.5991 5.1426C31.572 2.36945 30.8102 0.34697 30.8102 0.34697C30.8102 0.34697 14.5095 -3.33099 4.60588 13.2457ZM117.459 62.4622C119.94 62.442 122.583 61.2641 122.573 58.4384C122.583 53.6817 115.202 54.9808 115.207 52.4989C115.202 51.7052 115.972 51.038 117.378 51.038C118.821 51.038 119.452 51.2806 120.509 51.8518C120.692 51.9529 120.916 52.0136 121.099 52.0136C121.709 52.0338 122.278 51.503 122.299 50.8509C122.319 50.3455 121.993 50.0219 121.709 49.8147C120.814 49.1879 119.004 48.4953 117.439 48.4953C114.874 48.4953 112.436 49.7742 112.44 52.6404C112.436 57.6043 119.797 56.2597 119.797 58.6204C119.797 59.3736 118.964 60.0055 117.398 59.9398C116.157 59.9044 115.304 59.4545 114.49 59.0248C114.266 58.9035 114.002 58.8631 113.88 58.8631C113.23 58.8428 112.579 59.3938 112.558 60.1672C112.538 60.6323 112.802 61.0013 113.189 61.2843C114.023 61.9162 115.791 62.4824 117.459 62.4622ZM59.0011 62.4622C62.8308 62.4622 65.9355 59.6061 65.9355 55.4712C65.9355 51.3312 62.8308 48.4751 59.0011 48.4751C55.1715 48.4751 52.0673 51.3312 52.0673 55.4712C52.0673 59.6061 55.1715 62.4622 59.0011 62.4622ZM110.596 60.511L105.96 49.3901C105.749 48.8846 105.228 48.5156 104.641 48.5408C104.069 48.5156 103.526 48.8846 103.316 49.3901L98.7006 60.511C98.3968 61.2439 98.7618 62.0375 99.4326 62.3206C100.062 62.5885 100.92 62.3611 101.242 61.5674L101.972 59.7678H107.304L108.034 61.5674C108.305 62.2397 109.112 62.629 109.844 62.3206C110.534 62.0325 110.876 61.1833 110.596 60.511ZM97.4126 48.5964H89.5638C88.8678 48.5964 88.3031 49.1626 88.3031 49.8551C88.3031 50.5527 88.8678 51.1188 89.5638 51.1188H92.1054V60.9608C92.1054 61.7241 92.7247 62.3409 93.4885 62.3409C94.2518 62.3409 94.871 61.7241 94.871 60.9608V51.1188H97.4126C98.1092 51.1188 98.6733 50.5527 98.6733 49.8551C98.6733 49.1626 98.1092 48.5964 97.4126 48.5964ZM70.165 62.3409C70.9374 62.3409 71.5677 61.7089 71.5677 60.9608V53.7828L77.4446 61.7545C77.668 62.0578 78.1154 62.3409 78.6239 62.3409C79.3559 62.3409 79.9862 61.7089 79.9822 60.9608V49.9815C79.9862 49.2283 79.3761 48.5964 78.6037 48.5964C77.8308 48.5964 77.2207 49.2081 77.2207 49.9815V57.1747L71.3241 49.1879C71.1001 48.8795 70.6937 48.5964 70.165 48.5964C69.4123 48.5964 68.8027 49.2081 68.8027 49.9815V60.9608C68.8027 61.7342 69.4123 62.3409 70.165 62.3409ZM84.521 62.3409C85.2848 62.3409 85.9035 61.7241 85.9035 60.9608V49.9815C85.9035 49.2131 85.2848 48.5964 84.521 48.5964C83.7572 48.5964 83.138 49.2131 83.138 49.9815V60.9608C83.138 61.7241 83.7572 62.3409 84.521 62.3409ZM47.6957 55.0921C48.4636 54.4551 48.9357 53.5402 48.9357 52.4382C48.9357 50.2241 47.0042 48.5964 44.7426 48.5964H41.1637C40.4131 48.5964 39.7853 49.2081 39.7853 49.9815V60.9608C39.7853 61.7342 40.4156 62.3409 41.1683 62.3409H45.3164C47.8176 62.3409 49.7491 60.4907 49.7491 58.2564C49.7491 56.7854 48.92 55.6936 47.6957 55.0921ZM59.0011 59.9448C56.6991 59.9448 54.8328 58.1149 54.8328 55.4712C54.8328 52.8224 56.6991 50.9975 59.0011 50.9975C61.3037 50.9975 63.1699 52.8224 63.1699 55.4712C63.1699 58.1149 61.3037 59.9448 59.0011 59.9448ZM45.3164 59.8184H42.5508V56.4872H45.3164C46.252 56.4872 46.984 57.1999 46.984 58.1755C46.984 59.1713 46.1909 59.8184 45.3164 59.8184ZM102.994 57.2454L104.638 53.1914L106.282 57.2454H102.994ZM44.8488 51.1188C45.6621 51.1188 46.1707 51.7457 46.1707 52.5191C46.1707 53.4138 45.5196 53.9648 44.7426 53.9648H42.5508V51.1188H44.8488ZM111.92 45.331L109.69 41.561C111.061 40.8639 111.99 39.497 111.99 37.7961C111.99 35.3019 109.993 33.5261 107.527 33.5261H104.629C103.866 33.5261 103.247 34.1454 103.247 34.9086V45.887C103.247 46.6503 103.866 47.272 104.629 47.272C105.393 47.272 106.012 46.6503 106.012 45.887V42.0665H106.807L109.564 46.7261C109.949 47.3782 110.789 47.5905 111.44 47.2063C112.09 46.8221 112.306 45.983 111.92 45.331ZM132.524 47.3933C135.005 47.3731 137.648 46.1953 137.639 43.3701C137.648 38.6094 130.267 39.911 130.272 37.4265C130.267 36.6369 131.038 35.9662 132.443 35.9662C133.887 35.9662 134.517 36.2103 135.574 36.7795C135.757 36.8811 135.981 36.9423 136.164 36.9423C136.774 36.9625 137.344 36.4337 137.364 35.7832C137.384 35.2746 137.059 34.9496 136.774 34.7459C135.88 34.1155 134.07 33.4245 132.504 33.4245C129.94 33.4245 127.502 34.7055 127.505 37.5721C127.502 42.5341 134.863 41.1919 134.863 43.5506C134.863 44.3048 134.029 44.9316 132.464 44.8709C131.223 44.8305 130.369 44.3857 129.556 43.9575C129.332 43.8352 129.068 43.7948 128.945 43.7948C128.295 43.7745 127.644 44.325 127.624 45.0984C127.603 45.5635 127.868 45.9325 128.254 46.2156C129.088 46.8424 130.857 47.4136 132.524 47.3933ZM94.5434 47.3933C97.5527 47.3933 99.9927 45.5079 99.9927 41.8835V34.9086C99.9927 34.1454 99.3735 33.5261 98.6102 33.5261C97.8464 33.5261 97.2271 34.1454 97.2271 34.9086V41.8835C97.2271 43.8322 96.0256 44.8709 94.543 44.8709C93.0608 44.8709 91.8588 43.8322 91.8588 41.8835V34.9086C91.8588 34.1454 91.24 33.5261 90.4762 33.5261C89.7124 33.5261 89.0937 34.1454 89.0937 34.9086V41.8835C89.0937 45.5079 91.5337 47.3933 94.5434 47.3933ZM37.6955 45.4422L33.0592 34.3192C32.8484 33.8137 32.3272 33.4447 31.7403 33.47C31.1681 33.4447 30.6257 33.8132 30.4154 34.3192L25.7997 45.4422C25.4959 46.1751 25.8609 46.9688 26.5317 47.2518C27.161 47.5197 28.0194 47.2923 28.3414 46.4986L29.0713 44.6991H34.4033L35.1332 46.4986C35.4041 47.1659 36.2109 47.5551 36.9429 47.2518C37.6329 46.9637 37.9756 46.1145 37.6955 45.4422ZM125.662 45.4422L121.025 34.3192C120.814 33.8137 120.293 33.4447 119.706 33.47C119.134 33.4447 118.592 33.8132 118.382 34.3192L113.766 45.4422C113.462 46.1751 113.827 46.9688 114.498 47.2518C115.127 47.5197 115.986 47.2923 116.308 46.4986L117.037 44.6991H122.369L123.099 46.4986C123.37 47.1659 124.177 47.5551 124.909 47.2518C125.6 46.9637 125.942 46.1145 125.662 45.4422ZM43.7585 47.3479C44.3448 47.3731 44.8736 47.0092 45.0773 46.4986L49.7132 35.3762C49.9978 34.7054 49.6525 33.8512 48.961 33.5666C48.229 33.2618 47.4157 33.6479 47.1513 34.3192L43.7554 42.6968L40.3595 34.3192C40.034 33.5261 39.1802 33.3022 38.5498 33.5666C37.8785 33.8512 37.5126 34.6443 37.8179 35.3762L42.4336 46.4986C42.6368 47.0092 43.1857 47.3731 43.7585 47.3479ZM59.0805 44.7496H54.9728V41.7818H58.4704C59.1664 41.7818 59.7311 41.2172 59.7311 40.5212C59.7311 39.8246 59.1664 39.2605 58.4704 39.2605H54.9728V36.0475H59.0805C59.7766 36.0475 60.3412 35.4829 60.3412 34.7868C60.3412 34.0903 59.7766 33.5261 59.0805 33.5261H53.5898C52.8265 33.5261 52.2073 34.1454 52.2073 34.9086V45.887C52.2073 46.6503 52.8265 47.272 53.5898 47.272H59.0805C59.7766 47.272 60.3412 46.7059 60.3412 46.0134C60.3412 45.3158 59.7766 44.7496 59.0805 44.7496ZM64.2047 47.272C64.9771 47.272 65.6074 46.6402 65.6074 45.887V38.7115L71.4843 46.6806C71.7077 46.989 72.1551 47.272 72.6636 47.272C73.3956 47.272 74.0259 46.6402 74.0219 45.887V34.9086C74.0259 34.1565 73.4158 33.5261 72.6434 33.5261C71.8705 33.5261 71.2604 34.1362 71.2604 34.9086V42.1069L65.3638 34.1155C65.1399 33.8107 64.7334 33.5261 64.2047 33.5261C63.452 33.5261 62.8424 34.1362 62.8424 34.9086V45.887C62.8424 46.6604 63.452 47.272 64.2047 47.272ZM85.4334 33.5261H77.5846C76.888 33.5261 76.3239 34.0903 76.3239 34.7868C76.3239 35.4829 76.888 36.0475 77.5846 36.0475H80.1262V45.887C80.1262 46.6503 80.7455 47.272 81.5093 47.272C82.2726 47.272 82.8918 46.6503 82.8918 45.887V36.0475H85.4334C86.13 36.0475 86.6941 35.4829 86.6941 34.7868C86.6941 34.0903 86.13 33.5261 85.4334 33.5261ZM30.0934 42.1777L31.7373 38.1216L33.3811 42.1777H30.0934ZM118.06 42.1777L119.703 38.1216L121.347 42.1777H118.06ZM106.012 36.0475H107.439C108.424 36.0475 109.225 36.7755 109.225 37.7961C109.225 38.8172 108.424 39.545 107.439 39.545H106.012V36.0475ZM12.249 29.8982L6.18302 17.0086C6.18302 17.0086 8.46836 11.712 13.2599 16.2498C16.9319 21.2674 14.0991 28.4772 12.249 29.8982Z" fill="#DDDDDD"/>
</svg>
