<svg width="138" height="37" viewBox="0 0 138 37" fill="none" xmlns="http://www.w3.org/2000/svg">
<path d="M11.5844 0.869776C12.2844 1.49978 12.8969 2.20748 13.515 2.91099C14.7544 4.34935 15.9102 5.85778 16.9765 7.42882C19.6666 11.395 21.8296 15.796 22.7697 20.5189C23.0791 22.2318 23.2597 23.9762 23.1673 25.7178C23.0143 27.751 22.3283 29.7079 21.1783 31.3915C20.0283 33.0751 18.4549 34.4259 16.6167 35.3079C13.5535 36.8101 9.82104 36.8262 6.73192 35.387C3.5819 33.9436 1.14868 31.0127 0.340177 27.6386C0.039175 26.5116 -0.0392257 25.3349 0.0167747 24.1729C0.117575 20.8297 1.01008 17.5523 2.30999 14.4842C3.5231 11.6659 5.07781 9.00173 6.86002 6.50411C8.29363 4.514 9.83644 2.59039 11.5858 0.867676M10.4951 3.76849C9.25443 5.23244 8.09869 6.76633 7.03362 8.36262C6.88102 8.51243 7.06862 8.65523 7.17362 8.76233C8.46233 10.0223 9.70834 11.3236 11.0054 12.5711C11.0194 9.45416 11.0194 6.33658 11.0054 3.21829C10.8215 3.38744 10.6517 3.57147 10.4979 3.76849M12.1955 3.22039C12.167 5.30594 12.167 7.39242 12.1955 9.47983C13.1545 8.58593 14.0526 7.62692 14.9955 6.71271C14.4439 5.87271 13.7936 5.1027 13.1657 4.3166C12.8451 3.9498 12.5644 3.54659 12.199 3.22039M12.3439 11.0016C12.143 11.1542 12.1815 11.4216 12.178 11.6407C12.1983 13.5805 12.1584 15.5209 12.1976 17.4599C12.341 17.3402 12.4784 17.2133 12.6092 17.0798C14.4355 15.2346 16.2905 13.416 18.1077 11.563C17.3951 10.2106 16.5614 8.92263 15.6948 7.66472C14.5678 8.76653 13.4667 9.89493 12.3439 11.0016ZM6.26992 9.54283C5.25561 11.1773 4.3099 12.8651 3.5665 14.6417C6.03985 17.1276 8.51973 19.6061 11.0061 22.0771C11.0208 19.5312 11.0061 16.9853 11.0124 14.4394C11.0355 14.2644 10.9067 14.1419 10.7933 14.0313C9.27434 12.5466 7.80573 11.0079 6.26992 9.54283ZM18.1469 13.1773C16.3031 15.0197 14.4597 16.863 12.6169 18.7073C12.4279 18.911 12.1269 19.0902 12.1731 19.4073C12.1892 21.2833 12.1507 23.16 12.1927 25.0353C12.4685 24.8358 12.6904 24.5761 12.9326 24.3395L19.9676 17.3045C20.1539 17.1316 20.329 16.9472 20.4919 16.7522C19.9933 15.3478 19.3937 13.9813 18.6978 12.6635C18.4996 12.8171 18.3155 12.9881 18.1476 13.1745M2.84339 16.3483C2.34429 17.7056 1.90679 19.0951 1.63799 20.5168C5.06127 21.3206 8.26186 22.8787 11.0061 25.0773C11.011 24.6818 11.025 24.2863 11.0096 23.8915C11.0166 23.7249 10.8773 23.6115 10.7758 23.5002C8.20473 20.9487 5.65951 18.3692 3.0828 15.824C2.98205 15.9884 2.90166 16.1645 2.84339 16.3483ZM20.6494 18.2677C18.3926 20.5324 16.1332 22.7939 13.8713 25.0521C16.4431 24.0679 19.2081 23.6353 21.957 23.6997C21.915 21.7684 21.467 19.8686 20.9273 18.0213C20.8314 18.1004 20.7383 18.1823 20.6473 18.2677M1.39718 21.6802C1.25718 23.0578 1.04718 24.448 1.21728 25.8326C3.20789 26.3898 5.08827 27.284 6.77672 28.4766C6.97272 28.6131 7.15192 28.7769 7.36752 28.8826C7.49562 28.8672 7.58312 28.7538 7.68393 28.6831C8.65203 27.8431 9.72304 27.1346 10.8164 26.4717C10.4587 26.0972 10.0261 25.8067 9.62084 25.4917C7.18062 23.6815 4.3708 22.3312 1.39718 21.6837M16.6965 25.3986C12.1213 26.4829 7.93243 29.2347 5.18981 33.0665C5.76692 33.5493 6.40816 33.9497 7.09522 34.2565C7.44522 33.8365 7.76233 33.3871 8.13193 32.9818C11.4178 29.1962 16.4326 26.9799 21.446 27.1416C21.5685 27.1178 21.796 27.1899 21.8156 27.0121C21.9493 26.3121 22.0571 25.5932 22.02 24.8757C20.2343 24.8183 18.4381 24.9681 16.7 25.393M1.42238 27.1185C1.84504 29.0897 2.84401 30.8908 4.2924 32.293C4.97618 31.3889 5.71887 30.5309 6.51562 29.7247C4.97561 28.5872 3.2592 27.6743 1.42518 27.1185M8.22993 34.7283C8.95053 34.9764 9.69561 35.1468 10.4524 35.2365C10.7177 35.3135 10.8612 35.0454 11.0124 34.8865C13.3582 32.2769 16.7924 30.6921 20.298 30.5815C20.7846 29.8827 21.1699 29.1187 21.4425 28.3121C16.3451 28.1182 11.2399 30.6158 8.23133 34.7283M17.0745 32.321C15.5224 32.8191 14.0884 33.629 12.8605 34.701C12.6569 34.8618 12.4729 35.046 12.3124 35.2498C13.039 35.2673 13.746 35.0741 14.4432 34.8942C16.0952 34.4406 17.6128 33.5425 18.8483 32.3602C19.0163 32.2072 19.1677 32.0369 19.2998 31.852C18.5375 31.8814 17.7962 32.0886 17.0745 32.321Z" fill="#DDDDDD"/>
<path d="M36.1036 10.5459C36.3437 10.3947 36.7294 10.5578 36.6972 10.8679C36.7112 14.0438 36.6972 17.2212 36.7049 20.3971C36.6972 20.563 36.7049 20.7646 36.5593 20.878C36.3395 21.0607 35.9293 20.9123 35.9559 20.598C35.9489 17.378 35.9559 14.1579 35.9517 10.9379C35.9538 10.7979 35.965 10.6257 36.1036 10.5459Z" fill="#DDDDDD"/>
<path d="M38.9665 10.5271C39.1464 10.4501 39.4005 10.4963 39.4887 10.6881C39.5503 10.931 39.5202 11.1851 39.5251 11.4329C39.5214 14.4444 39.5214 17.4555 39.5251 20.4665C39.5496 20.694 39.4278 20.9859 39.1555 20.9565C38.8804 20.995 38.7509 20.6968 38.7754 20.4665C38.7754 17.316 38.7754 14.166 38.7754 11.0164C38.7754 10.8358 38.7761 10.609 38.9665 10.5271Z" fill="#DDDDDD"/>
<path d="M82.5136 10.5452C82.7545 10.3968 83.1437 10.5571 83.108 10.8679C83.1213 14.0438 83.108 17.2211 83.115 20.3971C83.1059 20.563 83.115 20.766 82.9708 20.8787C82.751 21.0635 82.3407 20.9088 82.3666 20.5987C82.3575 17.4024 82.3702 14.2048 82.3604 11.0086C82.366 10.8476 82.3561 10.6425 82.5136 10.5452Z" fill="#DDDDDD"/>
<path d="M85.3756 10.5264C85.699 10.371 86.0154 10.6776 85.9356 11.0101C85.9237 14.2085 85.9461 17.4082 85.9244 20.6058C85.9538 20.9733 85.3896 21.0902 85.2384 20.7794C85.1467 20.5218 85.1901 20.2411 85.1824 19.973C85.1824 16.9863 85.1824 13.9996 85.1824 11.0129C85.188 10.8372 85.1901 10.6111 85.3756 10.5264Z" fill="#DDDDDD"/>
<path d="M41.7746 11.1906C42.0938 11.0667 42.4957 11.2963 42.4971 11.6526C42.5531 12.0517 42.0602 12.3429 41.7221 12.1462C41.3469 11.9635 41.3763 11.3278 41.7746 11.1906Z" fill="#DDDDDD"/>
<path d="M79.7144 11.1889C80.0532 11.0629 80.4725 11.3289 80.4354 11.7083C80.4354 12.1339 79.8334 12.3726 79.545 12.0583C79.2692 11.8168 79.3665 11.3114 79.7144 11.1889Z" fill="#DDDDDD"/>
<path d="M61.8412 11.7828C61.8265 11.3887 62.5195 11.3579 62.5608 11.7401C62.6126 12.2819 62.5335 12.8293 62.5958 13.3712C63.3196 13.3838 64.0462 13.3439 64.7693 13.3845C65.0346 13.4013 65.1361 13.7555 64.9737 13.9445C64.8729 14.0628 64.7028 14.0432 64.5649 14.0544C63.9116 14.0544 63.2583 14.0523 62.6049 14.0481C62.5391 15.3431 62.5958 16.6437 62.5769 17.9415C62.5503 18.6926 62.81 19.5277 63.4869 19.9358C63.8831 20.2011 64.3682 20.2235 64.8253 20.2858C65.1606 20.3509 65.1102 20.9256 64.7728 20.9452C63.8628 21.0194 62.8961 20.6302 62.3627 19.8714C62.0172 19.3649 61.8325 18.766 61.8328 18.1529C61.8286 16.7942 61.8405 15.4348 61.8279 14.0761C61.4667 14.0439 61.1034 14.0873 60.7429 14.0516C60.4223 14.0243 60.3733 13.5126 60.6638 13.4006C61.0446 13.3306 61.4338 13.388 61.8223 13.374C61.8559 12.8454 61.809 12.3141 61.8412 11.7828Z" fill="#DDDDDD"/>
<path d="M67.0235 11.7826C67.0158 11.3906 67.6962 11.3584 67.7452 11.7378C67.8019 12.2803 67.7221 12.8277 67.7823 13.3709C68.5047 13.3835 69.2285 13.345 69.9523 13.3835C70.3247 13.3961 70.3282 14.0352 69.9523 14.0387C69.2327 14.0667 68.5117 14.0387 67.7914 14.0436C67.7277 15.3169 67.7851 16.5951 67.7627 17.8706C67.7424 18.5615 67.9111 19.321 68.4627 19.7823C68.8708 20.1435 69.4266 20.2366 69.9523 20.266C70.3023 20.2751 70.3212 20.8463 70.0139 20.9345C69.4413 21.0045 68.854 20.8582 68.3486 20.5908C67.5086 20.1288 67.0298 19.1649 67.0186 18.2241C67.0053 16.8415 67.0256 15.4583 67.0102 14.0758C66.6322 14.0373 66.2486 14.0996 65.8741 14.0387C65.5703 13.9561 65.5892 13.4346 65.9042 13.3856C66.2689 13.3422 66.6378 13.3821 67.0046 13.3723C67.0368 12.8452 66.9871 12.3139 67.0235 11.7826Z" fill="#DDDDDD"/>
<path d="M29.2345 13.7608C30.6289 12.9089 32.5945 13.0769 33.7845 14.2116C34.0295 14.437 33.8279 14.7632 33.6445 14.9515C32.7016 16.0617 31.7734 17.1845 30.8333 18.2968C30.8011 18.341 30.7602 18.3783 30.7133 18.4063C30.6663 18.4344 30.6141 18.4526 30.5599 18.4599C30.5056 18.4672 30.4505 18.4635 30.3977 18.449C30.345 18.4344 30.2958 18.4093 30.253 18.3752C30.113 18.2156 30.1613 17.9776 30.2971 17.8327C31.2036 16.7421 32.1507 15.6844 33.0383 14.5791C32.2949 13.9106 31.177 13.7692 30.2453 14.0744C29.781 14.2329 29.3607 14.4989 29.0187 14.8507C28.6768 15.2025 28.4228 15.6302 28.2776 16.0988C27.8009 17.4589 28.3756 19.1088 29.6118 19.8557C30.6198 20.5025 32.017 20.4626 32.9781 19.7437C33.2413 19.568 33.4226 19.3006 33.6704 19.1074C33.8566 18.9632 34.1786 19.0654 34.2304 19.302C34.2857 19.4805 34.1604 19.6373 34.0491 19.7626C33.6541 20.1923 33.1666 20.5266 32.6235 20.7402C32.0803 20.9538 31.4957 21.0411 30.9138 20.9955C30.3319 20.95 29.768 20.7727 29.2647 20.4771C28.7615 20.1815 28.332 19.7754 28.0088 19.2894C27.3199 18.2632 27.1981 16.9136 27.6 15.7551C27.8989 14.9219 28.4762 14.2175 29.2345 13.7608Z" fill="#DDDDDD"/>
<path d="M41.8447 13.2857C42.1093 13.1786 42.3697 13.4138 42.3473 13.684C42.3564 15.9653 42.3508 18.2481 42.3473 20.5301C42.3549 20.5955 42.3456 20.6618 42.3202 20.7226C42.2949 20.7835 42.2543 20.8368 42.2025 20.8774C42.1506 20.9181 42.0892 20.9448 42.0241 20.9549C41.959 20.9651 41.8924 20.9583 41.8307 20.9354C41.627 20.8808 41.5983 20.6442 41.599 20.4671C41.599 18.2243 41.599 15.9812 41.599 13.7379C41.5941 13.5594 41.6417 13.3319 41.8447 13.2857Z" fill="#DDDDDD"/>
<path d="M47.1592 13.2935C48.4843 13.0324 49.9466 13.486 50.8202 14.5325C50.9672 14.6942 50.9896 14.97 50.8111 15.1177C50.6641 15.1877 50.4695 15.201 50.3449 15.0813C50.0726 14.8405 49.836 14.5514 49.5126 14.3729C48.3737 13.6351 46.749 13.8311 45.7921 14.7845C44.6721 15.8478 44.5048 17.7245 45.4001 18.9789C46.1239 20.0772 47.6065 20.598 48.8539 20.1689C49.4139 20.0051 49.8829 19.6278 50.27 19.2001C50.4156 19.0153 50.7306 18.9852 50.8783 19.1826C51.0261 19.38 50.905 19.6131 50.7607 19.7601C50.102 20.4804 49.1647 20.9634 48.1819 21.0033C47.6242 21.045 47.0641 20.9634 46.5415 20.7642C46.0189 20.5651 45.5465 20.2534 45.1579 19.8511C44.0204 18.6933 43.7425 16.8047 44.4754 15.3606C44.7335 14.8327 45.1099 14.3716 45.5754 14.013C46.041 13.6545 46.583 13.4082 47.1592 13.2935Z" fill="#DDDDDD"/>
<path d="M55.4872 13.2724C56.7403 13.068 58.0892 13.5132 58.9327 14.4729C60.2137 15.8617 60.2627 18.1878 59.0433 19.6305C58.092 20.8206 56.3917 21.3001 54.9475 20.8367C53.2934 20.3691 52.1363 18.6624 52.2504 16.9579C52.2623 15.1652 53.7001 13.5013 55.4872 13.2724ZM55.4214 13.992C54.1614 14.2657 53.1765 15.406 53.0218 16.6765C52.9404 17.2963 53.0375 17.9265 53.3018 18.493C53.7918 19.5864 54.9559 20.3698 56.1649 20.3075C57.672 20.3215 59.0062 19.0124 59.1406 17.5319C59.3324 16.2859 58.7066 14.9538 57.6097 14.3259C56.9608 13.9311 56.1579 13.8338 55.4214 13.992Z" fill="#DDDDDD"/>
<path d="M71.9164 13.323C72.1439 13.1774 72.5086 13.3272 72.5079 13.6156C72.5373 15.5981 72.4855 17.5833 72.5331 19.5657C72.7369 19.3642 72.9273 19.1495 73.1029 18.9231C74.6345 17.094 76.1598 15.2593 77.6964 13.435C77.8364 13.225 78.1948 13.2019 78.304 13.4539C78.4202 13.6373 78.2858 13.8368 78.164 13.9782C76.2427 16.2551 74.3254 18.5357 72.412 20.8201C72.272 21.0147 71.9101 21.0049 71.8016 20.7816C71.7599 20.6572 71.7417 20.5262 71.7477 20.3952C71.751 18.2018 71.751 16.0085 71.7477 13.8151C71.7561 13.6408 71.7505 13.4245 71.9164 13.323Z" fill="#DDDDDD"/>
<path d="M79.784 13.2836C80.0297 13.2038 80.3118 13.4005 80.2691 13.6707C80.274 15.7707 80.2691 17.8707 80.2691 19.9707C80.2691 20.2227 80.2908 20.4782 80.2439 20.7274C80.1739 21.0172 79.7021 21.0298 79.5803 20.7715C79.5173 20.6315 79.5222 20.4726 79.5166 20.3221C79.5222 18.1521 79.5166 15.9821 79.5166 13.8121C79.5173 13.6091 79.5544 13.3452 79.784 13.2836Z" fill="#DDDDDD"/>
<path d="M89.1862 13.9349C90.5792 12.9374 92.6484 12.9843 93.9694 14.0875C94.3404 14.3633 94.4419 14.9478 94.122 15.3006C93.352 16.2106 92.5882 17.129 91.8175 18.0391C91.5144 18.4213 90.8375 18.3695 90.5911 17.9544C90.4448 17.703 90.4294 17.3523 90.6219 17.1199C91.205 16.3891 91.8595 15.7143 92.4209 14.9667C91.5354 14.4942 90.3734 14.7791 89.7686 15.5659C89.0161 16.4955 89.0595 17.9865 89.9226 18.8322C90.6282 19.5889 91.9043 19.7212 92.7311 19.087C93.0531 18.8588 93.3135 18.457 93.7524 18.471C94.1542 18.4493 94.5357 18.7944 94.5322 19.2011C94.5483 19.6106 94.2123 19.9011 93.9351 20.1552C92.591 21.2801 90.4749 21.285 89.0931 20.2252C88.1131 19.4909 87.5489 18.254 87.5916 17.0338C87.5944 16.4282 87.7402 15.8317 88.0174 15.2932C88.2945 14.7546 88.695 14.2892 89.1862 13.9349Z" fill="#DDDDDD"/>
<path d="M97.712 13.499C98.6113 13.1346 99.6165 13.1311 100.518 13.4892C100.892 13.6292 101.208 13.8798 101.544 14.0891C101.584 13.8658 101.604 13.6082 101.796 13.4549C102.255 12.9775 103.209 13.3289 103.16 14.0205C103.16 15.8174 103.16 17.615 103.16 19.4105C103.16 19.8641 103.183 20.3247 103.083 20.7713C102.948 21.3589 102.678 21.9068 102.293 22.3711C101.908 22.8355 101.421 23.2033 100.868 23.4453C99.4207 24.0753 97.5517 23.8457 96.4513 22.662C96.1986 22.4184 96.0831 22.0194 96.2532 21.6974C96.4632 21.2711 97.0841 21.1647 97.4432 21.4601C97.6672 21.6316 97.8632 21.8395 98.1124 21.9809C98.442 22.165 98.812 22.2645 99.1895 22.2706C99.5669 22.2767 99.94 22.1892 100.275 22.0159C100.975 21.6659 101.439 20.9379 101.517 20.1672C101.279 20.3023 101.06 20.4654 100.821 20.5956C100.231 20.8991 99.57 21.0388 98.9077 21.0001C98.2453 20.9614 97.6054 20.7459 97.0547 20.3758C95.6449 19.4266 95.0842 17.5135 95.577 15.9154C95.8822 14.8465 96.6774 13.9176 97.7113 13.4969M98.8908 14.7688C97.8366 14.9543 97.054 15.9707 97.0575 17.0263C96.9749 18.0973 97.7246 19.2026 98.7949 19.4266C99.1876 19.524 99.5999 19.5092 99.9846 19.3839C100.369 19.2585 100.711 19.0276 100.971 18.7175C101.741 17.8264 101.741 16.376 100.958 15.494C100.708 15.2022 100.385 14.9818 100.022 14.8548C99.659 14.7278 99.2691 14.6989 98.8915 14.7709L98.8908 14.7688Z" fill="#DDDDDD"/>
<path d="M107.219 13.2886C107.48 13.2431 107.754 13.1976 108.02 13.2515C108.33 13.325 108.3 13.8395 107.998 13.9025C107.675 13.9536 107.333 13.9326 107.033 14.0796C106.32 14.3806 105.913 15.166 105.908 15.9164C105.895 17.4732 105.916 19.0308 105.899 20.5876C105.907 20.8914 105.525 21.0629 105.291 20.8914C105.125 20.7514 105.144 20.5183 105.138 20.3237C105.147 18.9475 105.138 17.5705 105.142 16.1936C105.13 15.7199 105.214 15.2486 105.389 14.8083C105.541 14.4211 105.788 14.0785 106.108 13.8127C106.428 13.547 106.81 13.3667 107.219 13.2886Z" fill="#DDDDDD"/>
<path d="M110.12 14.2898C111.489 12.9185 113.935 12.8625 115.345 14.1974C115.533 14.3612 115.492 14.6489 115.331 14.8148C114.363 15.967 113.395 17.1206 112.43 18.2756C112.4 18.3213 112.362 18.3607 112.318 18.3916C112.273 18.4224 112.222 18.4441 112.169 18.4555C112.116 18.4668 112.061 18.4675 112.008 18.4575C111.954 18.4476 111.903 18.4272 111.858 18.3974C111.691 18.2574 111.718 17.9928 111.858 17.8458C112.768 16.7517 113.718 15.6842 114.617 14.5775C113.654 13.7375 112.135 13.7179 111.096 14.4291C110.021 15.1242 109.5 16.513 109.753 17.7534C109.936 18.779 110.663 19.7002 111.638 20.0838C112.124 20.2867 112.656 20.3575 113.178 20.2889C113.701 20.2203 114.196 20.0148 114.613 19.6932C114.841 19.5266 115.011 19.2956 115.229 19.1164C115.408 18.9645 115.744 19.0464 115.798 19.2879C115.86 19.5679 115.604 19.7723 115.431 19.9515C114.311 21.0491 112.491 21.3312 111.091 20.62C109.815 20.018 108.956 18.6509 108.943 17.2438C108.898 16.1546 109.324 15.043 110.12 14.2898Z" fill="#DDDDDD"/>
<path d="M118.019 14.4192C119.364 12.924 121.931 12.8141 123.383 14.2092C123.559 14.366 123.518 14.639 123.369 14.7986C122.443 15.9032 121.511 17.0037 120.592 18.1132C120.447 18.2882 120.274 18.5332 120.011 18.4499C119.742 18.4149 119.702 18.0446 119.866 17.8731C120.776 16.7643 121.743 15.703 122.638 14.5781C121.746 13.7752 120.335 13.7304 119.313 14.3086C118.834 14.5848 118.436 14.9816 118.158 15.4596C117.88 15.9376 117.731 16.48 117.728 17.0331C117.672 18.2336 118.358 19.4453 119.438 19.9801C120.564 20.5814 122.072 20.3518 122.946 19.4138C123.116 19.2507 123.289 18.9826 123.564 19.0498C123.836 19.0967 123.921 19.4572 123.738 19.6476C122.834 20.7718 121.25 21.2576 119.861 20.888C118.594 20.5933 117.542 19.5832 117.152 18.3477C116.728 17.0114 117.036 15.4391 118.019 14.4192Z" fill="#DDDDDD"/>
<path d="M128.009 13.2883C129.033 13.093 130.179 13.3261 130.925 14.0905C131.527 14.696 131.823 15.5563 131.835 16.4005C131.842 17.7305 131.835 19.0647 131.84 20.3968C131.83 20.5753 131.847 20.8168 131.655 20.9113C131.343 21.0842 131.03 20.7811 131.088 20.4591C131.084 19.1081 131.093 17.7557 131.088 16.4047C131.081 15.5759 130.717 14.7065 129.99 14.2627C129.033 13.6908 127.651 13.8252 126.91 14.6953C126.462 15.1951 126.328 15.8853 126.309 16.5384C126.295 17.8922 126.322 19.2481 126.298 20.5984C126.319 21.0254 125.598 21.0821 125.567 20.6565C125.544 19.2838 125.567 17.9097 125.558 16.5363C125.553 15.7348 125.773 14.9102 126.291 14.2851C126.731 13.764 127.338 13.4117 128.009 13.2883Z" fill="#DDDDDD"/>
<path d="M135.22 13.2867C135.902 13.1467 136.663 13.2405 137.235 13.6598C137.696 13.993 138.011 14.5635 137.944 15.141C137.928 15.421 137.501 15.5113 137.356 15.2915C137.243 15.0423 137.231 14.7525 137.071 14.5215C136.637 13.8635 135.652 13.7011 134.992 14.0973C134.313 14.4928 134.137 15.5568 134.707 16.1182C135.337 16.7482 136.303 16.7615 137.036 17.2193C137.629 17.5637 138.026 18.2287 137.997 18.9203C138.041 19.7036 137.525 20.4414 136.831 20.7676C136.417 20.9645 135.957 21.0425 135.502 20.9931C135.047 20.9436 134.615 20.7686 134.254 20.4876C133.834 20.1481 133.51 19.6161 133.574 19.0603C133.606 18.7803 134.044 18.7033 134.181 18.9476C134.299 19.2052 134.33 19.5076 134.514 19.733C135.087 20.5086 136.423 20.5296 136.998 19.7435C137.402 19.2094 137.309 18.3792 136.797 17.9466C136.068 17.3131 134.998 17.3292 134.267 16.6971C133.65 16.2071 133.528 15.3153 133.745 14.5936C133.857 14.2668 134.051 13.9746 134.31 13.7456C134.568 13.5165 134.882 13.3584 135.22 13.2867Z" fill="#DDDDDD"/>
</svg>
