<svg width="138" height="23" viewBox="0 0 138 23" fill="none" xmlns="http://www.w3.org/2000/svg">
<path d="M0 22.5307V7.88818H13.677L0 22.5307Z" fill="#DDDDDD"/>
<path d="M17.3176 5.70703V15.2755H8.52441L17.3176 5.70703Z" fill="#DDDDDD"/>
<path d="M28.0795 5.75439C26.3566 5.75439 25.5541 7.33932 25.5541 7.33932V5.98853H23.3218V15.2672H25.672V9.19931C25.672 9.19931 26.3189 7.94676 27.747 7.94676C28.4316 7.94676 28.8623 8.16289 28.8623 8.16289L29.6845 6.04911C29.6845 6.04911 28.9213 5.75603 28.0795 5.75603V5.75439Z" fill="#DDDDDD"/>
<path d="M37.0297 5.99017V7.20342C37.0297 7.20342 36.1682 5.75439 34.2291 5.75439C31.8199 5.75439 29.7056 7.76993 29.7056 10.6287C29.7056 13.4874 31.8199 15.503 34.2291 15.503C36.2272 15.503 37.0297 14.054 37.0297 14.054V15.2672H39.203V5.99017H37.0297ZM36.8528 12.0188C36.8528 12.0188 36.1682 13.3106 34.6598 13.3106C33.0745 13.3106 32.0951 12.1563 32.0951 10.6287C32.0951 9.10107 33.0745 7.94676 34.6598 7.94676C36.2452 7.94676 36.8528 9.23861 36.8528 9.23861V12.0188Z" fill="#DDDDDD"/>
<path d="M39.9093 5.99023V8.1826H44.1773L39.5752 15.2689H47.9557V13.0765H43.5697L48.1718 5.99023H39.9093Z" fill="#DDDDDD"/>
<path d="M56.8471 13.3106C55.2617 13.3106 54.243 12.0777 54.243 10.6287C54.243 9.17966 55.2617 7.94676 56.8471 7.94676C58.2572 7.94676 59.0204 8.92588 59.0204 8.92588L60.6451 7.47685C60.6451 7.47685 59.3332 5.75439 56.8471 5.75439C54.0661 5.75439 51.8535 7.88782 51.8535 10.6287C51.8535 13.3696 54.0661 15.503 56.8471 15.503C59.3529 15.503 60.6844 13.7412 60.6844 13.7412L59.1367 12.176C59.1367 12.176 58.4324 13.3106 56.8454 13.3106H56.8471Z" fill="#DDDDDD"/>
<path d="M66.3263 5.75439C63.565 5.75439 61.3721 7.88782 61.3721 10.6287C61.3721 13.3696 63.565 15.503 66.3263 15.503C69.0876 15.503 71.2806 13.3499 71.2806 10.6287C71.2806 7.90747 69.0876 5.75439 66.3263 5.75439ZM66.3263 13.3106C64.741 13.3106 63.7616 12.0777 63.7616 10.6287C63.7616 9.17966 64.741 7.94676 66.3263 7.94676C67.9117 7.94676 68.8911 9.17966 68.8911 10.6287C68.8911 12.0777 67.9117 13.3106 66.3263 13.3106Z" fill="#DDDDDD"/>
<path d="M77.447 5.75439C75.4883 5.75439 74.6661 7.33932 74.6661 7.33932V5.98853H72.4731V15.2672H74.8233V9.14201C74.8233 9.14201 75.4506 7.9484 76.6642 7.9484C77.6829 7.9484 78.505 8.51655 78.505 9.84769V15.2705H80.8552V9.25826C80.8552 7.02659 79.2502 5.75439 77.4487 5.75439H77.447Z" fill="#DDDDDD"/>
<path d="M81.9507 13.8198C81.9507 13.8198 83.4198 15.503 86.1417 15.503C88.5116 15.503 90.1952 14.2308 90.1952 12.6442C90.1952 10.7253 88.8834 10.1195 87.0425 9.72817C85.4768 9.39579 84.8495 9.25826 84.8495 8.69011C84.8495 8.12196 85.652 7.80923 86.5332 7.80923C87.786 7.80923 88.844 8.61151 88.844 8.61151L90.0183 6.88906C90.0183 6.88906 88.6279 5.75439 86.5332 5.75439C83.9881 5.75439 82.5386 7.20342 82.5386 8.65081C82.5386 10.4126 84.1437 11.1952 85.9845 11.5865C87.3946 11.8796 87.8254 11.9975 87.8254 12.6049C87.8254 13.1731 87.0228 13.4465 86.0631 13.4465C84.4974 13.4465 83.2625 12.1154 83.2625 12.1154L81.9507 13.8182V13.8198Z" fill="#DDDDDD"/>
<path d="M94.9477 15.5031C96.8476 15.5031 97.7287 13.9181 97.7287 13.9181V15.2689H99.9216V5.99023H97.5715V12.176C97.5715 12.176 96.9442 13.3107 95.7306 13.3107C94.517 13.3107 93.8898 12.7229 93.8898 11.3525V5.99023H91.5396V12.0008C91.5396 14.2325 93.1642 15.5047 94.9461 15.5047L94.9477 15.5031Z" fill="#DDDDDD"/>
<path d="M101.932 15.269H104.282V0.469238H101.932V15.269Z" fill="#DDDDDD"/>
<path d="M105.598 8.10428H107.419V12.2156C107.419 14.1935 108.79 15.505 110.592 15.505C111.943 15.505 112.824 14.8975 112.824 14.8975L111.963 12.9786C111.963 12.9786 111.512 13.3109 110.983 13.3109C110.356 13.3109 109.77 12.9786 109.77 11.8423V8.10264H112.57V5.98886H109.77V3.22998H107.419V5.9905H105.598V8.10428Z" fill="#DDDDDD"/>
<path d="M114.326 15.2688H116.676V5.99016H114.326V15.2688ZM113.954 2.99551C113.954 3.85674 114.639 4.54277 115.502 4.54277C116.365 4.54277 117.049 3.85837 117.049 2.99551C117.049 2.13264 116.365 1.44824 115.502 1.44824C114.639 1.44824 113.954 2.13264 113.954 2.99551Z" fill="#DDDDDD"/>
<path d="M123.706 5.75439C121.747 5.75439 120.925 7.33932 120.925 7.33932V5.98853H118.732V15.2672H121.082V9.14201C121.082 9.14201 121.709 7.9484 122.923 7.9484C123.942 7.9484 124.764 8.51655 124.764 9.84769V15.2705H127.114V9.25826C127.114 7.02659 125.509 5.75439 123.707 5.75439H123.706Z" fill="#DDDDDD"/>
<path d="M135.65 14.3094V15.4244C135.65 16.8145 134.828 17.8132 133.006 17.8132C131.185 17.8132 129.932 16.4428 129.932 16.4428L128.601 18.2439C128.601 18.2439 130.343 20.0056 133.006 20.0056C135.669 20.0056 138 18.5762 138 15.3458V5.99017H135.827V7.20342C135.827 7.20342 134.965 5.75439 133.026 5.75439C130.617 5.75439 128.502 7.76993 128.502 10.6287C128.502 13.4874 130.617 15.503 133.026 15.503C134.495 15.503 135.337 14.7007 135.65 14.3094ZM135.65 12.0188C135.65 12.0188 134.965 13.3106 133.437 13.3106C131.909 13.3106 130.892 12.1563 130.892 10.6287C130.892 9.10107 131.852 7.94676 133.437 7.94676C135.022 7.94676 135.65 9.23861 135.65 9.23861V12.0188Z" fill="#DDDDDD"/>
</svg>
