<svg width="138" height="15" viewBox="0 0 138 15" fill="none" xmlns="http://www.w3.org/2000/svg">
<path d="M132.287 14.2744C131.376 14.2744 130.505 14.1995 129.675 14.0499C128.859 13.9003 128.165 13.6894 127.594 13.4174V9.98951C128.233 10.2888 128.934 10.5336 129.696 10.7241C130.471 10.9145 131.178 11.0097 131.818 11.0097C132.362 11.0097 132.777 10.9553 133.062 10.8465C133.362 10.7377 133.511 10.5336 133.511 10.2344C133.511 9.89429 133.287 9.64944 132.838 9.49981C132.389 9.33658 131.743 9.11213 130.899 8.82648C130.029 8.52722 129.342 8.20756 128.839 7.86749C128.349 7.51382 127.995 7.09213 127.778 6.60244C127.56 6.09914 127.451 5.48702 127.451 4.76607C127.451 2.07274 129.322 0.726074 133.062 0.726074C133.525 0.726074 134.014 0.760081 134.531 0.828094C135.062 0.882505 135.565 0.95732 136.041 1.05254C136.531 1.13416 136.946 1.22937 137.286 1.3382V4.78648C136.592 4.51442 135.953 4.32399 135.368 4.21517C134.797 4.09274 134.273 4.03153 133.797 4.03153C133.321 4.03153 132.885 4.07234 132.491 4.15395C132.11 4.22197 131.92 4.4124 131.92 4.72527C131.92 4.98372 132.09 5.18096 132.43 5.31698C132.77 5.43941 133.341 5.60944 134.144 5.82708C135.218 6.12634 136.028 6.48001 136.572 6.88809C137.129 7.29618 137.504 7.77907 137.694 8.33678C137.898 8.88089 138 9.50661 138 10.214C138 11.4382 137.524 12.4244 136.572 13.1725C135.62 13.9071 134.191 14.2744 132.287 14.2744Z" fill="#DDDDDD"/>
<path d="M123.635 14.0702V10.9688H127.043V14.0702H123.635Z" fill="#DDDDDD"/>
<path d="M108.541 14.0704L113.58 0.930176H118.171L123.231 14.0704H118.661L117.641 11.4587H114.111L113.111 14.0704H108.541ZM114.641 8.39805H117.11L115.866 5.21502L114.641 8.39805Z" fill="#DDDDDD"/>
<path d="M104.725 14.0702V10.9688H108.132V14.0702H104.725Z" fill="#DDDDDD"/>
<path d="M98.6107 14.2744C97.6993 14.2744 96.8287 14.1995 95.9989 14.0499C95.1828 13.9003 94.489 13.6894 93.9177 13.4174V9.98951C94.5571 10.2888 95.2576 10.5336 96.0193 10.7241C96.7947 10.9145 97.502 11.0097 98.1414 11.0097C98.6855 11.0097 99.1004 10.9553 99.386 10.8465C99.6853 10.7377 99.8349 10.5336 99.8349 10.2344C99.8349 9.89429 99.6105 9.64944 99.1616 9.49981C98.7127 9.33658 98.0666 9.11213 97.2232 8.82648C96.3526 8.52722 95.6657 8.20756 95.1624 7.86749C94.6727 7.51382 94.319 7.09213 94.1014 6.60244C93.8837 6.09914 93.7749 5.48702 93.7749 4.76607C93.7749 2.07274 95.6453 0.726074 99.386 0.726074C99.8485 0.726074 100.338 0.760081 100.855 0.828094C101.386 0.882505 101.889 0.95732 102.365 1.05254C102.855 1.13416 103.27 1.22937 103.61 1.3382V4.78648C102.916 4.51442 102.277 4.32399 101.692 4.21517C101.12 4.09274 100.597 4.03153 100.121 4.03153C99.6445 4.03153 99.2092 4.07234 98.8147 4.15395C98.4338 4.22197 98.2434 4.4124 98.2434 4.72527C98.2434 4.98372 98.4134 5.18096 98.7535 5.31698C99.0936 5.43941 99.6649 5.60944 100.467 5.82708C101.542 6.12634 102.351 6.48001 102.896 6.88809C103.453 7.29618 103.827 7.77907 104.018 8.33678C104.222 8.88089 104.324 9.50661 104.324 10.214C104.324 11.4382 103.848 12.4244 102.896 13.1725C101.943 13.9071 100.515 14.2744 98.6107 14.2744Z" fill="#DDDDDD"/>
<path d="M84.7969 14.0704V0.930176H89.1837V14.0704H84.7969Z" fill="#DDDDDD"/>
<path d="M70.8984 14.0704V0.930176H75.2853V5.52108H79.1825V0.930176H83.5694V14.0704H79.1825V9.47947H75.2853V14.0704H70.8984Z" fill="#DDDDDD"/>
<path d="M64.8949 14.2744C62.4873 14.2744 60.6509 13.703 59.3859 12.5604C58.1208 11.4178 57.4883 9.75146 57.4883 7.56143C57.4883 5.34419 58.148 3.65065 59.4675 2.48082C60.7869 1.31099 62.6981 0.726074 65.201 0.726074C66.0444 0.726074 66.7925 0.773684 67.4454 0.868903C68.112 0.964122 68.7513 1.11375 69.3634 1.31779V5.05173C68.7377 4.82048 68.1052 4.66405 67.4659 4.58244C66.8265 4.48722 66.1736 4.43961 65.5071 4.43961C64.3917 4.43961 63.5211 4.67766 62.8954 5.15375C62.2696 5.62984 61.9568 6.4324 61.9568 7.56143C61.9568 8.64964 62.2016 9.425 62.6913 9.88749C63.1946 10.3364 63.9224 10.5608 64.8745 10.5608C65.4595 10.5608 65.9764 10.4928 66.4252 10.3568V9.01011H64.038V6.33719H70.0776V13.0297C69.5471 13.3698 68.8533 13.6622 67.9964 13.9071C67.1394 14.1519 66.1056 14.2744 64.8949 14.2744Z" fill="#DDDDDD"/>
<path d="M45.4521 14.0704V0.930176H52.5528C53.6546 0.930176 54.5591 1.14102 55.2665 1.5627C55.9874 1.97078 56.5179 2.53529 56.858 3.25624C57.2117 3.97718 57.3885 4.80014 57.3885 5.72512C57.3885 6.6093 57.1641 7.39145 56.7152 8.07159C56.2663 8.73812 55.7018 9.26863 55.0216 9.6631C55.2801 9.86714 55.4977 10.1664 55.6746 10.5609L57.2049 14.0704H52.6344L51.2877 11.0302C51.1925 10.8261 51.0905 10.6833 50.9816 10.6017C50.8728 10.5201 50.7028 10.4793 50.4715 10.4793H49.839V14.0704H45.4521ZM49.839 7.0922H51.4509C52.4303 7.0922 52.92 6.63651 52.92 5.72512C52.92 4.80014 52.4643 4.33765 51.553 4.33765H49.839V7.0922Z" fill="#DDDDDD"/>
<path d="M37.7629 14.2744C36.2938 14.2744 35.0491 14.0499 34.0289 13.601C33.0087 13.1521 32.2266 12.4312 31.6825 11.4382C31.152 10.4452 30.8867 9.13934 30.8867 7.52062C30.8867 5.87469 31.152 4.55523 31.6825 3.56224C32.2266 2.56924 33.0087 1.8483 34.0289 1.39941C35.0491 0.950519 36.2938 0.726074 37.7629 0.726074C39.232 0.726074 40.4766 0.950519 41.4968 1.39941C42.517 1.8483 43.2924 2.56924 43.8229 3.56224C44.367 4.55523 44.639 5.87469 44.639 7.52062C44.639 9.13934 44.367 10.4452 43.8229 11.4382C43.2924 12.4312 42.517 13.1521 41.4968 13.601C40.4766 14.0499 39.232 14.2744 37.7629 14.2744ZM37.7629 10.5608C38.6062 10.5608 39.2116 10.3228 39.5788 9.84668C39.9597 9.37059 40.1502 8.59523 40.1502 7.52062C40.1502 6.3916 39.9597 5.60264 39.5788 5.15375C39.2116 4.69126 38.6062 4.46001 37.7629 4.46001C36.9059 4.46001 36.287 4.69126 35.9061 5.15375C35.5388 5.60264 35.3552 6.3916 35.3552 7.52062C35.3552 8.59523 35.5388 9.37059 35.9061 9.84668C36.287 10.3228 36.9059 10.5608 37.7629 10.5608Z" fill="#DDDDDD"/>
<path d="M18.3525 14.0704V0.930176H25.8612C27.1943 0.930176 28.2213 1.24984 28.9422 1.88917C29.6632 2.52849 30.0236 3.43307 30.0236 4.6029C30.0236 5.26943 29.9012 5.83395 29.6564 6.29644C29.4251 6.75893 29.1123 7.1262 28.7178 7.39826C29.2619 7.6295 29.6904 7.94917 30.0032 8.35725C30.3161 8.75172 30.4725 9.34344 30.4725 10.1324C30.4725 11.3702 30.0781 12.336 29.2891 13.0298C28.5001 13.7235 27.3983 14.0704 25.9837 14.0704H18.3525ZM22.515 6.07199H24.6778C25.4667 6.07199 25.8612 5.71832 25.8612 5.01098C25.8612 4.67092 25.7592 4.41247 25.5552 4.23563C25.3647 4.04519 25.0519 3.94997 24.6166 3.94997H22.515V6.07199ZM22.515 11.071H24.7594C25.5892 11.071 26.0041 10.6901 26.0041 9.92836C26.0041 9.22102 25.5756 8.86735 24.7186 8.86735H22.515V11.071Z" fill="#DDDDDD"/>
<path d="M12.7427 14.0704V0.930176H17.1295V14.0704H12.7427Z" fill="#DDDDDD"/>
<path d="M0 14.0704V0.930176H7.10061C8.20242 0.930176 9.107 1.14102 9.81434 1.5627C10.5353 1.97078 11.0658 2.53529 11.4059 3.25624C11.7595 3.97718 11.9364 4.80014 11.9364 5.72512C11.9364 6.6093 11.7119 7.39145 11.263 8.07159C10.8141 8.73812 10.2496 9.26863 9.56949 9.6631C9.82794 9.86714 10.0456 10.1664 10.2224 10.5609L11.7527 14.0704H7.18222L5.83556 11.0302C5.74034 10.8261 5.63832 10.6833 5.52949 10.6017C5.42067 10.5201 5.25064 10.4793 5.01939 10.4793H4.38687V14.0704H0ZM4.38687 7.0922H5.99879C6.97818 7.0922 7.46788 6.63651 7.46788 5.72512C7.46788 4.80014 7.01219 4.33765 6.10081 4.33765H4.38687V7.0922Z" fill="#DDDDDD"/>
</svg>
