<svg width="119" height="32" viewBox="0 0 119 32" fill="none" xmlns="http://www.w3.org/2000/svg">
<g clip-path="url(#clip0_157_614)">
<path fill-rule="evenodd" clip-rule="evenodd" d="M86.3306 26.8676C86.1537 27.3178 85.8106 27.543 85.3008 27.543H81.1948C80.9695 27.543 80.807 27.4646 80.7071 27.3074C80.6069 27.1502 80.548 26.9959 80.5303 26.8441C80.5123 26.6924 80.4999 26.4489 80.4928 26.1137L80.462 25.627C79.4383 26.339 78.3812 26.8886 77.2899 27.276C76.1987 27.6633 75.1138 27.8572 74.0356 27.8572C72.388 27.8572 70.9818 27.5274 69.8166 26.8676C68.6514 26.2079 67.8116 25.2814 67.2984 24.0877C66.7849 22.8942 66.6486 21.5224 66.8896 19.9727C66.9959 19.2922 67.1952 18.5437 67.4884 17.727C68.1491 15.9154 69.2096 14.2795 70.6695 12.8189C72.129 11.3582 73.8397 10.2091 75.8007 9.37146C77.7622 8.53382 79.7795 8.11491 81.8532 8.11491C83.9156 8.11491 85.4608 8.73269 86.489 9.96827L88.5987 4.67536C88.7755 4.22506 89.1186 4 89.628 4H94.6234C95.0498 4 95.2394 4.15206 95.1921 4.4555C95.1857 4.49729 95.1625 4.57063 95.1227 4.67536L86.3306 26.8676ZM108.606 26.8834C108.431 27.3231 108.094 27.543 107.597 27.543H102.496C102.069 27.543 101.879 27.3911 101.927 27.0875C101.932 27.0561 101.954 26.988 101.994 26.8834L106.939 14.4032H104.557C104.178 14.4032 104.009 14.2671 104.051 13.9949C104.056 13.9635 104.079 13.8954 104.119 13.7908L105.729 9.72291C105.806 9.53444 105.927 9.38792 106.091 9.28319C106.255 9.17864 106.445 9.12625 106.658 9.12625H108.877C108.974 9.12625 109.064 9.06617 109.099 8.97486C109.341 8.36717 110.226 6.13667 110.226 6.13667C110.335 5.89583 110.47 5.70987 110.632 5.57913C110.795 5.44822 111.054 5.33561 111.413 5.24146L116.313 4.10624C116.463 4.06445 116.612 4.04364 116.769 4.04364C116.982 4.04364 117.144 4.09852 117.257 4.20845C117.371 4.31838 117.411 4.47799 117.378 4.68744C117.358 4.81315 117.331 4.9125 117.296 4.98584C117.296 4.98584 116.17 7.82102 115.783 8.79899C115.752 8.87267 115.761 8.95607 115.807 9.02155C115.851 9.08699 115.926 9.12625 116.005 9.12625H118.515C118.693 9.12625 118.821 9.17072 118.902 9.25952C118.983 9.34862 119.014 9.45606 118.994 9.58176C118.985 9.64435 118.972 9.69167 118.955 9.72291L117.344 13.7908C117.173 14.1992 116.863 14.4032 116.412 14.4032H113.551L108.606 26.8834ZM36.8939 21.1194C37.0626 21.0251 37.2298 20.9779 37.3959 20.9779C37.5972 20.9779 37.7339 21.0512 37.806 21.1978L39.2013 23.8836C39.2835 24.0405 39.3139 24.1874 39.2929 24.3233C39.2617 24.5224 39.0838 24.716 38.758 24.9045C37.0089 25.941 35.4457 26.6374 34.0691 26.9933C32.6923 27.3493 31.2515 27.5274 29.7465 27.5274C28.0163 27.5274 26.4956 27.1712 25.1844 26.4593C23.8729 25.7472 22.9048 24.7709 22.2802 23.5301C21.6557 22.2895 21.4623 20.9047 21.7 19.3759C21.7914 18.7897 21.9394 18.2191 22.1443 17.6641C22.8384 15.7167 23.9148 13.9969 25.3735 12.5045C26.832 11.0125 28.5439 9.85566 30.5086 9.03377C32.4732 8.21192 34.5281 7.80089 36.6731 7.80089C37.9768 7.80089 39.2069 8.08101 40.3643 8.64107C41.5212 9.20129 42.415 10.0651 43.045 11.2325C43.6752 12.4 43.8566 13.8422 43.5897 15.5596C43.4883 16.2088 43.3265 16.8683 43.1035 17.5385C42.9245 18.0828 42.7011 18.4886 42.4346 18.7556C42.1677 19.0225 41.8343 19.2032 41.4345 19.2974C41.0351 19.3917 40.4972 19.4389 39.8218 19.4389H27.6985C27.6401 20.1194 27.7488 20.7163 28.0244 21.2293C28.3001 21.7422 28.7151 22.1401 29.2696 22.4229C29.824 22.7056 30.4806 22.847 31.2389 22.847C32.0805 22.847 32.8071 22.7843 33.4191 22.6586C34.0313 22.5329 34.5351 22.3784 34.9311 22.1952C35.327 22.0121 35.767 21.7738 36.251 21.4805C36.5379 21.3131 36.7522 21.1925 36.8939 21.1194ZM95.325 13.5666C95.417 13.3571 95.5607 13.1948 95.7563 13.0797C95.9519 12.9646 96.1445 12.907 96.3341 12.907H101.4C101.59 12.907 101.731 12.954 101.823 13.0483C101.915 13.1426 101.949 13.263 101.927 13.4095C101.915 13.4828 101.901 13.5352 101.884 13.5666L96.6088 26.8676C96.4335 27.3074 96.1032 27.5274 95.6171 27.5274H90.5511C90.1247 27.5274 89.9347 27.3755 89.982 27.0719C89.9869 27.0403 90.0094 26.9722 90.0492 26.8676L95.325 13.5666ZM0.237538 23.6479C0.0565092 23.3651 -0.0211946 23.1401 0.00493146 22.9726C0.039148 22.7527 0.227424 22.5329 0.569758 22.313L4.12795 19.8944C4.35232 19.7477 4.55894 19.6745 4.74874 19.6745C4.97379 19.6745 5.18716 19.7896 5.38826 20.0199C5.82447 20.4912 6.21721 20.8812 6.56595 21.1899C6.91503 21.499 7.34906 21.7738 7.86871 22.0146C8.38819 22.2553 8.96787 22.3758 9.60784 22.3758C11.5869 22.3758 12.8635 21.6744 13.4373 20.2713C13.4573 20.219 13.4753 20.1403 13.4916 20.0357C13.5666 19.554 13.3491 19.1614 12.8394 18.8577C12.3297 18.5541 11.659 18.2557 10.8279 17.9624C8.68182 17.2085 7.12115 16.3472 6.14592 15.3788C5.17079 14.4103 4.78752 13.2559 4.99601 11.9158C5.05299 11.5494 5.18142 11.1043 5.3815 10.5807C5.88348 9.33471 6.65172 8.24331 7.68635 7.30613C8.72094 6.36912 9.98004 5.6466 11.4633 5.13874C12.9466 4.63088 14.5888 4.37712 16.3902 4.37712C17.907 4.37712 19.3553 4.66495 20.7352 5.24078C22.1152 5.81678 23.1784 6.56011 23.9256 7.4711C24.0535 7.6386 24.1046 7.8061 24.0785 7.97361C24.0345 8.2564 23.7876 8.54961 23.3374 8.85321L20.2326 11.0991C19.983 11.2562 19.7692 11.3346 19.5916 11.3346C19.3428 11.3346 19.0974 11.1985 18.8552 10.9264C18.6658 10.696 18.3679 10.4603 17.961 10.2197C17.5537 9.9787 17.1273 9.76941 16.6809 9.59132C16.2651 9.44462 15.7375 9.37146 15.0975 9.37146C14.3628 9.37146 13.6892 9.49199 13.0772 9.73262C12.4649 9.97349 12.0529 10.3556 11.8412 10.8793C11.7979 11.0048 11.7721 11.0939 11.764 11.1463C11.7183 11.4395 11.8112 11.6984 12.043 11.9237C12.2746 12.1487 12.61 12.3528 13.0498 12.5361C13.4893 12.7195 14.1042 12.9367 14.8948 13.188C16.2348 13.6381 17.3336 14.1171 18.1907 14.6249C19.0481 15.1328 19.6819 15.7427 20.0925 16.4546C20.5031 17.1668 20.6312 18.02 20.4763 19.0146C20.3932 19.5488 20.2459 20.0775 20.034 20.6011C19.464 22.0565 18.6033 23.3024 17.4526 24.3391C16.3017 25.3756 14.9286 26.1661 13.3329 26.7106C11.7374 27.255 9.99131 27.5274 8.09523 27.5274C6.96946 27.5274 5.89711 27.3547 4.87855 27.0091C3.8598 26.6634 2.95465 26.1975 2.16311 25.6112C1.37124 25.0247 0.729549 24.3704 0.237538 23.6479ZM59.435 16.9259C59.5747 16.5595 59.6637 16.2558 59.7012 16.0149C59.8217 15.2401 59.6577 14.6172 59.2098 14.146C58.7616 13.6747 58.0574 13.4394 57.0975 13.4394C56.3392 13.4394 55.6045 13.5911 54.8939 13.8946C54.1829 14.1983 53.5549 14.6172 53.0094 15.1511C52.4644 15.6851 52.0638 16.2767 51.8089 16.9259L47.9476 26.6634C47.8658 26.8834 47.6601 27.0824 47.3301 27.2602C47.0005 27.4382 46.7051 27.5274 46.4445 27.5274H41.876C41.4255 27.5274 41.2258 27.3649 41.2761 27.0403C41.2907 26.9462 41.3084 26.8728 41.3283 26.8205L48.3857 8.9947C48.5895 8.5234 48.9578 8.28779 49.4912 8.28779H52.6554C52.928 8.28779 53.1461 8.37152 53.3094 8.53904C53.473 8.7067 53.5477 8.91077 53.5342 9.1516L53.3364 10.8793C54.5917 9.89492 55.8346 9.18032 57.0652 8.73539C58.2957 8.2903 59.5571 8.06774 60.8488 8.06774C61.8203 8.06774 62.7945 8.26427 63.7701 8.65682C64.7458 9.04956 65.5311 9.69606 66.1257 10.5965C66.7203 11.4971 66.9061 12.6645 66.6832 14.099C66.5754 14.7899 66.3648 15.5333 66.0518 16.3291L61.8924 26.8363C61.7141 27.2969 61.3642 27.5274 60.8428 27.5274H56.061C55.6105 27.5274 55.4108 27.3649 55.4611 27.0403C55.4743 26.9567 55.4908 26.8886 55.5107 26.8363L59.435 16.9259ZM83.8053 17.9624C83.9404 17.6273 84.0358 17.2819 84.0909 16.9259C84.2036 16.2034 84.1172 15.5569 83.8327 14.9863C83.5485 14.4157 83.0992 13.9706 82.4854 13.6514C81.8712 13.332 81.1437 13.1722 80.3021 13.1722C79.3659 13.1722 78.4345 13.3895 77.5077 13.8241C76.5812 14.2586 75.7613 14.8421 75.0488 15.5752C74.3363 16.3081 73.8123 17.104 73.4774 17.9624C73.3074 18.3708 73.1921 18.7687 73.1317 19.1561C73.0258 19.8368 73.0908 20.4492 73.3258 20.9937C73.5611 21.5381 73.9542 21.9624 74.5056 22.2658C75.0567 22.5696 75.729 22.7213 76.5234 22.7213C77.5069 22.7213 78.4934 22.5121 79.483 22.093C80.4725 21.6744 81.3524 21.1011 82.1235 20.3734C82.8946 19.6456 83.455 18.8421 83.8053 17.9624ZM35.0401 12.6836C34.1038 12.6836 33.1658 12.9426 32.2261 13.461C31.2863 13.9791 30.4566 14.6468 29.737 15.4634H38.3582C38.4002 14.584 38.1097 13.9007 37.486 13.4139C36.8627 12.9268 36.0474 12.6836 35.0401 12.6836ZM98.8578 4.65958C98.9498 4.45029 99.0932 4.288 99.2892 4.17287C99.4847 4.05757 99.6777 4 99.8673 4H104.933C105.123 4 105.264 4.04716 105.356 4.14148C105.448 4.23564 105.482 4.35614 105.459 4.50266C105.448 4.576 105.434 4.62836 105.417 4.65958L103.464 9.58277C103.289 10.0228 102.959 10.2427 102.473 10.2427H97.4069C96.9805 10.2427 96.7905 10.0906 96.8378 9.78719C96.8427 9.75565 96.8652 9.68766 96.905 9.58277L98.8578 4.65958Z" fill="white"/>
</g>
<defs>
<clipPath id="clip0_157_614">
<rect width="119" height="24" fill="white" transform="translate(0 4)"/>
</clipPath>
</defs>
</svg>
