<svg width="119" height="32" viewBox="0 0 119 32" fill="none" xmlns="http://www.w3.org/2000/svg">
<g clip-path="url(#clip0_157_529)">
<path d="M0.772727 0.56179H71.5375V31.2273H0.772727V0.56179Z" stroke="white" stroke-width="1.54545"/>
<path d="M12.0985 9.42603L6.43774 23.2333H9.23001L10.3897 20.3476H16.5006L17.6603 23.2333H20.4526L14.7918 9.42603H12.0985ZM15.3164 17.5129H11.5749L13.4506 12.9339L15.3164 17.5129Z" fill="white"/>
<path d="M20.9089 12.2607H25.6858V23.2333H28.2494V12.2607H33.0263V9.42603H20.9089V12.2607Z" fill="white"/>
<path d="M46.2144 18.0977C46.2144 18.9685 45.9422 19.6089 45.3786 20.0561C44.7915 20.5234 43.8831 20.7593 42.678 20.7593C41.4729 20.7593 40.5473 20.5225 39.9556 20.0552C39.3894 19.6034 39.1117 18.9631 39.1117 18.0977V9.42603H36.5499V18.6096C36.5448 19.3044 36.6943 19.9915 36.9873 20.6209C37.2791 21.2409 37.7051 21.7877 38.2342 22.2213C38.8095 22.6836 39.4656 23.0342 40.1689 23.2552C40.9806 23.5106 41.8274 23.6354 42.678 23.625C43.5228 23.6356 44.3641 23.5142 45.1717 23.2652C45.874 23.0467 46.5278 22.6945 47.0974 22.2277C47.6216 21.792 48.0457 21.2475 48.3406 20.6318C48.6356 19.9992 48.7851 19.3081 48.778 18.6096V9.42603H46.2144V18.0977Z" fill="white"/>
<path d="M60.2111 9.42603H57.5187L51.8579 23.2333H54.6502L55.809 20.3476H61.9199L63.0796 23.2333H65.8728L60.2111 9.42603ZM60.7365 17.5129H56.9951L58.8708 12.9339L60.7365 17.5129Z" fill="white"/>
</g>
<defs>
<clipPath id="clip0_157_529">
<rect width="119" height="32" fill="white"/>
</clipPath>
</defs>
</svg>
