<svg width="119" height="32" viewBox="0 0 119 32" fill="none" xmlns="http://www.w3.org/2000/svg">
<g clip-path="url(#clip0_157_550)">
<path d="M44.6257 7.64771C43.2777 7.64771 41.9782 8.24371 41.0676 9.25985C40.1829 8.24371 38.8932 7.64771 37.5321 7.64771C34.8814 7.64771 32.7231 9.84283 32.7231 12.5428V22.8052C32.7231 23.4956 33.2805 24.0558 33.9675 24.0558C34.6545 24.0558 35.2119 23.4956 35.2119 22.8052V12.5428C35.2119 11.2237 36.2521 10.149 37.5289 10.149C38.8057 10.149 39.8167 11.2009 39.8167 12.5428V22.8052C39.8167 23.4956 40.3741 24.0558 41.0611 24.0558C41.7481 24.0558 42.3055 23.4956 42.3055 22.8052V12.5428C42.3055 11.2237 43.3457 10.149 44.6257 10.149C45.9058 10.149 46.9427 11.2237 46.9427 12.5428V22.8052C46.9427 23.4956 47.5001 24.0558 48.1871 24.0558C48.8741 24.0558 49.4315 23.4956 49.4315 22.8052V12.5428C49.4315 9.84283 47.2765 7.64771 44.6257 7.64771Z" fill="white"/>
<path d="M52.6039 7.58264C51.9201 7.58264 51.3595 8.14282 51.3595 8.83002L51.3303 22.802C51.3303 23.1374 51.4599 23.4501 51.6933 23.6879C51.9298 23.9256 52.2409 24.0559 52.5747 24.0559C53.2585 24.0559 53.8191 23.4957 53.8191 22.8085L53.8482 8.83654C53.8482 8.50108 53.7186 8.18842 53.4853 7.95067C53.2487 7.71292 52.9376 7.58264 52.6039 7.58264Z" fill="white"/>
<path d="M62.3452 14.1452L62.2674 14.1061C60.8837 13.4515 59.163 12.634 59.163 11.7416C59.163 10.1295 61.7425 10.0839 61.7684 10.0839C62.9123 10.0839 64.2442 10.5431 64.2442 11.1358V11.2173C64.2442 11.9208 64.7983 12.494 65.5015 12.4972C66.182 12.4972 66.7329 11.9208 66.7329 11.2173V11.1358C66.7329 9.92103 66.0297 8.90163 64.7594 8.26003C63.9331 7.82687 62.841 7.57935 61.7652 7.57935C60.6893 7.57935 59.5 7.88875 58.5926 8.42939C57.3709 9.16544 56.671 10.3705 56.671 11.7384C56.671 14.1354 58.9264 15.2525 61.1106 16.3305L61.2078 16.3794C62.9998 17.249 64.6881 18.0697 64.6881 19.3171C64.6881 21.1507 62.6304 21.5025 61.4152 21.5513C59.6458 21.5513 58.207 20.2974 58.207 19.4767V19.366C58.207 19.0207 58.0709 18.6983 57.8246 18.4605C57.5783 18.2228 57.2316 18.0795 56.8654 18.1088C56.2205 18.1381 55.7183 18.6755 55.7183 19.3269V19.4767C55.7183 21.9128 58.395 24.0526 61.4573 24.0526C65.6798 23.9516 67.1769 21.4373 67.1769 19.3171C67.1769 16.5357 64.6104 15.2623 62.3452 14.1419" fill="white"/>
<path d="M75.7061 14.1452L75.6283 14.1061C74.2446 13.4515 72.5238 12.634 72.5238 11.7416C72.5238 10.1295 75.1033 10.0839 75.1292 10.0839C76.2764 10.0839 77.605 10.5431 77.605 11.1358V11.2173C77.605 11.9208 78.1592 12.494 78.8624 12.4972C79.5429 12.4972 80.0938 11.9208 80.0938 11.2173V11.1358C80.0938 9.92103 79.3906 8.90163 78.1203 8.26003C77.2939 7.82687 76.2019 7.57935 75.126 7.57935C74.0501 7.57935 72.8608 7.88875 71.9535 8.42939C70.7318 9.16544 70.0318 10.3705 70.0318 11.7384C70.0318 14.1354 72.2873 15.2525 74.4714 16.3305L74.5686 16.3794C76.3574 17.249 78.049 18.0697 78.049 19.3171C78.049 21.1507 75.9912 21.5025 74.776 21.5513C73.0034 21.5513 71.5679 20.2974 71.5679 19.4767V19.3953C71.5679 18.6918 71.0137 18.1186 70.3105 18.1153C69.63 18.1153 69.0791 18.6918 69.0791 19.3953V19.4767C69.0791 21.9128 71.7558 24.0526 74.8181 24.0526C79.0406 23.9516 80.5377 21.4373 80.5377 19.3171C80.5377 16.5357 77.9712 15.2656 75.7061 14.1419" fill="white"/>
<path d="M83.7071 7.58264C83.0234 7.58264 82.4628 8.14282 82.4628 8.83002L82.4336 22.802C82.4336 23.1374 82.5632 23.4501 82.7965 23.6879C83.0331 23.9256 83.3442 24.0559 83.678 24.0559C84.3617 24.0559 84.9223 23.4957 84.9223 22.8085L84.9515 8.83654C84.9515 8.50108 84.8219 8.18842 84.5886 7.95067C84.352 7.71292 84.0409 7.58264 83.7071 7.58264Z" fill="white"/>
<path d="M95.0002 7.61536C90.4894 7.61536 86.821 11.3021 86.821 15.8357C86.821 20.3693 90.4894 24.056 95.0002 24.056C99.5111 24.056 103.212 20.3693 103.212 15.8357C103.212 11.3021 99.5273 7.61536 95.0002 7.61536ZM100.723 15.8357C100.723 18.9883 98.1565 21.5548 95.0002 21.5548C91.8439 21.5548 89.3098 18.9883 89.3098 15.8357C89.3098 12.683 91.8634 10.1166 95.0002 10.1166C98.1371 10.1166 100.723 12.683 100.723 15.8357Z" fill="white"/>
<path d="M115.403 11.3671C114.561 8.9603 112.756 7.58264 110.455 7.58264C108.154 7.58264 106.352 8.96355 105.51 11.3671C105.218 12.1846 105.075 13.0509 105.075 14.0117V22.8052C105.075 23.4957 105.636 24.0559 106.32 24.0559C107.004 24.0559 107.564 23.4957 107.564 22.8052V14.0117C107.564 13.3375 107.665 12.7187 107.862 12.2107C108.355 10.7809 109.204 10.0839 110.455 10.0839C111.706 10.0839 112.555 10.7809 113.05 12.2237C113.242 12.7187 113.345 13.3375 113.345 14.0117V22.8052C113.345 23.4957 113.903 24.0559 114.59 24.0559C115.277 24.0559 115.834 23.4957 115.834 22.8052V14.0117C115.834 13.0477 115.692 12.1813 115.4 11.3671" fill="white"/>
<path d="M11.7177 6.54368C11.7177 6.66745 11.7047 6.78795 11.682 6.90845C11.682 6.90845 11.682 6.90845 11.682 6.91171C11.6691 6.97685 11.6496 7.03873 11.6302 7.10061C11.614 7.15272 11.601 7.20483 11.5816 7.25368C11.5556 7.31882 11.5265 7.37744 11.4973 7.43932C11.4746 7.48166 11.4552 7.52074 11.4325 7.55983C11.3936 7.62496 11.3547 7.68359 11.3094 7.74221C11.2899 7.76827 11.2672 7.79432 11.2446 7.82038C11.2316 7.8334 11.2219 7.84969 11.2121 7.85946C11.2283 7.85946 11.2413 7.85946 11.2575 7.85946C13.2861 7.85946 15.2272 8.589 16.7697 9.94385C18.458 11.4257 19.4691 13.4808 19.6214 15.7313C19.6603 16.3078 19.6409 16.8908 19.5631 17.4574C19.4561 18.2424 20.0038 18.9686 20.7848 19.0794C21.5625 19.1868 22.2884 18.6364 22.3986 17.8515C22.5023 17.0894 22.5282 16.311 22.4763 15.5392C22.2754 12.5233 20.9176 9.76798 18.6525 7.78129C17.4049 6.68699 15.9725 5.89557 14.3976 5.43635C13.2829 5.11392 12.1357 4.97387 10.9756 5.00319C11.4228 5.36796 11.7177 5.92162 11.7177 6.54368Z" fill="white"/>
<path d="M7.74824 6.54369C7.74824 6.41667 7.7612 6.29291 7.78713 6.1724C7.79685 6.12355 7.81305 6.07796 7.82277 6.03236C7.84221 5.96071 7.86166 5.89231 7.88758 5.82392C7.90703 5.77181 7.93295 5.7197 7.95887 5.67085C7.98804 5.61548 8.0172 5.55686 8.04961 5.50475C8.05933 5.48846 8.06581 5.46892 8.07878 5.45264C7.37557 5.65782 6.69181 5.92814 6.0437 6.26685C6.98995 6.43621 7.71259 7.26346 7.71259 8.26331C7.71259 8.40987 7.69315 8.5434 7.66398 8.66716C8.00748 8.50432 8.3607 8.36428 8.72689 8.25029C8.14683 7.9018 7.75472 7.26997 7.75472 6.54369" fill="white"/>
<path d="M7.71247 23.9486C7.76756 24.131 7.8032 24.3199 7.8032 24.5186C7.8032 25.4435 7.17129 26.2154 6.32227 26.4401C7.03843 26.7951 7.79024 27.0817 8.58094 27.2771C8.5777 27.2706 8.57122 27.2641 8.56798 27.2576C8.55177 27.2348 8.53881 27.212 8.52261 27.1892C8.46752 27.1143 8.41891 27.0329 8.37678 26.9514C8.36058 26.9156 8.34438 26.8798 8.32818 26.844C8.29253 26.7658 8.26336 26.6844 8.24068 26.603C8.23096 26.5671 8.218 26.5346 8.21151 26.4987C8.18235 26.3815 8.16291 26.261 8.15642 26.1372C8.12402 25.5966 8.30549 25.0722 8.66519 24.6684C8.74621 24.5772 8.8337 24.499 8.92444 24.4306C8.93092 24.4241 8.94064 24.4176 8.94712 24.4111C8.51937 24.2873 8.10782 24.1342 7.71571 23.9486" fill="white"/>
<path d="M5.60603 22.5446C4.04084 21.1181 3.02978 19.1086 2.88071 16.8646C2.73165 14.6141 3.46078 12.4418 4.93523 10.745C5.01625 10.6538 5.09726 10.5658 5.17827 10.4779C5.18152 10.4747 5.188 10.4681 5.19124 10.4649C5.33058 10.3216 5.47641 10.1848 5.62547 10.0513L5.6838 9.99915C5.80046 9.89493 5.92036 9.7842 6.04351 9.68649C6.10832 9.63438 6.16989 9.58553 6.23146 9.53993L6.29951 9.49108C6.39997 9.41617 6.4583 9.37383 6.51987 9.33149L6.57496 9.29567C6.57496 9.29567 6.58792 9.27938 6.59764 9.27287C6.59764 9.27287 6.61385 9.2631 6.62033 9.25659L6.70782 9.19796C7.00919 8.8853 7.13882 8.60521 7.13882 8.2665C7.13882 7.45554 6.48098 6.79114 5.67084 6.79114H5.57686C5.40187 6.79114 5.2042 6.79114 5.07458 6.83348C4.90931 6.94095 4.71163 7.07449 4.52044 7.21779C4.23203 7.42948 3.9663 7.67049 3.68762 7.92127L3.51587 8.08086C3.39272 8.1981 3.27282 8.31861 3.15616 8.43911C3.02006 8.58567 2.90016 8.71595 2.7835 8.84948C0.803513 11.1293 -0.175137 14.0442 0.0257775 17.0568C0.229933 20.1117 1.67198 22.867 3.86261 24.7951C3.84964 24.7039 3.83344 24.6127 3.83344 24.5183C3.83344 23.4924 4.61118 22.6521 5.60603 22.5446Z" fill="white"/>
<path d="M8.15308 26.1371C8.15956 26.2608 8.18224 26.3814 8.20817 26.4986C8.179 26.3814 8.15956 26.2608 8.15308 26.1371Z" fill="white"/>
<path d="M9.70884 27.4951L9.74124 27.5016C9.81254 27.5114 9.88383 27.5244 9.95512 27.5309H9.96484L10.2014 27.5602C10.5384 27.5928 10.8787 27.6091 11.2157 27.6091H11.287C11.5268 27.6091 11.7666 27.6026 12.0096 27.583L12.2332 27.5635C12.5476 27.5342 12.8619 27.4886 13.173 27.4332C13.2216 27.4235 13.2702 27.4235 13.3188 27.4137C13.6915 27.3453 14.048 27.2606 14.3882 27.1597C15.678 26.7819 16.8802 26.1859 17.9561 25.3847C18.0047 25.3488 18.063 25.3293 18.1213 25.3293C18.1926 25.3293 18.2639 25.3586 18.319 25.4107L20.4837 27.5863C20.5453 27.6482 20.6101 27.7003 20.6781 27.7459C21.2355 28.14 22.0295 28.0651 22.5091 27.5863C22.6419 27.4528 22.7456 27.2997 22.8169 27.1238C23.0438 26.5832 22.9206 25.9644 22.5091 25.5508L19.4694 22.4958C19.4694 22.4958 19.4046 22.4437 19.4014 22.4405C18.8375 21.737 17.8589 21.6881 17.2658 22.2418C17.1492 22.3232 17.0746 22.3786 17.0098 22.4405C15.6034 23.7725 13.7595 24.5835 11.8249 24.7137H11.7115L11.6532 24.7203H11.3226C11.1023 24.7235 10.869 24.7235 10.6486 24.704C10.5125 24.6909 10.3537 24.6779 10.2014 24.6616C10.1171 24.6519 10.0329 24.6388 9.95188 24.6291C9.93892 24.6291 9.9292 24.6356 9.91623 24.6356C9.54033 24.6714 9.30377 24.7821 9.08017 25.0362C8.82092 25.3293 8.68806 25.7071 8.71074 26.1012C8.73343 26.4953 8.90518 26.8568 9.20007 27.1173L9.27136 27.1825C9.32969 27.2346 9.39126 27.2899 9.45283 27.3388C9.45932 27.3453 9.4658 27.3518 9.47228 27.3551C9.53061 27.4039 9.58894 27.4397 9.64403 27.4691C9.65375 27.4723 9.66023 27.4788 9.66995 27.4821L9.71208 27.4886L9.70884 27.4951Z" fill="white"/>
<path d="M8.92111 24.4307C8.83037 24.4991 8.74612 24.5772 8.66187 24.6684C8.74288 24.5772 8.83037 24.4991 8.92111 24.4307Z" fill="white"/>
<path d="M8.21167 26.4987C8.22139 26.5345 8.23111 26.5671 8.24084 26.6029C8.23111 26.5671 8.21815 26.5345 8.21167 26.4987Z" fill="white"/>
<path d="M8.32812 26.8438C8.34433 26.8796 8.36053 26.9154 8.37673 26.9512C8.35729 26.9154 8.34433 26.8796 8.32812 26.8438Z" fill="white"/>
<path d="M9.43962 5.13982C9.40397 5.14634 9.36832 5.16262 9.33268 5.17239C9.29055 5.18542 9.24518 5.19519 9.20306 5.21473C9.15445 5.23427 9.11232 5.26033 9.06695 5.28313C9.03455 5.29941 9.00214 5.3157 8.97298 5.33524C8.93085 5.36129 8.89196 5.39386 8.85308 5.42317C8.82391 5.44597 8.79475 5.46877 8.76882 5.49482C8.73317 5.52739 8.70077 5.56322 8.66836 5.59904C8.64244 5.62835 8.61651 5.65767 8.59383 5.69024C8.56791 5.72606 8.54198 5.76514 8.51606 5.80423C8.49337 5.84005 8.47393 5.87913 8.45449 5.91822C8.43504 5.9573 8.4156 5.99312 8.40264 6.03221C8.38319 6.08106 8.37023 6.12991 8.35727 6.18202C8.34755 6.21459 8.33783 6.24716 8.33134 6.28299C8.31514 6.37092 8.30542 6.45886 8.30542 6.55005C8.30542 7.34147 8.94705 7.98633 9.73451 7.98633C9.75395 7.98633 9.7734 7.98307 9.79284 7.97981L9.86089 7.9733C10.2498 7.93747 10.5933 7.74532 10.8298 7.45871C10.8395 7.44569 10.8493 7.43592 10.859 7.42615C10.8946 7.37729 10.9303 7.32844 10.9594 7.27633C10.9724 7.25353 10.9854 7.23073 10.9951 7.20794C11.021 7.15908 11.0437 7.11023 11.0631 7.05812C11.0729 7.03206 11.0793 7.00275 11.0891 6.97344C11.1053 6.92133 11.1215 6.86922 11.1312 6.81385C11.1474 6.72918 11.1571 6.64124 11.1571 6.55005C11.1571 5.75863 10.5155 5.11377 9.72803 5.11377C9.67294 5.11377 9.61785 5.12354 9.566 5.13005C9.52387 5.13657 9.4785 5.13982 9.43638 5.14634" fill="white"/>
<path d="M7.24929 24.5184C7.24929 24.0397 7.01273 23.6163 6.65303 23.3557C6.62386 23.3362 6.59794 23.3199 6.56877 23.3004C6.35165 23.1636 6.09565 23.0822 5.8202 23.0822C5.03274 23.0822 4.39111 23.727 4.39111 24.5184C4.39111 24.9288 4.5661 25.2968 4.84155 25.5606C4.96145 25.6453 5.08459 25.7332 5.20774 25.8114C5.39569 25.9026 5.59984 25.9547 5.8202 25.9547C6.60766 25.9547 7.24929 25.3099 7.24929 24.5184Z" fill="white"/>
<path d="M118.938 6.80742C118.9 6.67389 118.844 6.54687 118.773 6.43288C118.705 6.31889 118.621 6.21467 118.524 6.12347C118.426 6.03228 118.323 5.95412 118.209 5.89224C118.096 5.83036 117.976 5.7815 117.85 5.74568C117.577 5.67403 117.283 5.68054 117.033 5.75545C116.9 5.79453 116.774 5.8499 116.66 5.92155C116.547 5.98994 116.443 6.07462 116.356 6.17233C116.265 6.26678 116.187 6.37425 116.126 6.48824C116.064 6.60223 116.012 6.72274 115.98 6.84976C115.947 6.97677 115.928 7.10705 115.928 7.23732C115.928 7.3904 115.947 7.5337 115.986 7.66723C116.025 7.80076 116.08 7.92778 116.152 8.04177C116.223 8.15576 116.304 8.25998 116.401 8.35117C116.495 8.44236 116.602 8.52053 116.715 8.58241C116.829 8.64429 116.949 8.69314 117.075 8.72897C117.202 8.76154 117.331 8.78108 117.461 8.78108C117.61 8.78108 117.752 8.76154 117.889 8.72246C118.025 8.68337 118.148 8.62801 118.261 8.55636C118.375 8.48796 118.475 8.40328 118.566 8.30558C118.657 8.20787 118.734 8.10365 118.796 7.98966C118.857 7.87567 118.906 7.75517 118.942 7.62815C118.974 7.50113 118.994 7.37086 118.994 7.24058C118.994 7.09076 118.974 6.94746 118.935 6.81067M118.65 7.24058C118.65 7.35783 118.634 7.46856 118.605 7.56952C118.576 7.67374 118.533 7.77145 118.478 7.85939C118.426 7.94732 118.362 8.02874 118.287 8.09714C118.213 8.16879 118.132 8.23067 118.041 8.27952C117.953 8.32837 117.859 8.36746 117.762 8.39351C117.552 8.45214 117.328 8.44562 117.133 8.387C117.03 8.35769 116.933 8.31535 116.845 8.25998C116.758 8.20787 116.677 8.14273 116.608 8.06782C116.54 7.99292 116.479 7.9115 116.427 7.82356C116.378 7.73562 116.34 7.64118 116.314 7.54021C116.288 7.44251 116.275 7.34154 116.275 7.24058C116.275 7.12659 116.291 7.01586 116.32 6.91489C116.349 6.81067 116.391 6.71297 116.446 6.62829C116.502 6.54035 116.563 6.45893 116.638 6.39054C116.712 6.31889 116.793 6.25701 116.881 6.20815C116.968 6.1593 117.062 6.12022 117.163 6.09091C117.26 6.06485 117.364 6.04857 117.467 6.04857C117.581 6.04857 117.691 6.06485 117.795 6.09416C117.898 6.12347 117.995 6.16581 118.083 6.22118C118.17 6.27329 118.251 6.33843 118.32 6.41334C118.391 6.48824 118.449 6.56967 118.501 6.6576C118.55 6.74554 118.588 6.83999 118.618 6.94095C118.644 7.03865 118.657 7.13962 118.657 7.24058" fill="white"/>
<path d="M117.937 7.4067C118.011 7.36762 118.076 7.31877 118.128 7.26015C118.199 7.17221 118.235 7.06148 118.235 6.91492C118.235 6.81395 118.212 6.72276 118.167 6.65111C118.125 6.57946 118.063 6.52084 117.985 6.47524C117.914 6.4329 117.827 6.40033 117.726 6.38079C117.632 6.36125 117.529 6.35474 117.418 6.35474H117.004C116.981 6.35474 116.958 6.35474 116.932 6.36125C116.906 6.36776 116.88 6.37753 116.858 6.39056C116.832 6.40685 116.812 6.42639 116.796 6.45244C116.78 6.4785 116.77 6.51107 116.77 6.54689V8.01248C116.77 8.07436 116.799 8.12322 116.851 8.14601C116.913 8.17207 116.991 8.17207 117.052 8.15578C117.111 8.1395 117.146 8.0939 117.143 8.03528V7.50115C117.143 7.50115 117.166 7.50441 117.175 7.50441H117.412C117.448 7.50441 117.48 7.50441 117.509 7.50441C117.525 7.50441 117.538 7.50441 117.554 7.50441L117.872 8.09065C117.891 8.12647 117.927 8.15253 117.976 8.16555C118.008 8.17533 118.044 8.17858 118.076 8.17858C118.112 8.17858 118.148 8.16881 118.177 8.15253C118.219 8.12973 118.245 8.08739 118.245 8.03854C118.245 8.02551 118.245 8.00923 118.238 7.9962L117.927 7.40996L117.937 7.4067ZM117.772 6.75859C117.83 6.79441 117.856 6.84001 117.856 6.90515V6.93772C117.856 6.98005 117.846 7.01588 117.83 7.03868C117.81 7.06473 117.785 7.08753 117.752 7.10056C117.713 7.11684 117.668 7.12987 117.616 7.13964C117.558 7.14616 117.499 7.15267 117.435 7.15267H117.182C117.182 7.15267 117.162 7.15267 117.153 7.15593V6.69671H117.435C117.59 6.69671 117.7 6.71951 117.772 6.75859Z" fill="white"/>
<path d="M30.9734 15.3827C30.9734 14.6955 30.4161 14.1354 29.7323 14.1321L25.5682 14.1028C25.2344 14.1028 24.9233 14.2331 24.6867 14.4676C24.4502 14.702 24.3206 15.018 24.3206 15.3534C24.3206 16.0406 24.8779 16.6008 25.5617 16.6041L29.7258 16.6334C30.0596 16.6334 30.3707 16.5031 30.6072 16.2686C30.8438 16.0341 30.9734 15.7182 30.9734 15.3827Z" fill="white"/>
</g>
<defs>
<clipPath id="clip0_157_550">
<rect width="119" height="23" fill="white" transform="translate(0 5)"/>
</clipPath>
</defs>
</svg>
