<svg width="119" height="32" viewBox="0 0 119 32" fill="none" xmlns="http://www.w3.org/2000/svg">
<g clip-path="url(#clip0_1651_5530)">
<path d="M0.5 0.5H0.924578C5.58448 1.77824 9.63555 5.60684 9.97346 10.5272C10.2455 15.9193 10.1694 21.3229 10.0933 26.7394C10.0711 28.3125 10.049 29.8866 10.0353 31.4619C7.84569 31.1749 5.78355 30.2522 4.10729 28.8021C2.30887 27.2465 1.04689 25.1637 0.5 22.8503V0.5Z" fill="#222325" stroke="#222325"/>
<path d="M11.7207 9.66357C14.2747 10.3867 16.9686 11.2557 18.718 13.361C22.6423 17.4434 22.4848 24.4884 18.5838 28.5242C16.8345 30.5362 14.2164 31.3468 11.7207 31.965C11.5749 24.5293 11.6099 17.0935 11.7207 9.66357Z" fill="#222325"/>
<path d="M31.6562 6.84098C32.8458 6.80988 34.0373 6.78655 35.2307 6.771C35.2715 9.29624 35.289 11.8273 35.1549 14.3526C37.2249 12.2822 40.5428 10.97 43.1843 12.8479C46.8229 15.4081 46.7879 20.9543 45.0677 24.6401C42.986 28.4251 37.3649 28.1976 35.0266 24.7801C35.0907 25.5674 35.1491 26.3489 35.2074 27.1129C34.0412 27.1751 32.8866 27.2334 31.7437 27.2879C31.5863 20.4878 31.7379 13.6644 31.6562 6.84098ZM37.5398 15.1515C33.8779 17.0236 34.4493 24.5235 39.0792 24.611C44.6712 24.0919 43.4 13.0345 37.5398 15.1515Z" fill="#222325"/>
<path d="M48.2164 6.771L51.7151 6.84098C51.6451 13.6585 51.7617 20.4819 51.6393 27.2995C50.4731 27.2704 49.3068 27.2295 48.1406 27.1654C48.2106 20.3653 48.1348 13.5711 48.2164 6.771Z" fill="#222325"/>
<path d="M76.3162 6.80029C77.4824 6.80029 78.6894 6.80029 79.8731 6.80029C79.8731 10.6494 79.8731 14.4985 79.9373 18.3418C82.0989 15.964 86.0076 11.9557 86.0076 11.9557C86.0076 11.9557 88.0954 11.9557 89.5063 11.9557C87.6695 14.2185 85.0222 17.0645 83.0921 19.2456C85.1155 22.1091 87.4654 24.4944 89.8209 27.2238L85.815 27.2588C83.6633 25.0776 81.8983 23.0843 79.9373 20.9952C79.9373 23.6196 79.8974 24.996 79.9373 27.2588L76.3628 27.2413C76.2404 20.4238 76.3162 13.612 76.3162 6.80029Z" fill="#222325"/>
<path d="M54.375 12.1947C55.5412 12.1947 56.7074 12.1655 57.827 12.1597C57.827 17.1868 57.8736 22.2198 57.827 27.2528H54.4042C54.3633 22.2198 54.3808 17.2043 54.375 12.1947Z" fill="#222325"/>
<path d="M60.4162 12.1597C61.5824 12.1597 62.6903 12.1597 63.8274 12.2005L63.7224 14.3642C66.1015 11.4073 71.5477 10.7892 73.2912 14.6849C74.4049 18.7673 73.6002 23.0771 73.8102 27.247H70.2765C70.2299 24.0102 70.4456 20.756 70.1891 17.5251C70.2882 14.2767 64.6204 13.9617 64.2239 17.1343C63.6408 20.4761 64.0256 23.8819 63.9673 27.247C62.8011 27.247 61.6349 27.247 60.4687 27.282C60.352 22.2256 60.4104 17.2043 60.4162 12.1597Z" fill="#222325"/>
<path d="M90.2175 16.8078C91.063 10.9759 102.335 10.7892 102.638 15.2274C102.94 19.6656 102.894 23.3279 102.894 27.3754H99.7746C99.7746 27.3754 99.7746 25.9525 99.7746 25.3693C97.7337 27.0489 94.1476 28.256 91.7686 26.6289C89.3079 25.235 89.0455 21.2635 91.4304 19.6655C93.8153 18.0675 97.0049 18.5691 99.7746 18.1842C99.7921 16.6211 99.4194 14.2883 96.7955 14.2883C95.3377 14.2883 94.1715 14.6383 93.0053 16.8078C93.0053 16.8078 91.2559 16.8078 90.2175 16.8078ZM93.4887 21.87C92.5499 24.1386 95.4538 25.5616 97.2673 24.611C99.0807 24.1445 99.3431 22.1324 99.7921 20.6219C97.7104 20.7561 95.1156 20.2079 93.4887 21.87Z" fill="#222325"/>
<ellipse cx="56.2694" cy="8.45623" rx="2.04087" ry="2.04119" fill="#222325"/>
</g>
<defs>
<clipPath id="clip0_1651_5530">
<rect width="103" height="32" fill="white"/>
</clipPath>
</defs>
</svg>
