<svg width="119" height="32" viewBox="0 0 119 32" fill="none" xmlns="http://www.w3.org/2000/svg">
<g clip-path="url(#clip0_1687_8223)">
<path d="M1.48366 5.8412L1.8867 6.69275L2.36604 5.8817C4.36791 2.49453 6.99518 1.1984 9.11031 0.734564C10.1743 0.501237 11.1149 0.477674 11.7878 0.512354C12.1238 0.529672 12.3917 0.561443 12.5732 0.588341C12.5754 0.588675 12.5777 0.589011 12.5799 0.589344C12.6115 0.674341 12.6498 0.777904 12.6941 0.897585C12.828 1.25928 13.0158 1.76814 13.2314 2.35663L13.31 2.57103L13.5234 2.65206C13.753 2.7392 13.9711 2.80521 14.1306 2.84929C14.1313 2.84949 14.1321 2.84969 14.1328 2.84989L14.1347 2.85515L14.3872 2.92085C16.7935 3.54713 18.5259 3.51606 20.4439 3.20549C21.2293 3.07832 22.0501 2.9035 22.9527 2.71127C23.1362 2.67219 23.323 2.6324 23.5136 2.59214C24.4648 2.39124 25.5223 2.17589 26.7524 1.97221C25.9776 4.95938 24.2583 6.75112 22.4287 7.83925C20.442 9.02087 18.3094 9.37984 17.087 9.48567L17.0322 9.49041L16.9912 9.50334C16.9913 9.50329 16.9914 9.50325 16.9914 9.50322C16.9913 9.50275 16.9657 9.50821 16.9026 9.51604C16.8305 9.52499 16.7317 9.53436 16.6149 9.5408C16.3796 9.55375 16.0856 9.55396 15.7979 9.51996C15.5036 9.48518 15.2531 9.41871 15.0798 9.32204C14.9191 9.23238 14.8595 9.13984 14.8427 9.03405L14.8427 9.03399C14.8227 8.90696 14.8388 8.84686 14.8464 8.82685C14.8524 8.81108 14.8598 8.80084 14.8785 8.78795L14.5171 7.88267C9.68715 8.63443 6.52733 12.1772 5.44585 13.5755L5.25824 13.818L5.3894 14.0952L13.3473 30.9135L13.3477 30.9143C13.4038 31.0324 13.3527 31.1752 13.2385 31.2311C13.2383 31.2311 13.2381 31.2312 13.2379 31.2313L12.8289 31.4281L12.8273 31.4289C12.7175 31.4822 12.5821 31.4377 12.5262 31.3193L12.5261 31.3191L0.523319 5.95369C0.465847 5.83216 0.519313 5.68985 0.631759 5.63551L0.631953 5.63542L1.04263 5.43675L1.04265 5.43674C1.15232 5.38367 1.28844 5.42856 1.34439 5.54693L1.3445 5.54718L1.48366 5.8412ZM1.65276 5.12837C1.44037 4.91523 1.11009 4.84866 0.824885 4.98665L0.414212 5.18532C0.0515525 5.36057 -0.102052 5.80083 0.0713111 6.16744L1.65276 5.12837ZM4.69462 12.9133L4.95925 13.4818L5.45453 13.0972C5.73846 12.8768 5.99959 12.4913 6.20914 12.0598C6.42583 11.6135 6.61348 11.0641 6.72257 10.4657C6.93942 9.27615 6.856 7.8235 5.97782 6.61045L5.95128 6.57378L5.91858 6.54247C5.36908 6.01642 4.84306 5.72842 4.33803 5.64703C3.8217 5.56382 3.3886 5.70644 3.05682 5.92336C2.73464 6.134 2.50741 6.4137 2.36499 6.62566C2.29225 6.7339 2.23765 6.83048 2.20055 6.90144C2.18193 6.93707 2.16751 6.96664 2.15724 6.98849C2.1521 6.99943 2.14798 7.00846 2.14488 7.01539L2.14098 7.0242L2.1396 7.02738L2.13905 7.02866L2.13881 7.02921C2.1387 7.02947 2.13859 7.02972 2.59845 7.226L2.13859 7.02972L2.05104 7.23484L2.14517 7.43703L4.69462 12.9133Z" fill="#222325" stroke="#222325"/>
</g>
<defs>
<clipPath id="clip0_1687_8223">
<rect width="58" height="32" fill="white"/>
</clipPath>
</defs>
</svg>
