<svg width="119" height="32" viewBox="0 0 119 32" fill="none" xmlns="http://www.w3.org/2000/svg">
<g clip-path="url(#clip0_1598_2535)">
<path d="M0.772727 31.2273V0.56179H71.5375V31.2273H0.772727Z" stroke="#222325" stroke-width="1.54545"/>
<path d="M12.0983 9.42603L6.4375 23.2333H9.22976L10.3895 20.3476H16.5004L17.6601 23.2333H20.4524L14.7916 9.42603H12.0983ZM15.3161 17.5129H11.5746L13.4504 12.9339L15.3161 17.5129Z" fill="#222325"/>
<path d="M20.9092 12.2607H25.6861V23.2333H28.2496V12.2607H33.0265V9.42603H20.9092V12.2607Z" fill="#222325"/>
<path d="M46.2144 18.0977C46.2144 18.9685 45.9422 19.6089 45.3786 20.0561C44.7915 20.5234 43.8831 20.7593 42.678 20.7593C41.4729 20.7593 40.5473 20.5225 39.9556 20.0552C39.3894 19.6034 39.1117 18.9631 39.1117 18.0977V9.42603H36.5499V18.6096C36.5448 19.3044 36.6943 19.9915 36.9873 20.6209C37.2791 21.2409 37.7051 21.7877 38.2342 22.2213C38.8095 22.6836 39.4656 23.0342 40.1689 23.2552C40.9806 23.5106 41.8274 23.6354 42.678 23.625C43.5228 23.6356 44.3641 23.5142 45.1717 23.2652C45.874 23.0467 46.5278 22.6945 47.0974 22.2277C47.6216 21.792 48.0457 21.2475 48.3406 20.6318C48.6356 19.9992 48.7851 19.3081 48.778 18.6096V9.42603H46.2144V18.0977Z" fill="#222325"/>
<path d="M60.2116 9.42603H57.5192L51.8584 23.2333H54.6507L55.8095 20.3476H61.9203L63.0801 23.2333H65.8733L60.2116 9.42603ZM60.737 17.5129H56.9955L58.8713 12.9339L60.737 17.5129Z" fill="#222325"/>
</g>
<defs>
<clipPath id="clip0_1598_2535">
<rect width="119" height="32" fill="white"/>
</clipPath>
</defs>
</svg>
