<svg width="119" height="32" viewBox="0 0 119 32" fill="none" xmlns="http://www.w3.org/2000/svg">
<g clip-path="url(#clip0_1402_914)">
<path d="M6.71384 13.3937C4.99271 13.3937 3.27869 12.7403 1.97006 11.4336C0.696988 10.1696 0 8.48646 0 6.69685C0 4.90724 0.696988 3.22415 1.96295 1.96005C4.58021 -0.653351 8.84037 -0.653351 11.4576 1.96005C14.0749 4.57346 14.0749 8.82734 11.4576 11.4336C10.149 12.7403 8.42786 13.3937 6.71384 13.3937ZM6.71384 3.16023C5.80349 3.16023 4.90025 3.50821 4.20326 4.19707C3.53472 4.86462 3.16489 5.75233 3.16489 6.70395C3.16489 7.65557 3.53472 8.53617 4.20326 9.21083C5.58301 10.5885 7.83756 10.5885 9.21731 9.21083C10.5971 7.83311 10.5971 5.58189 9.21731 4.20417C8.52743 3.51531 7.61708 3.16733 6.70673 3.16733L6.71384 3.16023Z" fill="#222325"/>
<path d="M18.6766 32C15.1063 32 11.7423 30.6081 9.21751 28.087C4.00432 22.8815 4.00432 14.4093 9.21751 9.20378C11.7423 6.68269 15.0992 5.29077 18.6766 5.29077C22.254 5.29077 25.6038 6.68269 28.1357 9.20378C33.3489 14.4093 33.3489 22.8815 28.1357 28.087C25.6109 30.6081 22.254 32 18.6766 32ZM18.6766 8.451C15.9527 8.451 13.3852 9.50915 11.4578 11.4337C9.53044 13.3582 8.47073 15.9219 8.47073 18.6419C8.47073 21.3618 9.53044 23.9255 11.4578 25.85C13.3852 27.7746 15.9527 28.8327 18.6766 28.8327C21.4006 28.8327 23.968 27.7746 25.8954 25.85C27.8228 23.9255 28.8825 21.3618 28.8825 18.6419C28.8825 15.9219 27.8228 13.3582 25.8954 11.4337C23.968 9.50915 21.4006 8.451 18.6766 8.451Z" fill="#222325"/>
<path d="M23.3777 17.0582H20.2483V13.9335C20.2483 13.06 19.5371 12.3569 18.6694 12.3569C17.8018 12.3569 17.0905 13.0671 17.0905 13.9335V17.0582H13.9612C13.0864 17.0582 12.3823 17.7684 12.3823 18.6348C12.3823 19.5012 13.0935 20.2114 13.9612 20.2114H17.0905V23.3361C17.0905 24.2096 17.8018 24.9126 18.6694 24.9126C19.5371 24.9126 20.2483 24.2025 20.2483 23.3361V20.2114H23.3777C24.2525 20.2114 24.9566 19.5012 24.9566 18.6348C24.9566 17.7684 24.2453 17.0582 23.3777 17.0582Z" fill="#222325"/>
</g>
<defs>
<clipPath id="clip0_1402_914">
<rect width="119" height="32" fill="white"/>
</clipPath>
</defs>
</svg>
