<svg width="119" height="32" viewBox="0 0 119 32" fill="none" xmlns="http://www.w3.org/2000/svg">
<g clip-path="url(#clip0_157_618)">
<path d="M1.93584 5.6273L1.79669 5.33328C1.62332 4.96646 1.18779 4.81119 0.82513 4.98665L0.414456 5.18532C0.0517966 5.36057 -0.101807 5.80083 0.0715552 6.16744L12.0744 31.5329C12.2479 31.9002 12.6833 32.0548 13.0459 31.8787L13.4566 31.6811C13.8193 31.505 13.9731 31.0647 13.7995 30.6996L5.8416 13.8814C6.90154 12.5109 9.95939 9.09812 14.5943 8.37672C14.4086 8.50515 14.2886 8.72916 14.3491 9.11208C14.5371 10.3021 16.9417 10.0433 17.1304 9.9838C19.6509 9.7656 25.9965 8.503 27.404 1.36228C21.1591 2.31562 19.1731 3.64975 14.5133 2.43697L14.5108 2.43009C14.5108 2.43009 14.1226 2.34461 13.7011 2.18461C13.2694 1.00641 12.9493 0.147133 12.9493 0.147133C12.9493 0.147133 6.09825 -1.41549 1.93584 5.6273ZM5.14815 12.7023L2.5987 7.226C2.5987 7.226 3.5592 4.9757 5.57306 6.90365C7.11633 9.03541 5.92573 12.0986 5.14815 12.7023Z" fill="white"/>
</g>
<defs>
<clipPath id="clip0_157_618">
<rect width="58" height="32" fill="white"/>
</clipPath>
</defs>
</svg>
