<svg width="119" height="32" viewBox="0 0 119 32" fill="none" xmlns="http://www.w3.org/2000/svg">
<path d="M6.71384 13.3937C4.99271 13.3937 3.27869 12.7403 1.97006 11.4336C0.696988 10.1696 0 8.48646 0 6.69685C0 4.90724 0.696988 3.22415 1.96295 1.96005C4.58021 -0.653351 8.84037 -0.653351 11.4576 1.96005C14.0749 4.57346 14.0749 8.82734 11.4576 11.4336C10.149 12.7403 8.42786 13.3937 6.71384 13.3937ZM6.71384 3.16023C5.80349 3.16023 4.90025 3.50821 4.20326 4.19707C3.53472 4.86462 3.16489 5.75233 3.16489 6.70395C3.16489 7.65557 3.53472 8.53617 4.20326 9.21083C5.58301 10.5885 7.83756 10.5885 9.21731 9.21083C10.5971 7.83311 10.5971 5.58189 9.21731 4.20417C8.52743 3.51531 7.61708 3.16733 6.70673 3.16733L6.71384 3.16023Z" fill="white"/>
<path d="M18.6764 32C15.1061 32 11.7421 30.6081 9.21726 28.087C4.00408 22.8815 4.00408 14.4093 9.21726 9.20378C11.7421 6.68269 15.099 5.29077 18.6764 5.29077C22.2538 5.29077 25.6036 6.68269 28.1355 9.20378C33.3487 14.4093 33.3487 22.8815 28.1355 28.087C25.6107 30.6081 22.2538 32 18.6764 32ZM18.6764 8.451C15.9524 8.451 13.385 9.50915 11.4576 11.4337C9.5302 13.3582 8.47049 15.9219 8.47049 18.6419C8.47049 21.3618 9.5302 23.9255 11.4576 25.85C13.385 27.7746 15.9524 28.8327 18.6764 28.8327C21.4003 28.8327 23.9678 27.7746 25.8952 25.85C27.8226 23.9255 28.8823 21.3618 28.8823 18.6419C28.8823 15.9219 27.8226 13.3582 25.8952 11.4337C23.9678 9.50915 21.4003 8.451 18.6764 8.451Z" fill="white"/>
<path d="M23.3774 17.0581H20.2481V13.9334C20.2481 13.0599 19.5369 12.3568 18.6692 12.3568C17.8015 12.3568 17.0903 13.067 17.0903 13.9334V17.0581H13.961C13.0862 17.0581 12.3821 17.7683 12.3821 18.6347C12.3821 19.5011 13.0933 20.2112 13.961 20.2112H17.0903V23.336C17.0903 24.2095 17.8015 24.9125 18.6692 24.9125C19.5369 24.9125 20.2481 24.2024 20.2481 23.336V20.2112H23.3774C24.2522 20.2112 24.9563 19.5011 24.9563 18.6347C24.9563 17.7683 24.2451 17.0581 23.3774 17.0581Z" fill="white"/>
</svg>
