<svg width="119" height="32" viewBox="0 0 119 32" fill="none" xmlns="http://www.w3.org/2000/svg">
<g clip-path="url(#clip0_1574_3537)">
<path fill-rule="evenodd" clip-rule="evenodd" d="M22.7925 2.47851C22.7925 2.00668 22.4094 1.62369 21.9375 1.62369H8.70209C8.23015 1.62369 7.84706 2.00764 7.84706 2.47851V3.01159H22.7925V2.47851ZM24.4166 3.01159V2.47851C24.4166 1.10984 23.3065 0 21.9375 0H8.70209C7.33308 0 6.22297 1.10984 6.22297 2.47851V3.01159H1.66517C0.745522 3.01159 0 3.75693 0 4.67635V30.3354C0 31.2548 0.745522 32.0001 1.66517 32.0001H28.9766C29.8962 32.0001 30.6418 31.2548 30.6418 30.3354V4.67635C30.6418 3.75693 29.8962 3.01159 28.9766 3.01159H24.4166ZM5.51875 9.13566L7.7533 5.93127H7.75139H6.43397L5.171 7.88638L4.58728 5.93127H3.25649L4.35705 9.13566L4.07904 10.7307H5.24743L5.51875 9.13566ZM11.4488 6.11843C11.7698 6.29226 12.0173 6.53677 12.1892 6.85195C12.3612 7.16618 12.4472 7.53008 12.4472 7.94173C12.4472 8.11843 12.429 8.31041 12.3927 8.51862C12.3153 8.96179 12.1558 9.35434 11.9141 9.69627C11.6714 10.0382 11.3638 10.3037 10.9903 10.4938C10.6167 10.6839 10.2012 10.7784 9.74451 10.7784C9.28786 10.7784 8.9105 10.6924 8.58663 10.5205C8.26277 10.3486 8.01629 10.106 7.84624 9.79369C7.67619 9.48137 7.59116 9.11747 7.59116 8.70105C7.59116 8.52435 7.60931 8.3276 7.64562 8.11079C7.72204 7.67144 7.8835 7.28175 8.12807 6.93982C8.37264 6.59789 8.68121 6.33237 9.05475 6.14231C9.42829 5.95224 9.84578 5.85768 10.3072 5.85768C10.7686 5.85768 11.1269 5.9446 11.4479 6.11938L11.4488 6.11843ZM9.27926 7.29321C9.01845 7.53104 8.85222 7.85577 8.78057 8.26743C8.75764 8.40305 8.74618 8.51671 8.74618 8.60649C8.74618 8.94555 8.84171 9.21203 9.03182 9.40401C9.22194 9.59598 9.48943 9.69245 9.83336 9.69245C10.1954 9.69245 10.5069 9.57306 10.7667 9.33237C11.0266 9.09264 11.1938 8.77077 11.2654 8.36867C11.2836 8.25978 11.2922 8.14422 11.2922 8.02292C11.2922 7.68385 11.1985 7.41738 11.0103 7.2254C10.8221 7.03342 10.5585 6.93696 10.2193 6.93696C9.85247 6.93696 9.53911 7.05539 9.2783 7.29321H9.27926ZM14.1323 8.70104L14.6148 5.93122H13.4607L12.9716 8.70104C12.9401 8.87678 12.9238 9.05347 12.9238 9.23017C12.9238 9.73638 13.0729 10.1213 13.369 10.3839C13.6661 10.6466 14.0655 10.7774 14.568 10.7774C14.953 10.7774 15.3122 10.7001 15.6475 10.5434C15.9828 10.3878 16.2656 10.1547 16.4968 9.8443C16.7271 9.53389 16.8809 9.1528 16.9583 8.70008L17.4474 5.93026H16.2866L15.8042 8.70008C15.745 9.01718 15.6294 9.25978 15.4574 9.42692C15.2854 9.59406 15.0609 9.67811 14.7848 9.67811C14.5584 9.67811 14.3884 9.62081 14.2756 9.50524C14.162 9.39063 14.1056 9.22348 14.1056 9.00667C14.1056 8.89779 14.1142 8.79559 14.1323 8.70104ZM8.99818 12.1591L8.16321 16.9251H7.00915L7.53173 13.9308L5.96974 16.9251H4.9714L4.45551 13.9375L3.93294 16.9251H2.76455L3.59952 12.1591H5.01917L5.73854 15.4791L7.58523 12.1591H8.99723H8.99818ZM10.1249 16.9247L10.9666 12.1253H9.80581L8.96415 16.9247H10.1249ZM15.4004 12.5292C15.7309 12.8301 15.9144 13.2255 15.9507 13.7135H14.7288C14.6743 13.5416 14.5721 13.405 14.4231 13.3028C14.274 13.2006 14.0811 13.15 13.846 13.15C13.4792 13.15 13.162 13.2732 12.8955 13.5197C12.628 13.7661 12.4589 14.1004 12.3863 14.5206C12.3633 14.6343 12.3528 14.7584 12.3528 14.8941C12.3528 15.2331 12.4493 15.4929 12.6413 15.6715C12.8334 15.8501 13.1133 15.9399 13.4801 15.9399C13.7562 15.9399 14.0123 15.8644 14.2473 15.7126C14.4823 15.5607 14.6686 15.3449 14.8042 15.0641H13.3378L13.4868 14.2293H15.9182L15.7214 15.3764C15.5083 15.852 15.1883 16.235 14.7603 16.5273C14.3323 16.8196 13.8059 16.9647 13.1811 16.9647C12.7598 16.9647 12.3977 16.8845 12.0949 16.724C11.792 16.5636 11.5599 16.3363 11.3984 16.0421C11.2379 15.7479 11.1577 15.4041 11.1577 15.0106C11.1577 14.8253 11.1739 14.6438 11.2055 14.4671C11.2867 14.0058 11.4577 13.5932 11.7185 13.2312C11.9783 12.8692 12.3079 12.5865 12.7063 12.3831C13.1047 12.1796 13.5441 12.0774 14.0237 12.0774C14.6122 12.0774 15.0717 12.2283 15.4023 12.5292H15.4004ZM20.2503 16.9247L21.092 12.1253H19.9236L19.5978 13.9859H17.7779L18.1036 12.1253H16.9429L16.1012 16.9247H17.262L17.6155 14.9219H19.4354L19.0819 16.9247H20.2503ZM25.3422 12.1253L25.1789 13.0489H23.8748L23.1956 16.9257H22.0272L22.7064 13.0489H21.4158L21.5791 12.1253H25.3413H25.3422ZM5.86752 23.1183H7.02826L7.86992 18.3189H6.70918L6.1866 21.2921L4.76696 18.3189H3.60621L2.76455 23.1183H3.9253L4.44118 20.1718L5.86752 23.1183ZM9.50198 20.2473L9.67187 19.2435H11.4977L11.6611 18.3199H8.67274L7.83108 23.1193H10.8194L10.9828 22.189H9.15615L9.33957 21.1231H10.9627L11.1184 20.2473H9.50198ZM13.317 19.2435L13.1471 20.2473H14.7636L14.6079 21.1231H12.9847L12.8013 22.189H14.6279L14.4646 23.1193H11.4762L12.3179 18.3199H15.3062L15.1429 19.2435H13.317ZM19.3441 21.9607C19.0795 22.3256 18.7394 22.6092 18.3257 22.8127C17.9111 23.0161 17.4487 23.1183 16.9367 23.1183H15.1234L15.9651 18.3189H17.7783C18.2264 18.3189 18.6114 18.3962 18.9324 18.55C19.2534 18.7038 19.497 18.9225 19.6623 19.2052C19.8275 19.4879 19.9097 19.8193 19.9097 20.1995C19.9097 20.3762 19.8935 20.5452 19.8619 20.7086C19.7807 21.1794 19.6069 21.5968 19.3422 21.9607H19.3441ZM18.1318 21.72C18.4261 21.4803 18.6114 21.1431 18.6888 20.7086C18.7117 20.5815 18.7222 20.4736 18.7222 20.3829C18.7222 20.0476 18.6162 19.7897 18.4031 19.6092C18.1901 19.4287 17.8891 19.338 17.5003 19.338H16.95L16.4676 22.081H17.0179C17.4659 22.081 17.8376 21.9617 18.1318 21.721V21.72ZM8.14186 29.3123L10.1318 24.5129H8.87556L7.63935 27.9886L7.40815 24.5129H6.1385L4.68542 27.9886L4.67873 24.5129H3.41576L3.72147 29.3123H5.16118L6.49866 26.1013L6.70215 29.3123H8.14186ZM13.9872 24.6991C14.3082 24.8729 14.5556 25.1174 14.7275 25.4326C14.8995 25.7468 14.9855 26.1107 14.9855 26.5224C14.9855 26.6991 14.9673 26.891 14.931 27.0993C14.8537 27.5424 14.6941 27.935 14.4524 28.2769C14.2098 28.6188 13.9021 28.8844 13.5286 29.0744C13.155 29.2645 12.7395 29.359 12.2828 29.359C11.8262 29.359 11.4488 29.2731 11.1249 29.1012C10.8011 28.9292 10.5546 28.6866 10.3845 28.3743C10.2145 28.062 10.1295 27.6981 10.1295 27.2817C10.1295 27.105 10.1476 26.9082 10.1839 26.6914C10.2604 26.2521 10.4218 25.8624 10.6664 25.5205C10.9109 25.1785 11.2195 24.913 11.5931 24.7229C11.9666 24.5329 12.3841 24.4383 12.8455 24.4383C13.3069 24.4383 13.6652 24.5252 13.9862 24.7L13.9872 24.6991ZM11.8176 25.8739C11.5568 26.1117 11.3905 26.4364 11.3189 26.8481C11.2959 26.9837 11.2845 27.0973 11.2845 27.1871C11.2845 27.5262 11.38 27.7927 11.5701 27.9846C11.7602 28.1766 12.0277 28.2731 12.3717 28.2731C12.7337 28.2731 13.0452 28.1537 13.305 27.913C13.5649 27.6733 13.7321 27.3514 13.8037 26.9493C13.8219 26.8404 13.8305 26.7249 13.8305 26.6036C13.8305 26.2645 13.7369 25.998 13.5487 25.806C13.3604 25.6141 13.0968 25.5176 12.7576 25.5176C12.3908 25.5176 12.0774 25.636 11.8166 25.8739H11.8176ZM19.5171 25.7278C19.5171 25.3611 19.3891 25.0669 19.1331 24.8453H19.135C18.8799 24.6237 18.5026 24.5129 18.0048 24.5129H16.0215L15.1799 29.3123H16.3406L16.6597 27.4995H16.9243L17.6437 29.3123H18.9267L18.1185 27.425C18.4987 27.3343 18.8073 27.1672 19.0423 26.9227C19.2773 26.6782 19.4273 26.3821 19.4904 26.0335C19.5076 25.9427 19.5171 25.8415 19.5171 25.7278ZM17.7306 25.491C18.1147 25.491 18.3077 25.6466 18.3077 25.959H18.3067C18.3067 25.9905 18.3019 26.0382 18.2933 26.1013C18.2255 26.5043 17.9657 26.7058 17.5128 26.7058H16.7934L17.018 25.491H17.7306ZM22.1827 26.8615L23.6903 29.3123H22.285L21.0354 27.1538L20.6551 29.3123H19.4944L20.336 24.5129H21.4968L21.1233 26.6313L23.14 24.5129H24.5319L22.1827 26.8615Z" fill="#222325"/>
</g>
<defs>
<clipPath id="clip0_1574_3537">
<rect width="119" height="32" fill="white"/>
</clipPath>
</defs>
</svg>
