<svg width="60" height="61" viewBox="0 0 60 61" fill="none" xmlns="http://www.w3.org/2000/svg">
<path d="M30.2344 39.9336C30.2344 40.1914 30.4336 40.4023 30.6738 40.4023H41.5137C41.7539 40.4023 41.9531 40.1914 41.9531 39.9336V37.1211C41.9531 36.8633 41.7539 36.6523 41.5137 36.6523H30.6738C30.4336 36.6523 30.2344 36.8633 30.2344 37.1211V39.9336ZM18.8145 40.291L30.0645 30.8574C30.2871 30.6699 30.2871 30.3242 30.0645 30.1367L18.8145 20.709C18.7465 20.6512 18.6635 20.6142 18.5751 20.6022C18.4868 20.5903 18.3969 20.6039 18.3161 20.6416C18.2352 20.6792 18.1669 20.7392 18.1192 20.8145C18.0715 20.8898 18.0464 20.9773 18.0469 21.0664V24.7402C18.0469 24.8809 18.1055 25.0098 18.2168 25.0977L24.6504 30.5L18.2168 35.9023C18.1644 35.9462 18.1221 36.0008 18.0928 36.0625C18.0635 36.1242 18.0478 36.1915 18.0469 36.2598V39.9336C18.0469 40.332 18.5098 40.5488 18.8145 40.291ZM51.5625 7.0625H8.4375C7.40039 7.0625 6.5625 7.90039 6.5625 8.9375V52.0625C6.5625 53.0996 7.40039 53.9375 8.4375 53.9375H51.5625C52.5996 53.9375 53.4375 53.0996 53.4375 52.0625V8.9375C53.4375 7.90039 52.5996 7.0625 51.5625 7.0625ZM49.2188 49.7188H10.7812V11.2812H49.2188V49.7188Z" fill="#DDDDDD"/>
</svg>
