<svg width="60" height="60" viewBox="0 0 60 60" fill="none" xmlns="http://www.w3.org/2000/svg">
<path d="M14.0813 48.7499C13.1695 48.7511 12.2615 48.6313 11.3813 48.3937C8.7392 47.6402 6.49769 45.8813 5.13763 43.4941C3.77756 41.107 3.40729 38.2819 4.10625 35.6249L8.475 19.0499C8.81524 17.7085 9.42009 16.4486 10.254 15.3442C11.088 14.2398 12.1342 13.3131 13.3313 12.6187C14.4968 11.9436 15.7847 11.5065 17.1204 11.3327C18.4561 11.1589 19.813 11.2518 21.1125 11.6062C22.4939 11.9898 23.7805 12.6562 24.8908 13.5632C26.0012 14.4701 26.9109 15.5979 27.5625 16.8749H32.4375C33.0872 15.5965 33.9964 14.4677 35.107 13.5605C36.2176 12.6533 37.5052 11.9877 38.8875 11.6062C40.187 11.2518 41.5439 11.1589 42.8796 11.3327C44.2153 11.5065 45.5032 11.9436 46.6688 12.6187C47.86 13.3113 48.9024 14.2329 49.7358 15.3302C50.5693 16.4276 51.1774 17.679 51.525 19.0124L55.8938 35.6249C56.6032 38.2897 56.2358 41.1265 54.8711 43.5227C53.5064 45.9188 51.2538 47.6819 48.6 48.4312C47.3005 48.7855 45.9436 48.8785 44.6079 48.7047C43.2722 48.5309 41.9843 48.0938 40.8188 47.4187C39.6256 46.7285 38.5817 45.8077 37.7479 44.71C36.9142 43.6122 36.3072 42.3596 35.9625 41.0249L35.625 39.3749H24.375L23.9438 40.9874C23.599 42.3221 22.9921 43.5747 22.1583 44.6725C21.3246 45.7702 20.2807 46.691 19.0875 47.3812C17.564 48.2599 15.8399 48.7313 14.0813 48.7499ZM18.4313 14.9999C17.2999 15.0046 16.1889 15.3017 15.2063 15.8624C13.6666 16.7658 12.5475 18.2422 12.0938 19.9687L7.725 36.5437C7.26785 38.2513 7.49885 40.0701 8.36835 41.6093C9.23785 43.1485 10.6765 44.2851 12.375 44.7749C13.1953 44.9987 14.0519 45.0576 14.8951 44.9481C15.7383 44.8387 16.5515 44.5632 17.2875 44.1374C18.0538 43.695 18.7239 43.1038 19.2585 42.3986C19.793 41.6935 20.1811 40.8885 20.4 40.0312L21.5625 35.6249H38.4375L39.5813 40.0312C39.804 40.8869 40.1937 41.6902 40.7278 42.3948C41.262 43.0995 41.9301 43.6917 42.6938 44.1374C43.4334 44.5627 44.2497 44.838 45.0959 44.9474C45.9421 45.0568 46.8015 44.9982 47.625 44.7749C49.3256 44.2896 50.766 43.1529 51.6332 41.6116C52.5004 40.0703 52.7243 38.2491 52.2563 36.5437L47.8875 19.9687C47.6698 19.1133 47.2842 18.3097 46.7531 17.6048C46.222 16.8998 45.5559 16.3076 44.7938 15.8624C44.0541 15.4371 43.2378 15.1619 42.3916 15.0525C41.5454 14.9431 40.686 15.0017 39.8625 15.2249C38.8441 15.5152 37.9096 16.0443 37.1368 16.7683C36.3639 17.4922 35.7749 18.3901 35.4188 19.3874L34.9688 20.6249H25.0313L24.5813 19.3874C24.2219 18.3888 23.6296 17.4903 22.8535 16.7664C22.0774 16.0424 21.1399 15.514 20.1188 15.2249C19.5684 15.077 19.0011 15.0013 18.4313 14.9999Z" fill="#DDDDDD"/>
<path d="M18.75 30C18.0083 30 17.2833 29.7801 16.6666 29.368C16.0499 28.956 15.5693 28.3703 15.2855 27.6851C15.0016 26.9998 14.9274 26.2458 15.0721 25.5184C15.2168 24.791 15.5739 24.1228 16.0984 23.5984C16.6228 23.0739 17.291 22.7168 18.0184 22.5721C18.7458 22.4274 19.4998 22.5016 20.1851 22.7855C20.8703 23.0693 21.456 23.5499 21.868 24.1666C22.2801 24.7833 22.5 25.5083 22.5 26.25C22.5 27.2446 22.1049 28.1984 21.4017 28.9017C20.6984 29.6049 19.7446 30 18.75 30Z" fill="#DDDDDD"/>
<path d="M41.25 24.375C42.2855 24.375 43.125 23.5355 43.125 22.5C43.125 21.4645 42.2855 20.625 41.25 20.625C40.2145 20.625 39.375 21.4645 39.375 22.5C39.375 23.5355 40.2145 24.375 41.25 24.375Z" fill="#DDDDDD"/>
<path d="M41.25 31.875C42.2855 31.875 43.125 31.0355 43.125 30C43.125 28.9645 42.2855 28.125 41.25 28.125C40.2145 28.125 39.375 28.9645 39.375 30C39.375 31.0355 40.2145 31.875 41.25 31.875Z" fill="#DDDDDD"/>
<path d="M37.5 28.125C38.5355 28.125 39.375 27.2855 39.375 26.25C39.375 25.2145 38.5355 24.375 37.5 24.375C36.4645 24.375 35.625 25.2145 35.625 26.25C35.625 27.2855 36.4645 28.125 37.5 28.125Z" fill="#DDDDDD"/>
<path d="M45 28.125C46.0355 28.125 46.875 27.2855 46.875 26.25C46.875 25.2145 46.0355 24.375 45 24.375C43.9645 24.375 43.125 25.2145 43.125 26.25C43.125 27.2855 43.9645 28.125 45 28.125Z" fill="#DDDDDD"/>
</svg>
