<svg width="60" height="61" viewBox="0 0 60 61" fill="none" xmlns="http://www.w3.org/2000/svg">
<path d="M16.4575 18.5948C23.975 19.9198 28.455 22.6923 30 24.2848C31.545 22.6923 36.025 19.9198 43.545 18.5948C47.3525 17.9223 49.2575 17.5873 50.8775 18.8748C52.5 20.1598 52.5 22.2498 52.5 26.4298V41.4473C52.5 45.2698 52.5 47.1798 51.46 48.3723C50.4175 49.5648 48.1275 49.9698 43.545 50.7773C39.4575 51.4973 36.27 52.6448 33.9625 53.7973C31.69 54.9323 30.555 55.4998 30 55.4998M30 55.4998C29.445 55.4998 28.3075 54.9323 26.0375 53.7998C23.73 52.6448 20.5425 51.4973 16.4575 50.7748C11.8725 49.9698 9.5825 49.5648 8.54 48.3723C7.4975 47.1798 7.5 45.2698 7.5 41.4473V26.4298C7.5 22.2498 7.5 20.1598 9.1225 18.8748C10.7425 17.5873 12.6475 17.9248 16.455 18.5948M30 55.4998V22.9998M21.25 8.14728C23.8413 6.41728 26.8881 5.49605 30.0038 5.5005C33.1195 5.50496 36.1637 6.43488 38.75 8.17228M34.055 14.2498C32.8335 13.5077 31.4327 13.1133 30.0035 13.1088C28.5743 13.1044 27.171 13.4903 25.945 14.2248" stroke="#DDDDDD" stroke-width="3.75" stroke-linecap="round" stroke-linejoin="round"/>
</svg>
