<svg width="60" height="61" viewBox="0 0 60 61" fill="none" xmlns="http://www.w3.org/2000/svg">
<path d="M17.045 55.5002V48.3577C16.3 40.9152 7.5 36.9302 7.5 25.5002C7.5 14.0752 14.3175 5.3602 27.955 5.5002C37.7725 5.6052 47.045 11.2152 47.045 22.6452L52.5 31.2152C52.5 36.9302 47.045 36.9302 47.045 36.9302C47.045 36.9302 48.41 51.2152 36.135 51.2152V55.5002" stroke="#DDDDDD" stroke-width="3.75" stroke-linecap="round" stroke-linejoin="round"/>
<path d="M27.5 30.5C28.8261 30.5 30.0979 29.9732 31.0355 29.0355C31.9732 28.0979 32.5 26.8261 32.5 25.5C32.5 24.1739 31.9732 22.9021 31.0355 21.9645C30.0979 21.0268 28.8261 20.5 27.5 20.5C26.1739 20.5 24.9021 21.0268 23.9645 21.9645C23.0268 22.9021 22.5 24.1739 22.5 25.5C22.5 26.8261 23.0268 28.0979 23.9645 29.0355C24.9021 29.9732 26.1739 30.5 27.5 30.5Z" stroke="#DDDDDD" stroke-width="3.75" stroke-linecap="round" stroke-linejoin="round"/>
<path d="M27.5 33C29.4891 33 31.3968 32.2098 32.8033 30.8033C34.2098 29.3968 35 27.4891 35 25.5C35 23.5109 34.2098 21.6032 32.8033 20.1967C31.3968 18.7902 29.4891 18 27.5 18C25.5109 18 23.6032 18.7902 22.1967 20.1967C20.7902 21.6032 20 23.5109 20 25.5C20 27.4891 20.7902 29.3968 22.1967 30.8033C23.6032 32.2098 25.5109 33 27.5 33Z" stroke="#DDDDDD" stroke-width="3.75" stroke-linecap="round" stroke-linejoin="round" stroke-dasharray="0.75 5"/>
</svg>
