<svg width="60" height="61" viewBox="0 0 60 61" fill="none" xmlns="http://www.w3.org/2000/svg">
<path d="M22.4995 37.5698V39.0273C22.4995 42.011 23.6848 44.8725 25.7946 46.9823C27.9043 49.0921 30.7658 50.2773 33.7495 50.2773C36.7332 50.2773 39.5947 49.0921 41.7045 46.9823C43.8143 44.8725 44.9995 42.011 44.9995 39.0273V34.8523C43.3308 34.2626 41.9243 33.1019 41.0286 31.5753C40.1329 30.0488 39.8058 28.2548 40.105 26.5104C40.4042 24.766 41.3104 23.1835 42.6636 22.0427C44.0167 20.9018 45.7296 20.2761 47.4995 20.2761C49.2694 20.2761 50.9823 20.9018 52.3354 22.0427C53.6886 23.1835 54.5949 24.766 54.894 26.5104C55.1932 28.2548 54.8661 30.0488 53.9704 31.5753C53.0748 33.1019 51.6682 34.2626 49.9995 34.8523V39.0273C49.9995 43.3371 48.2875 47.4704 45.24 50.5178C42.1925 53.5653 38.0593 55.2773 33.7495 55.2773C29.4397 55.2773 25.3065 53.5653 22.259 50.5178C19.2116 47.4704 17.4995 43.3371 17.4995 39.0273V37.5698C14.0039 36.979 10.8305 35.1691 8.54233 32.4612C6.25412 29.7534 4.99897 26.3225 4.99951 22.7773V10.2773C4.99951 8.95126 5.5263 7.67949 6.46398 6.74181C7.40166 5.80413 8.67343 5.27734 9.99951 5.27734H12.4995C13.1626 5.27734 13.7984 5.54074 14.2673 6.00958C14.7361 6.47842 14.9995 7.1143 14.9995 7.77734C14.9995 8.44039 14.7361 9.07627 14.2673 9.54511C13.7984 10.014 13.1626 10.2773 12.4995 10.2773H9.99951V22.7773C9.99951 25.4295 11.0531 27.9731 12.9284 29.8484C14.8038 31.7238 17.3473 32.7773 19.9995 32.7773C22.6517 32.7773 25.1952 31.7238 27.0706 29.8484C28.9459 27.9731 29.9995 25.4295 29.9995 22.7773V10.2773H27.4995C26.8365 10.2773 26.2006 10.014 25.7317 9.54511C25.2629 9.07627 24.9995 8.44039 24.9995 7.77734C24.9995 7.1143 25.2629 6.47842 25.7317 6.00958C26.2006 5.54074 26.8365 5.27734 27.4995 5.27734H29.9995C31.3256 5.27734 32.5974 5.80413 33.535 6.74181C34.4727 7.67949 34.9995 8.95126 34.9995 10.2773V22.7773C35.0001 26.3225 33.7449 29.7534 31.4567 32.4612C29.1685 35.1691 25.9951 36.979 22.4995 37.5698ZM47.4995 30.2773C48.1626 30.2773 48.7984 30.014 49.2673 29.5451C49.7361 29.0763 49.9995 28.4404 49.9995 27.7773C49.9995 27.1143 49.7361 26.4784 49.2673 26.0096C48.7984 25.5407 48.1626 25.2773 47.4995 25.2773C46.8365 25.2773 46.2006 25.5407 45.7317 26.0096C45.2629 26.4784 44.9995 27.1143 44.9995 27.7773C44.9995 28.4404 45.2629 29.0763 45.7317 29.5451C46.2006 30.014 46.8365 30.2773 47.4995 30.2773Z" fill="#DDDDDD"/>
</svg>
