<svg width="60" height="61" viewBox="0 0 60 61" fill="none" xmlns="http://www.w3.org/2000/svg">
<g clip-path="url(#clip0_1598_2713)">
<path d="M12.3638 11.75C9.85878 11.75 7.54503 13.0025 6.15191 15.0894L0.937532 22.8837C0.323867 23.8028 -0.00247799 24.8837 3.22083e-05 25.9887V38.4106C-0.00342497 39.243 0.271523 40.0526 0.781148 40.7107C1.29077 41.3688 2.00581 41.8376 2.81253 42.0425L7.67628 43.2744C8.02608 44.9595 8.94481 46.4731 10.2783 47.5611C11.6118 48.6492 13.279 49.2455 15 49.25C18.4725 49.25 21.3713 46.8481 22.2075 43.625H39.6675C40.5038 46.8481 43.4025 49.25 46.875 49.25C50.3475 49.25 53.2463 46.8481 54.0825 43.625H56.25C58.3013 43.625 60 41.9263 60 39.875V33.02C59.9976 31.3489 59.4371 29.7265 58.4075 28.4102C57.3779 27.0939 55.9382 26.1592 54.3169 25.7544L44.1788 23.1762L36.855 14.4463C36.154 13.6037 35.2764 12.9255 34.2843 12.4596C33.2922 11.9936 32.2098 11.7514 31.1138 11.75H12.3638ZM12.3638 15.5H20.625V23H5.39066L9.25878 17.1988V17.1406C9.59813 16.63 10.0598 16.2124 10.6018 15.9259C11.1438 15.6393 11.7507 15.4929 12.3638 15.5ZM24.375 15.5H31.1138C32.2257 15.5 33.2738 15.9912 33.9844 16.8481L39.1407 23H24.375V15.5ZM3.75003 26.75H42.8907L53.4375 29.3862C54.2468 29.5871 54.9648 30.055 55.4751 30.7145C55.9855 31.3739 56.2585 32.1862 56.25 33.02V39.875H54.0825C53.2463 36.6519 50.3475 34.25 46.875 34.25C43.4025 34.25 40.5038 36.6519 39.6675 39.875H22.2075C21.3713 36.6519 18.4725 34.25 15 34.25C11.6757 34.25 8.88378 36.4475 7.91066 39.4644L3.75003 38.4125V26.75ZM15 38C17.0944 38 18.75 39.6556 18.75 41.75C18.75 43.8444 17.0944 45.5 15 45.5C12.9057 45.5 11.25 43.8444 11.25 41.75C11.25 39.6556 12.9057 38 15 38ZM46.875 38C48.9694 38 50.625 39.6556 50.625 41.75C50.625 43.8444 48.9694 45.5 46.875 45.5C44.7807 45.5 43.125 43.8444 43.125 41.75C43.125 39.6556 44.7807 38 46.875 38Z" fill="#DDDDDD"/>
</g>
<defs>
<clipPath id="clip0_1598_2713">
<rect width="60" height="60" fill="white" transform="translate(0 0.5)"/>
</clipPath>
</defs>
</svg>
