<svg width="60" height="61" viewBox="0 0 60 61" fill="none" xmlns="http://www.w3.org/2000/svg">
<path fill-rule="evenodd" clip-rule="evenodd" d="M30 5.5C43.8075 5.5 55 16.6925 55 30.5C55 44.3075 43.8075 55.5 30 55.5C16.1925 55.5 5 44.3075 5 30.5C5 16.6925 16.1925 5.5 30 5.5ZM32.5 10.655V13C32.4993 13.6372 32.2553 14.2501 31.8179 14.7134C31.3805 15.1768 30.7826 15.4556 30.1465 15.4929C29.5104 15.5303 28.8841 15.3233 28.3954 14.9143C27.9068 14.5054 27.5928 13.9252 27.5175 13.2925L27.5 13V10.655C23.2044 11.1974 19.2006 13.1184 16.0895 16.1295C12.9783 19.1406 10.9275 23.0795 10.245 27.355L10.155 28H12.5C13.1372 28.0007 13.7501 28.2447 14.2134 28.6821C14.6768 29.1195 14.9556 29.7174 14.9929 30.3535C15.0303 30.9896 14.8233 31.6159 14.4143 32.1046C14.0054 32.5932 13.4252 32.9072 12.7925 32.9825L12.5 33H10.155C10.7591 37.7781 13.0668 42.1778 16.6544 45.391C20.2419 48.6042 24.8683 50.4151 29.6839 50.4911C34.4994 50.5671 39.1807 48.9031 42.8678 45.8047C46.555 42.7063 49.0004 38.3816 49.755 33.625L49.845 33H47.5C46.8628 32.9993 46.2499 32.7553 45.7866 32.3179C45.3232 31.8805 45.0444 31.2826 45.0071 30.6465C44.9697 30.0104 45.1767 29.3841 45.5857 28.8954C45.9946 28.4068 46.5748 28.0928 47.2075 28.0175L47.5 28H49.845C49.2994 23.6406 47.33 19.5831 44.2425 16.4575L38.1825 28.355L37.795 29.09L37.02 30.615C36.095 32.415 35.09 34.25 33.7125 35.6275C31.2825 38.055 27.2425 38.35 24.6975 35.8025C22.15 33.2575 22.445 29.2175 24.8725 26.7875C26.0525 25.6075 27.5675 24.7 29.1125 23.8825L31.41 22.705L33.5325 21.595L44.04 16.2575C40.915 13.1705 36.8586 11.2011 32.5 10.655ZM32.905 27.595L32.38 27.875L31.84 28.1575C30.835 28.68 29.785 29.2225 28.91 29.9025L28.4075 30.3275L28.225 30.5375C27.7425 31.1875 27.8875 31.9225 28.2325 32.2675C28.5775 32.6125 29.3125 32.7575 29.9625 32.275L30.1775 32.09L30.5975 31.59C31.14 30.89 31.5975 30.0775 32.025 29.265L32.3425 28.66C32.5292 28.2933 32.7167 27.9383 32.905 27.595Z" fill="#DDDDDD"/>
</svg>
