<svg width="60" height="61" viewBox="0 0 60 61" fill="none" xmlns="http://www.w3.org/2000/svg">
<path d="M52.0641 25.3085L33.3141 6.55847C32.435 5.6797 31.243 5.18604 30 5.18604C28.7571 5.18604 27.565 5.6797 26.686 6.55847L7.93596 25.3085C7.49892 25.7428 7.15246 26.2597 6.9167 26.829C6.68093 27.3983 6.56055 28.0087 6.56252 28.6249V51.1249C6.56252 51.8708 6.85884 52.5862 7.38629 53.1136C7.91373 53.6411 8.6291 53.9374 9.37502 53.9374H24.375C25.1209 53.9374 25.8363 53.6411 26.3638 53.1136C26.8912 52.5862 27.1875 51.8708 27.1875 51.1249V38.9374H32.8125V51.1249C32.8125 51.8708 33.1088 52.5862 33.6363 53.1136C34.1637 53.6411 34.8791 53.9374 35.625 53.9374H50.625C51.3709 53.9374 52.0863 53.6411 52.6138 53.1136C53.1412 52.5862 53.4375 51.8708 53.4375 51.1249V28.6249C53.4395 28.0087 53.3191 27.3983 53.0834 26.829C52.8476 26.2597 52.5011 25.7428 52.0641 25.3085ZM47.8125 48.3124H38.4375V36.1249C38.4375 35.379 38.1412 34.6636 37.6138 34.1361C37.0863 33.6087 36.3709 33.3124 35.625 33.3124H24.375C23.6291 33.3124 22.9137 33.6087 22.3863 34.1361C21.8588 34.6636 21.5625 35.379 21.5625 36.1249V48.3124H12.1875V29.0116L30 11.1991L47.8125 29.0116V48.3124Z" fill="#DDDDDD"/>
</svg>
