<svg width="60" height="61" viewBox="0 0 60 61" fill="none" xmlns="http://www.w3.org/2000/svg">
<path d="M35.0001 45.5V50.5L40.0001 53V55.5H20.0001L19.9901 53.01L25.0001 50.5V45.5H7.48008C7.15177 45.4974 6.8272 45.4301 6.52488 45.3021C6.22257 45.174 5.94844 44.9877 5.71815 44.7537C5.48786 44.5196 5.30591 44.2426 5.18271 43.9382C5.0595 43.6339 4.99744 43.3083 5.00008 42.98V10.52C5.00008 9.1275 6.13758 8 7.48008 8H52.5201C53.8901 8 55.0001 9.1225 55.0001 10.5175V42.98C55.0001 44.3725 53.8626 45.5 52.5201 45.5H35.0001ZM10.0001 13V35.5H50.0001V13H10.0001Z" fill="#DDDDDD"/>
</svg>
