<svg width="110" height="60" viewBox="0 0 110 60" fill="none" xmlns="http://www.w3.org/2000/svg">
<g clip-path="url(#clip0_1409_1396)">
<path d="M3.67145 10.5516L3.40753 10.0003C3.07874 9.31255 2.25273 9.0214 1.56493 9.3504L0.786062 9.7229C0.0982602 10.0515 -0.193058 10.877 0.135733 11.5644L22.8997 59.1247C23.2289 59.8133 24.0545 60.1032 24.7423 59.773L25.5212 59.4025C26.209 59.0723 26.5007 58.2468 26.1715 57.5622L11.0789 26.028C13.0891 23.4585 18.8885 17.0594 27.6789 15.7068C27.3267 15.9476 27.099 16.3676 27.2139 17.0856C27.5705 19.3169 32.1308 18.8316 32.4886 18.7201C37.269 18.3109 49.3037 15.9436 51.9731 2.5547C40.1294 4.34222 36.3628 6.8437 27.5253 4.56974L27.5205 4.55684C27.5205 4.55684 26.7843 4.39657 25.9849 4.09657C25.1662 1.88744 24.559 0.276302 24.559 0.276302C24.559 0.276302 11.5657 -2.65362 3.67145 10.5516ZM93.6269 49.7582C95.6044 49.7421 97.7114 48.8038 97.7033 46.5528C97.7114 42.7635 91.8278 43.7985 91.8314 41.8213C91.8278 41.1891 92.4418 40.6575 93.562 40.6575C94.7128 40.6575 95.2152 40.8508 96.0582 41.3058C96.204 41.3864 96.3821 41.4347 96.528 41.4347C97.0143 41.4508 97.4684 41.028 97.4845 40.5085C97.5006 40.1059 97.2412 39.8481 97.0143 39.683C96.3011 39.1837 94.8586 38.632 93.6107 38.632C91.5667 38.632 89.6234 39.6508 89.6262 41.934C89.6234 45.8884 95.4908 44.8172 95.4908 46.6978C95.4908 47.2978 94.8264 47.8012 93.5781 47.7488C92.5893 47.7206 91.9088 47.3622 91.2605 47.0199C91.082 46.9233 90.8712 46.8911 90.7741 46.8911C90.2556 46.875 89.737 47.3139 89.7205 47.93C89.7043 48.3005 89.9151 48.5944 90.2229 48.8199C90.8877 49.3233 92.2976 49.7743 93.6269 49.7582ZM47.03 49.7582C50.0826 49.7582 52.5574 47.483 52.5574 44.1891C52.5574 40.8911 50.0826 38.6159 47.03 38.6159C43.9774 38.6159 41.503 40.8911 41.503 44.1891C41.503 47.483 43.9774 49.7582 47.03 49.7582ZM88.1563 48.2039L84.461 39.3448C84.293 38.9421 83.8776 38.6481 83.4098 38.6683C82.9536 38.6481 82.5209 38.9421 82.3537 39.3448L78.6745 48.2039C78.4324 48.7877 78.7233 49.4199 79.258 49.6454C79.7596 49.8589 80.4438 49.6777 80.7005 49.0455L81.2823 47.6119H85.5324L86.1142 49.0455C86.3302 49.581 86.9733 49.8911 87.5567 49.6454C88.1067 49.4159 88.3799 48.7394 88.1563 48.2039ZM77.6479 38.7126H71.3916C70.8367 38.7126 70.3866 39.1636 70.3866 39.7152C70.3866 40.2709 70.8367 40.7219 71.3916 40.7219H73.4175V48.5622C73.4175 49.1703 73.9111 49.6616 74.5199 49.6616C75.1283 49.6616 75.6219 49.1703 75.6219 48.5622V40.7219H77.6479C78.2031 40.7219 78.6528 40.2709 78.6528 39.7152C78.6528 39.1636 78.2031 38.7126 77.6479 38.7126ZM55.9287 49.6616C56.5444 49.6616 57.0468 49.1582 57.0468 48.5622V42.8441L61.7313 49.1944C61.9094 49.4361 62.266 49.6616 62.6713 49.6616C63.2548 49.6616 63.7572 49.1582 63.754 48.5622V39.8159C63.7572 39.2159 63.2709 38.7126 62.6552 38.7126C62.0391 38.7126 61.5528 39.1998 61.5528 39.8159V45.5461L56.8526 39.1837C56.6741 38.938 56.3502 38.7126 55.9287 38.7126C55.3287 38.7126 54.8428 39.1998 54.8428 39.8159V48.5622C54.8428 49.1783 55.3287 49.6616 55.9287 49.6616ZM67.3719 49.6616C67.9808 49.6616 68.4739 49.1703 68.4739 48.5622V39.8159C68.4739 39.2038 67.9808 38.7126 67.3719 38.7126C66.7631 38.7126 66.2695 39.2038 66.2695 39.8159V48.5622C66.2695 49.1703 66.7631 49.6616 67.3719 49.6616ZM38.0184 43.8871C38.6305 43.3797 39.0068 42.6508 39.0068 41.773C39.0068 40.0092 37.4672 38.7126 35.6645 38.7126H32.8118C32.2134 38.7126 31.713 39.1998 31.713 39.8159V48.5622C31.713 49.1783 32.2154 49.6616 32.8154 49.6616H36.1218C38.1155 49.6616 39.6551 48.1877 39.6551 46.4078C39.6551 45.236 38.9943 44.3663 38.0184 43.8871ZM47.03 47.7528C45.195 47.7528 43.7074 46.2951 43.7074 44.1891C43.7074 42.079 45.195 40.6253 47.03 40.6253C48.8653 40.6253 50.3529 42.079 50.3529 44.1891C50.3529 46.2951 48.8653 47.7528 47.03 47.7528ZM36.1218 47.6521H33.9174V44.9985H36.1218C36.8677 44.9985 37.4511 45.5662 37.4511 46.3434C37.4511 47.1367 36.8189 47.6521 36.1218 47.6521ZM82.097 45.6025L83.4073 42.373L84.7177 45.6025H82.097ZM35.7491 40.7219C36.3975 40.7219 36.8028 41.2213 36.8028 41.8374C36.8028 42.5501 36.2838 42.9891 35.6645 42.9891H33.9174V40.7219H35.7491ZM89.212 36.1112L87.4338 33.108C88.5274 32.5527 89.2676 31.4638 89.2676 30.1088C89.2676 28.122 87.6756 26.7073 85.7101 26.7073H83.4001C82.7917 26.7073 82.2981 27.2006 82.2981 27.8087V36.5542C82.2981 37.1622 82.7917 37.6575 83.4001 37.6575C84.0089 37.6575 84.5025 37.1622 84.5025 36.5542V33.5107H85.1359L87.3339 37.2226C87.6409 37.7421 88.3102 37.9112 88.8288 37.6052C89.3474 37.2991 89.519 36.6307 89.212 36.1112ZM105.635 37.7542C107.613 37.7381 109.72 36.7998 109.712 34.5492C109.72 30.7567 103.836 31.7936 103.84 29.8144C103.836 29.1854 104.45 28.6511 105.571 28.6511C106.721 28.6511 107.224 28.8456 108.067 29.299C108.213 29.3799 108.391 29.4287 108.537 29.4287C109.023 29.4448 109.477 29.0236 109.493 28.5053C109.509 28.1002 109.25 27.8413 109.023 27.679C108.31 27.1769 106.867 26.6264 105.619 26.6264C103.575 26.6264 101.632 27.6468 101.635 29.9304C101.632 33.8832 107.499 32.814 107.499 34.693C107.499 35.2938 106.835 35.7931 105.587 35.7448C104.598 35.7126 103.917 35.3582 103.269 35.0171C103.091 34.9197 102.88 34.8875 102.783 34.8875C102.264 34.8714 101.746 35.3099 101.729 35.926C101.713 36.2965 101.924 36.5904 102.232 36.8159C102.896 37.3153 104.307 37.7703 105.635 37.7542ZM75.3608 37.7542C77.7595 37.7542 79.7044 36.2522 79.7044 33.3649V27.8087C79.7044 27.2006 79.2108 26.7073 78.6024 26.7073C77.9936 26.7073 77.5 27.2006 77.5 27.8087V33.3649C77.5 34.9173 76.5422 35.7448 75.3604 35.7448C74.179 35.7448 73.2209 34.9173 73.2209 33.3649V27.8087C73.2209 27.2006 72.7277 26.7073 72.1188 26.7073C71.51 26.7073 71.0168 27.2006 71.0168 27.8087V33.3649C71.0168 36.2522 72.9618 37.7542 75.3608 37.7542ZM30.0473 36.1998L26.3516 27.3391C26.1836 26.9364 25.7682 26.6425 25.3003 26.6626C24.8442 26.6425 24.4119 26.936 24.2443 27.3391L20.5651 36.1998C20.323 36.7837 20.6139 37.4159 21.1486 37.6414C21.6502 37.8548 22.3344 37.6736 22.591 37.0414L23.1729 35.6079H27.423L28.0048 37.0414C28.2208 37.573 28.8639 37.883 29.4473 37.6414C29.9973 37.4119 30.2705 36.7354 30.0473 36.1998ZM100.165 36.1998L96.4695 27.3391C96.3015 26.9364 95.8861 26.6425 95.4183 26.6626C94.9622 26.6425 94.5298 26.936 94.3626 27.3391L90.6831 36.1998C90.4409 36.7837 90.7318 37.4159 91.2665 37.6414C91.7682 37.8548 92.4523 37.6736 92.7094 37.0414L93.2908 35.6079H97.5409L98.1228 37.0414C98.3387 37.573 98.9818 37.883 99.5653 37.6414C100.116 37.4119 100.389 36.7354 100.165 36.1998ZM34.88 37.7179C35.3474 37.7381 35.7689 37.4481 35.9313 37.0414L39.6265 28.1811C39.8534 27.6468 39.5782 26.9663 39.027 26.7395C38.4435 26.4967 37.7952 26.8044 37.5845 27.3391L34.8776 34.0128L32.1707 27.3391C31.9112 26.7073 31.2307 26.5289 30.7282 26.7395C30.1931 26.9663 29.9014 27.598 30.1448 28.1811L33.8239 37.0414C33.9859 37.4481 34.4235 37.7381 34.88 37.7179ZM47.0932 35.6481H43.819V33.284H46.6069C47.1617 33.284 47.6118 32.8342 47.6118 32.2797C47.6118 31.7248 47.1617 31.2754 46.6069 31.2754H43.819V28.7159H47.0932C47.6481 28.7159 48.0982 28.2661 48.0982 27.7116C48.0982 27.1567 47.6481 26.7073 47.0932 26.7073H42.7166C42.1082 26.7073 41.6146 27.2006 41.6146 27.8087V36.5542C41.6146 37.1622 42.1082 37.6575 42.7166 37.6575H47.0932C47.6481 37.6575 48.0982 37.2065 48.0982 36.6548C48.0982 36.0991 47.6481 35.6481 47.0932 35.6481ZM51.1778 37.6575C51.7934 37.6575 52.2959 37.1542 52.2959 36.5542V30.8381L56.9804 37.1864C57.1585 37.432 57.515 37.6575 57.9204 37.6575C58.5038 37.6575 59.0063 37.1542 59.0031 36.5542V27.8087C59.0063 27.2095 58.52 26.7073 57.9043 26.7073C57.2882 26.7073 56.8018 27.1934 56.8018 27.8087V33.5429L52.1017 27.1769C51.9232 26.934 51.5992 26.7073 51.1778 26.7073C50.5778 26.7073 50.0919 27.1934 50.0919 27.8087V36.5542C50.0919 37.1703 50.5778 37.6575 51.1778 37.6575ZM68.0992 26.7073H61.8429C61.2877 26.7073 60.838 27.1567 60.838 27.7116C60.838 28.2661 61.2877 28.7159 61.8429 28.7159H63.8688V36.5542C63.8688 37.1622 64.3624 37.6575 64.9713 37.6575C65.5797 37.6575 66.0733 37.1622 66.0733 36.5542V28.7159H68.0992C68.6545 28.7159 69.1041 28.2661 69.1041 27.7116C69.1041 27.1567 68.6545 26.7073 68.0992 26.7073ZM23.9876 33.5993L25.2979 30.3681L26.6083 33.5993H23.9876ZM94.1056 33.5993L95.4159 30.3681L96.7262 33.5993H94.1056ZM84.5025 28.7159H85.6396C86.4253 28.7159 87.0631 29.2958 87.0631 30.1088C87.0631 30.9222 86.4253 31.5021 85.6396 31.5021H84.5025V28.7159ZM9.76376 23.8173L4.92859 13.5492C4.92859 13.5492 6.75024 9.32987 10.5696 12.9448C13.4965 16.9418 11.2385 22.6853 9.76376 23.8173Z" fill="#222325"/>
</g>
<defs>
<clipPath id="clip0_1409_1396">
<rect width="110" height="60" fill="white"/>
</clipPath>
</defs>
</svg>
