<svg width="148" height="64" viewBox="0 0 148 64" fill="none" xmlns="http://www.w3.org/2000/svg">
<g clip-path="url(#clip0_1539_2379)">
<path d="M54.7744 30.8579L57.6282 11.5588H57.9532L66.0532 27.3913L74.0591 11.5588H74.3793L77.2473 30.8579H75.3259L73.3574 17.0553L66.2934 30.8579H65.7848L58.6549 16.9504L56.7005 30.8579H54.7744Z" fill="black"/>
<path d="M87.4288 22.5516V30.6479H86.3692V29.2795C85.9547 29.7784 85.4364 30.1871 84.8481 30.4792C84.2758 30.7478 83.6474 30.8851 83.0115 30.8805C82.444 30.8881 81.8811 30.7808 81.3588 30.5656C80.8366 30.3504 80.3665 30.032 79.9786 29.6307C79.5709 29.2329 79.2501 28.7598 79.0349 28.2395C78.8197 27.7193 78.7146 27.1624 78.7259 26.602C78.7169 26.0462 78.8246 25.4943 79.0423 24.98C79.2601 24.4656 79.5834 23.9995 79.9927 23.6098C80.3852 23.2111 80.8584 22.8952 81.3826 22.6818C81.9069 22.4683 82.471 22.3618 83.0396 22.3691C83.6941 22.357 84.3415 22.5027 84.9234 22.7933C85.5071 23.1014 86.0086 23.5372 86.388 24.0659V22.5743L87.4288 22.5516ZM83.1292 23.3498C82.5447 23.3458 81.9698 23.495 81.4658 23.7817C80.9617 24.0684 80.5471 24.4818 80.2659 24.9782C79.963 25.4728 79.8006 26.0361 79.795 26.6111C79.8017 27.1874 79.9641 27.752 80.2659 28.2487C80.5523 28.7521 80.9737 29.1712 81.4856 29.4619C81.9779 29.7541 82.5425 29.9117 83.1198 29.9181C83.7076 29.9192 84.2856 29.7714 84.7963 29.4893C85.3039 29.215 85.7241 28.8111 86.0112 28.3216C86.2976 27.8143 86.4436 27.2439 86.4352 26.6658C86.4509 26.2329 86.3755 25.8014 86.2136 25.3975C86.0517 24.9937 85.8066 24.626 85.4933 24.3168C85.1912 24.0042 84.8245 23.7565 84.4172 23.59C84.01 23.4234 83.5712 23.3416 83.1292 23.3498Z" fill="black"/>
<path d="M89.4536 22.5517H90.5509V23.7377C90.8228 23.3275 91.1747 22.9727 91.587 22.6931C91.9227 22.4702 92.3195 22.3495 92.7266 22.3464C93.0594 22.359 93.3834 22.4532 93.6684 22.6201L93.1081 23.5005C92.9299 23.4166 92.7361 23.3685 92.5382 23.359C92.1505 23.3711 91.7813 23.5223 91.5022 23.7833C91.1234 24.148 90.8602 24.6102 90.744 25.1152C90.568 26.0369 90.5001 26.9749 90.5415 27.9113V30.6481H89.4536V22.5517Z" fill="black"/>
<path d="M95.5148 19.5503H96.5884V22.5517H98.2932V23.464H96.5884V30.6571H95.5148V23.464H94.0454V22.5517H95.5148V19.5503Z" fill="black"/>
<path d="M100.285 19.2218C100.402 19.2197 100.517 19.2408 100.625 19.284C100.733 19.3271 100.83 19.3914 100.911 19.4727C100.995 19.5522 101.061 19.6473 101.106 19.7524C101.15 19.8575 101.172 19.9703 101.17 20.0839C101.171 20.2533 101.119 20.4189 101.022 20.5598C100.925 20.7006 100.787 20.8104 100.626 20.8749C100.464 20.9395 100.286 20.956 100.115 20.9224C99.9434 20.8887 99.7863 20.8064 99.6634 20.686C99.5809 20.6075 99.5155 20.5137 99.471 20.4103C99.4265 20.3069 99.4038 20.196 99.4043 20.0839C99.4034 19.9705 99.4258 19.858 99.4703 19.753C99.5148 19.6481 99.5804 19.5528 99.6634 19.4727C99.7438 19.392 99.8404 19.3281 99.9473 19.2849C100.054 19.2418 100.169 19.2203 100.285 19.2218ZM99.7529 22.5516H100.827V30.648H99.7529V22.5516Z" fill="black"/>
<path d="M103.059 22.5516H104.133V24.002C104.507 23.4947 104.989 23.0702 105.545 22.7568C106.069 22.4831 106.655 22.3419 107.25 22.3463C107.839 22.3349 108.418 22.4937 108.913 22.8024C109.392 23.1016 109.766 23.5341 109.986 24.0431C110.258 24.8268 110.375 25.6532 110.33 26.4789V30.6434H109.256V26.7799C109.28 26.1558 109.241 25.5309 109.139 24.9143C109.05 24.4428 108.796 24.0156 108.418 23.7055C108.019 23.4219 107.533 23.2787 107.038 23.2996C106.397 23.2968 105.777 23.5187 105.291 23.9245C104.789 24.3203 104.432 24.8626 104.274 25.4708C104.143 26.1979 104.091 26.9363 104.119 27.6739V30.6434H103.045L103.059 22.5516Z" fill="black"/>
<path d="M72.7734 42.6533H78.9803C81.2314 42.6533 82.663 43.1824 83.553 44.0217C83.9422 44.3875 84.2468 44.8291 84.4465 45.3175C84.6462 45.8058 84.7365 46.3296 84.7115 46.8543V46.8908C84.725 47.6727 84.4931 48.4401 84.0466 49.0917C83.6001 49.7432 82.9601 50.2482 82.2109 50.5399L85.1683 54.5994H80.3225L77.9254 51.1876H77.0213V54.5994H72.7829L72.7734 42.6533ZM78.8531 48.3367C79.8704 48.3367 80.4873 47.908 80.4873 47.1782V47.1417C80.4873 46.3754 79.8515 45.9968 78.872 45.9968H77.0213V48.3367H78.8531Z" fill="black"/>
<path d="M89.2841 42.5713H93.4944L98.8441 54.6041H94.2384L93.565 52.9986H89.1194L88.4694 54.6041H83.9297L89.2841 42.5713ZM92.5148 50.1659L91.3516 47.2649L90.1931 50.1659H92.5148Z" fill="black"/>
<path d="M98.9712 42.6533H103.21V54.5994H98.9712V42.6533Z" fill="black"/>
<path d="M104.269 42.6533H108.239L112.76 47.9263V42.6533H116.97V54.5994H113.203L108.493 49.0894V54.5994H104.283L104.269 42.6533Z" fill="black"/>
<path d="M119.457 48.6652V48.6241C119.457 45.2396 122.447 42.3386 126.648 42.3386C130.848 42.3386 133.796 45.194 133.796 48.5785V48.6241C133.796 52.0086 130.806 54.9096 126.601 54.9096C122.395 54.9096 119.457 52.0497 119.457 48.6652ZM128.706 48.6652V48.6241C128.713 48.3498 128.665 48.0768 128.563 47.8208C128.461 47.5648 128.308 47.3308 128.112 47.1324C127.916 46.9339 127.682 46.775 127.423 46.6647C127.163 46.5543 126.884 46.4947 126.601 46.4894C126.323 46.4929 126.049 46.5501 125.795 46.6575C125.541 46.765 125.311 46.9206 125.12 47.1153C124.929 47.3099 124.779 47.5396 124.681 47.7909C124.583 48.0422 124.537 48.31 124.547 48.5785V48.6241C124.539 48.898 124.587 49.1707 124.689 49.4264C124.79 49.6821 124.943 49.9159 125.138 50.114C125.334 50.3121 125.568 50.4707 125.827 50.5806C126.086 50.6905 126.365 50.7496 126.648 50.7543C126.926 50.7514 127.2 50.6947 127.455 50.5875C127.71 50.4803 127.94 50.3247 128.132 50.13C128.323 49.9353 128.473 49.7054 128.572 49.4538C128.67 49.2023 128.716 48.9341 128.706 48.6652Z" fill="black"/>
<path d="M134.428 42.6214H139.73V44.2908C140.184 43.6983 140.772 43.2143 141.448 42.8759C142.125 42.5375 142.873 42.3537 143.634 42.3386C146.319 42.3386 148 44.0081 148 46.7084V54.6223H142.697V48.314C142.697 47.2831 142.043 46.6901 141.252 46.6901C141.039 46.6932 140.83 46.7384 140.637 46.8231C140.443 46.9077 140.27 47.03 140.127 47.1823C139.984 47.3345 139.876 47.5135 139.807 47.7082C139.739 47.9029 139.713 48.1091 139.73 48.314V54.6223H134.428V42.6214Z" fill="black"/>
<path d="M54.1338 33.8728H63.1662C65.4079 33.8728 67.1033 34.481 68.2523 35.6973C69.1515 36.6594 69.631 37.9215 69.5898 39.2187V39.278C69.5977 39.8079 69.5279 40.3362 69.3825 40.8471C69.253 41.2791 69.0662 41.6931 68.8269 42.0786C68.6059 42.4329 68.3367 42.7566 68.0263 43.0411C67.7269 43.3133 67.3967 43.5521 67.042 43.7527C68.0738 44.1334 68.9893 44.7611 69.7029 45.5772C70.4012 46.5182 70.7438 47.6634 70.673 48.8203V48.8796C70.6933 49.7362 70.5179 50.5866 70.1596 51.3701C69.8268 52.0702 69.3204 52.6797 68.6856 53.1444C67.9957 53.6427 67.2118 54.0053 66.378 54.2118C65.4035 54.4582 64.3994 54.5779 63.3923 54.5676H54.1338V33.8728ZM62.2668 42.2565C63.0545 42.2946 63.8371 42.1142 64.5226 41.7365C64.8036 41.5554 65.0292 41.3045 65.1759 41.01C65.3225 40.7155 65.3848 40.3883 65.3562 40.0625V40.0032C65.3748 39.7024 65.3186 39.4018 65.1924 39.1264C65.0662 38.8509 64.8737 38.6089 64.6309 38.4204C64.0178 38.018 63.2836 37.8254 62.5447 37.8731H58.3063V42.2565H62.2668ZM63.4064 50.6083C64.19 50.6518 64.9682 50.459 65.6339 50.0564C65.9064 49.8622 66.1236 49.6043 66.2652 49.3068C66.4069 49.0093 66.4683 48.6818 66.4439 48.355V48.2957C66.4562 47.9845 66.3947 47.6746 66.2641 47.39C66.1335 47.1053 65.9373 46.8534 65.6905 46.6537C65.1913 46.2492 64.3828 46.047 63.2651 46.047H58.311V50.6083H63.4064Z" fill="black"/>
<path d="M38.1924 18.3551C38.8376 17.3242 37.9429 16.3709 36.9775 15.299C36.1001 14.4446 35.1432 13.6704 34.1189 12.9864C30.6764 12.0057 27.8367 11.5039 25.6657 11.5039C24.7229 11.4752 23.7827 11.6143 22.8918 11.9145C20.6596 12.7629 19.8732 13.9078 19.6377 14.6513C23.5323 12.1061 29.5273 12.2338 32.254 12.6261C35.0796 13.032 35.8943 14.9067 35.9273 17.0186C35.9603 19.1305 37.5425 19.3905 38.1924 18.3551Z" fill="black"/>
<path d="M3.82414 19.8833C3.65932 20.0977 3.4992 20.3121 3.35321 20.5219C2.60085 21.5679 1.98852 22.7021 1.53076 23.8973C1.79448 23.2998 2.10059 22.684 2.47263 22.0728C2.88079 21.3192 3.33196 20.5882 3.82414 19.8833Z" fill="black"/>
<path d="M4.48324 43.5247C4.78567 43.6332 5.11041 43.6704 5.43062 43.6331C5.75084 43.5958 6.05728 43.4851 6.32455 43.3103C7.26641 42.6489 6.8237 40.5188 6.29155 38.0557C5.83378 36.1999 5.54548 34.3088 5.42982 32.4042C5.38273 30.7849 5.97131 27.9158 7.35115 24.7776C7.57719 24.2576 7.82212 23.733 8.09526 23.2085C9.63992 20.2026 12.4278 16.07 16.93 13.4518C17.9716 12.8426 19.0766 12.3411 20.2265 11.9556C22.2854 11.2729 24.4566 10.9637 26.6312 11.0434C28.6885 11.123 30.7253 11.4697 32.6873 12.0742C34.7648 12.7112 36.7739 13.5407 38.687 14.5511C37.2647 13.3375 35.6632 12.3367 33.9354 11.5816C31.8935 10.6857 29.7141 10.1187 27.4835 9.90305C27.0832 9.862 26.6641 9.83009 26.2403 9.81184C23.5106 9.7015 20.7808 10.0251 18.1591 10.7697C9.27264 13.2192 4.8364 18.3324 2.67482 22.1731C1.41262 24.4173 0.564727 26.8578 0.169423 29.3845C-0.251436 32.9163 0.0510878 36.4937 1.05955 39.9121C1.72827 41.6454 3.09399 43.1096 4.48324 43.5247Z" fill="black"/>
<path d="M47.6819 28.6638C47.4936 27.0217 47.1168 23.9246 47.1168 23.9246C46.8504 25.3497 46.7227 26.7959 46.7354 28.2442C46.7354 29.4073 46.6647 32.6322 44.6444 32.7644H44.522C42.5347 32.7644 40.373 29.5441 39.3888 28.6182C39.2128 28.4347 39.0012 28.2866 38.7661 28.1825C38.5309 28.0784 38.2768 28.0203 38.0184 28.0116C37.8021 28.0042 37.5874 28.0496 37.394 28.1437C37.2006 28.2377 37.0347 28.3774 36.9117 28.5498C36.549 29.1154 36.7987 30.1417 37.5522 30.2375C38.0029 30.2788 38.4557 30.2956 38.9084 30.2877C39.6431 30.2877 40.3542 30.2648 40.3542 30.2648C40.3542 30.2648 42.5393 36.2311 40.1988 41.0478C39.4874 42.5917 38.4716 43.9862 37.2084 45.153L37.312 45.2397C34.8224 48.0601 31.3365 49.88 27.5354 50.3438C26.7718 50.4398 26.0025 50.487 25.2325 50.4853C22.5747 50.4476 19.9403 49.9979 17.4292 49.1533C13.4907 47.8317 9.77316 45.9584 6.39519 43.5931C6.04826 43.8089 5.64432 43.9229 5.232 43.9215C4.95042 43.9181 4.67099 43.8734 4.40316 43.7892C3.25778 43.367 2.28796 42.5912 1.64355 41.5815C3.41897 46.1839 6.70602 50.2982 11.9381 52.6701C16.346 54.668 20.3395 55.5027 23.9421 55.5027C31.6136 55.5027 37.5192 51.7259 41.913 47.3835C48.3742 40.9931 47.8703 30.3013 47.6819 28.6638Z" fill="black"/>
<path d="M7.91187 15.5592C10.899 13.1902 14.3707 11.4614 18.0981 10.487C21.0883 9.63168 24.2167 9.32234 27.3237 9.57471C29.6589 9.78607 31.9412 10.3735 34.0768 11.3126C36.1551 12.1984 38.0408 13.4584 39.6338 15.0255L40.1755 15.6185L39.4644 15.2262C38.8145 14.8704 38.174 14.542 37.5382 14.2318C39.3513 15.9149 39.6526 18.8205 39.8504 20.7089C39.9028 21.3058 40.0621 21.8893 40.3214 22.4331C40.4297 22.3009 40.5427 22.1731 40.6557 22.0499C41.5976 20.9917 42.516 19.9882 40.6228 16.6539L40.2649 16.0199L40.83 16.476C40.863 16.5034 43.99 19.1353 43.3024 23.1994C43.2506 23.5429 43.1408 23.8757 42.9775 24.1847C43.1155 24.1917 43.2538 24.1917 43.3919 24.1847C43.8674 24.1823 44.3413 24.1288 44.8047 24.025C48.007 23.3226 47.6302 20.0293 46.9191 18.2185C46.5471 17.2788 40.9854 11.6319 35.9747 10.1586C32.4593 9.07632 28.7986 8.5015 25.1103 8.45264C15.5457 8.45264 9.51772 13.0596 5.29346 18.0314C6.09807 17.1422 6.97359 16.3156 7.91187 15.5592Z" fill="black"/>
<path d="M7.60539 24.8643C6.23968 27.9706 5.66044 30.794 5.72166 32.3951C5.83754 34.2826 6.12277 36.1568 6.57407 37.9964C7.12507 40.5371 7.56298 42.5577 6.63995 43.4061C9.97928 45.7326 13.6502 47.5765 17.5374 48.8797C22.9578 50.6176 30.5116 51.4341 36.3417 45.8419C34.392 47.2513 32.0516 47.972 29.3484 48.2913C28.9966 48.3292 28.6428 48.3475 28.2888 48.346C22.9767 48.346 12.602 44.6058 9.94591 36.0989C7.41229 27.9797 12.6209 20.6952 13.7794 19.2219L13.558 19.3451C9.95541 21.4159 8.32588 23.7012 7.80786 24.545C7.68542 24.7184 7.62423 24.8324 7.60539 24.8643Z" fill="black"/>
<path d="M22.7932 11.6683C23.138 11.5418 23.4944 11.4471 23.8576 11.3855C22.5005 11.5421 21.1686 11.8608 19.8923 12.3343C18.9125 12.6946 17.967 13.1372 17.0667 13.6571C12.64 16.2342 9.88502 20.3029 8.35449 23.2724C9.88062 21.4492 11.7666 19.9389 13.9021 18.8296C15.993 17.5342 21.0508 17.5524 21.0508 17.5524C21.0508 17.5524 19.4591 15.9879 19.2942 15.3949C19.2579 15.2265 19.2579 15.0525 19.2942 14.8841C19.4402 14.0493 20.2267 12.6353 22.7932 11.6683Z" fill="black"/>
<path d="M32.9652 12.3982C30.8723 11.7159 28.6876 11.3332 26.4805 11.2625C28.6759 11.4293 30.8485 11.8098 32.9652 12.3982Z" fill="black"/>
<path d="M42.0118 30.8761C43.2928 31.8659 44.0322 31.6606 45.007 30.4564C45.9818 29.2522 45.299 27.7196 44.0651 26.9761C42.8313 26.2326 41.8328 26.7207 41.2913 27.6239C40.7497 28.527 41.2583 30.2968 42.0118 30.8761Z" fill="black"/>
<path d="M41.6871 24.9189C42.0176 24.8501 42.3116 24.6689 42.5159 24.408C42.5484 24.3704 42.5782 24.3308 42.6054 24.2894C42.6358 24.2508 42.6626 24.2095 42.6854 24.1662C42.8638 23.86 42.9819 23.5244 43.0339 23.1765C43.1915 22.1424 43.1179 21.0876 42.8181 20.0834C42.5183 19.0793 41.9993 18.1492 41.2962 17.3562C42.6807 20.2116 41.7671 21.2379 40.8582 22.2277C40.7264 22.3782 40.585 22.5333 40.4579 22.6838C40.4249 22.7203 40.3967 22.7614 40.3637 22.8024L40.2979 22.8982C40.1406 23.0985 40.0489 23.3398 40.0347 23.5911C40.0204 23.8423 40.0841 24.0919 40.2177 24.3077C40.3738 24.5378 40.5963 24.7184 40.8575 24.8271C41.1188 24.9358 41.4073 24.9677 41.6871 24.9189Z" fill="black"/>
<path d="M24.3093 19.1351C24.281 18.1224 22.6846 17.3106 22.0676 17.8762C21.2859 18.5786 21.4696 20.4168 22.5951 20.8456C23.7207 21.2743 24.3375 20.1431 24.3093 19.1351Z" fill="black"/>
</g>
<defs>
<clipPath id="clip0_1539_2379">
<rect width="148" height="47" fill="white" transform="translate(0 8.48901)"/>
</clipPath>
</defs>
</svg>
