<svg width="147" height="16" viewBox="0 0 147 16" fill="none" xmlns="http://www.w3.org/2000/svg">
<path d="M140.914 15.2908C139.943 15.2908 139.016 15.2111 138.132 15.0517C137.263 14.8923 136.524 14.6677 135.915 14.3779V10.7265C136.596 11.0452 137.343 11.306 138.154 11.5089C138.98 11.7118 139.733 11.8132 140.414 11.8132C140.994 11.8132 141.436 11.7552 141.74 11.6393C142.059 11.5234 142.218 11.3061 142.218 10.9873C142.218 10.625 141.979 10.3642 141.501 10.2048C141.023 10.0309 140.335 9.79186 139.436 9.48758C138.509 9.1688 137.777 8.82829 137.241 8.46604C136.72 8.08931 136.343 7.64012 136.111 7.11849C135.879 6.58237 135.763 5.93033 135.763 5.16236C135.763 2.29338 137.756 0.858887 141.74 0.858887C142.233 0.858887 142.755 0.895111 143.305 0.96756C143.87 1.02552 144.406 1.10521 144.914 1.20664C145.435 1.29358 145.877 1.39501 146.239 1.51093V5.1841C145.5 4.8943 144.819 4.69145 144.196 4.57553C143.588 4.44512 143.03 4.37991 142.523 4.37991C142.016 4.37991 141.552 4.42338 141.132 4.51032C140.726 4.58277 140.523 4.78563 140.523 5.1189C140.523 5.3942 140.704 5.6043 141.066 5.7492C141.429 5.87961 142.037 6.06073 142.892 6.29257C144.037 6.61135 144.899 6.98808 145.479 7.42278C146.073 7.85747 146.471 8.37186 146.674 8.96594C146.891 9.54554 147 10.2121 147 10.9655C147 12.2696 146.493 13.3201 145.479 14.1171C144.464 14.8995 142.943 15.2908 140.914 15.2908Z" fill="#222325"/>
<path d="M131.698 15.0735V11.7698H135.328V15.0735H131.698Z" fill="#222325"/>
<path d="M115.619 15.0731L120.988 1.07593H125.878L131.268 15.0731H126.4L125.313 12.2911H121.553L120.488 15.0731H115.619ZM122.118 9.03084H124.748L123.422 5.64022L122.118 9.03084Z" fill="#222325"/>
<path d="M111.555 15.0735V11.7698H115.184V15.0735H111.555Z" fill="#222325"/>
<path d="M105.042 15.2908C104.071 15.2908 103.144 15.2111 102.26 15.0517C101.39 14.8923 100.651 14.6677 100.043 14.3779V10.7265C100.724 11.0452 101.47 11.306 102.281 11.5089C103.107 11.7118 103.861 11.8132 104.542 11.8132C105.121 11.8132 105.563 11.7552 105.868 11.6393C106.186 11.5234 106.346 11.3061 106.346 10.9873C106.346 10.625 106.107 10.3642 105.629 10.2048C105.15 10.0309 104.462 9.79186 103.564 9.48758C102.636 9.1688 101.905 8.82829 101.369 8.46604C100.847 8.08931 100.47 7.64012 100.238 7.11849C100.007 6.58237 99.8906 5.93033 99.8906 5.16236C99.8906 2.29338 101.883 0.858887 105.868 0.858887C106.36 0.858887 106.882 0.895111 107.433 0.96756C107.998 1.02552 108.534 1.10521 109.041 1.20664C109.563 1.29358 110.005 1.39501 110.367 1.51093V5.1841C109.628 4.8943 108.947 4.69145 108.324 4.57553C107.715 4.44512 107.157 4.37991 106.65 4.37991C106.143 4.37991 105.679 4.42338 105.259 4.51032C104.853 4.58277 104.651 4.78563 104.651 5.1189C104.651 5.3942 104.832 5.6043 105.194 5.7492C105.556 5.87961 106.165 6.06073 107.02 6.29257C108.164 6.61135 109.026 6.98808 109.606 7.42278C110.2 7.85747 110.599 8.37186 110.801 8.96594C111.019 9.54554 111.127 10.2121 111.127 10.9655C111.127 12.2696 110.62 13.3201 109.606 14.1171C108.592 14.8995 107.07 15.2908 105.042 15.2908Z" fill="#222325"/>
<path d="M90.3271 15.0731V1.07593H95.0001V15.0731H90.3271Z" fill="#222325"/>
<path d="M75.5225 15.0731V1.07593H80.1954V5.96624H84.3468V1.07593H89.0197V15.0731H84.3468V10.1828H80.1954V15.0731H75.5225Z" fill="#222325"/>
<path d="M69.127 15.2908C66.5623 15.2908 64.6062 14.6822 63.2586 13.465C61.9111 12.2479 61.2373 10.4729 61.2373 8.14002C61.2373 5.77818 61.9401 3.9742 63.3456 2.72807C64.7511 1.48195 66.7869 0.858887 69.453 0.858887C70.3514 0.858887 71.1483 0.909601 71.8439 1.01103C72.5539 1.11246 73.2349 1.27185 73.8869 1.48919V5.46665C73.2204 5.22032 72.5466 5.05369 71.8656 4.96675C71.1846 4.86532 70.4891 4.81461 69.7791 4.81461C68.5909 4.81461 67.6635 5.06818 66.997 5.57532C66.3305 6.08247 65.9972 6.93737 65.9972 8.14002C65.9972 9.29921 66.258 10.1251 66.7797 10.6178C67.3158 11.0959 68.091 11.335 69.1053 11.335C69.7283 11.335 70.279 11.2626 70.7571 11.1177V9.68319H68.2142V6.83594H74.6476V13.9649C74.0825 14.3272 73.3436 14.6387 72.4307 14.8995C71.5178 15.1603 70.4166 15.2908 69.127 15.2908Z" fill="#222325"/>
<path d="M48.4165 15.0731V1.07593H55.9802C57.1539 1.07593 58.1174 1.30052 58.8709 1.7497C59.6389 2.1844 60.204 2.78573 60.5662 3.55369C60.943 4.32165 61.1313 5.19828 61.1313 6.18359C61.1313 7.12543 60.8922 7.95859 60.4141 8.68309C59.9359 9.39309 59.3346 9.95819 58.6101 10.3784C58.8854 10.5957 59.1172 10.9145 59.3056 11.3347L60.9357 15.0731H56.0671L54.6326 11.8346C54.5312 11.6173 54.4225 11.4651 54.3066 11.3782C54.1907 11.2913 54.0096 11.2478 53.7633 11.2478H53.0895V15.0731H48.4165ZM53.0895 7.63982H54.8065C55.8498 7.63982 56.3714 7.15441 56.3714 6.18359C56.3714 5.19828 55.886 4.70563 54.9152 4.70563H53.0895V7.63982Z" fill="#222325"/>
<path d="M40.2255 15.2908C38.6606 15.2908 37.3348 15.0517 36.248 14.5735C35.1613 14.0953 34.3281 13.3274 33.7485 12.2696C33.1834 11.2119 32.9009 9.82084 32.9009 8.09656C32.9009 6.34329 33.1834 4.93777 33.7485 3.88001C34.3281 2.82226 35.1613 2.0543 36.248 1.57613C37.3348 1.09797 38.6606 0.858887 40.2255 0.858887C41.7904 0.858887 43.1162 1.09797 44.2029 1.57613C45.2897 2.0543 46.1156 2.82226 46.6807 3.88001C47.2603 4.93777 47.5501 6.34329 47.5501 8.09656C47.5501 9.82084 47.2603 11.2119 46.6807 12.2696C46.1156 13.3274 45.2897 14.0953 44.2029 14.5735C43.1162 15.0517 41.7904 15.2908 40.2255 15.2908ZM40.2255 11.335C41.1239 11.335 41.7687 11.0815 42.1599 10.5743C42.5656 10.0672 42.7684 9.24125 42.7684 8.09656C42.7684 6.8939 42.5656 6.05349 42.1599 5.57532C41.7687 5.08267 41.1239 4.83634 40.2255 4.83634C39.3126 4.83634 38.6533 5.08267 38.2476 5.57532C37.8564 6.05349 37.6608 6.8939 37.6608 8.09656C37.6608 9.24125 37.8564 10.0672 38.2476 10.5743C38.6533 11.0815 39.3126 11.335 40.2255 11.335Z" fill="#222325"/>
<path d="M19.5493 15.0731V1.07593H27.5477C28.9677 1.07593 30.0617 1.41644 30.8296 2.09746C31.5976 2.77848 31.9816 3.74206 31.9816 4.98818C31.9816 5.69818 31.8512 6.29951 31.5904 6.79216C31.344 7.28482 31.0108 7.67604 30.5906 7.96584C31.1702 8.21217 31.6266 8.55268 31.9599 8.98737C32.2931 9.40758 32.4597 10.0379 32.4597 10.8783C32.4597 12.1969 32.0395 13.2256 31.1991 13.9646C30.3587 14.7036 29.1851 15.0731 27.6781 15.0731H19.5493ZM23.9832 6.55308H26.2871C27.1275 6.55308 27.5477 6.17635 27.5477 5.42288C27.5477 5.06063 27.439 4.78532 27.2217 4.59696C27.0188 4.3941 26.6856 4.29267 26.2219 4.29267H23.9832V6.55308ZM23.9832 11.8781H26.374C27.2579 11.8781 27.6998 11.4724 27.6998 10.6609C27.6998 9.90748 27.2434 9.53074 26.3306 9.53074H23.9832V11.8781Z" fill="#222325"/>
<path d="M13.5737 15.0731V1.07593H18.2467V15.0731H13.5737Z" fill="#222325"/>
<path d="M0 15.0731V1.07593H7.56369C8.73736 1.07593 9.70094 1.30052 10.4544 1.7497C11.2224 2.1844 11.7875 2.78573 12.1497 3.55369C12.5265 4.32165 12.7148 5.19828 12.7148 6.18359C12.7148 7.12543 12.4757 7.95859 11.9976 8.68309C11.5194 9.39309 10.9181 9.95819 10.1936 10.3784C10.4689 10.5957 10.7007 10.9145 10.8891 11.3347L12.5192 15.0731H7.65063L6.21613 11.8346C6.11471 11.6173 6.00603 11.4651 5.89011 11.3782C5.7742 11.2913 5.59307 11.2478 5.34675 11.2478H4.67297V15.0731H0ZM4.67297 7.63982H6.39001C7.43328 7.63982 7.95491 7.15441 7.95491 6.18359C7.95491 5.19828 7.4695 4.70563 6.49869 4.70563H4.67297V7.63982Z" fill="#222325"/>
</svg>
