<svg width="138" height="28" viewBox="0 0 138 28" fill="none" xmlns="http://www.w3.org/2000/svg">
<g clip-path="url(#clip0_1248_12194)">
<path d="M51.7508 3.91406C50.1874 3.91406 48.6805 4.60177 47.6245 5.77426C46.5986 4.60177 45.1029 3.91406 43.5246 3.91406C40.4506 3.91406 37.9478 6.44693 37.9478 9.56228V21.4036C37.9478 22.2003 38.5941 22.8467 39.3908 22.8467C40.1875 22.8467 40.8339 22.2003 40.8339 21.4036V9.56228C40.8339 8.04031 42.0402 6.80018 43.5208 6.80018C45.0015 6.80018 46.1739 8.014 46.1739 9.56228V21.4036C46.1739 22.2003 46.8203 22.8467 47.617 22.8467C48.4137 22.8467 49.0601 22.2003 49.0601 21.4036V9.56228C49.0601 8.04031 50.2664 6.80018 51.7508 6.80018C53.2352 6.80018 54.4377 8.04031 54.4377 9.56228V21.4036C54.4377 22.2003 55.0841 22.8467 55.8808 22.8467C56.6774 22.8467 57.3238 22.2003 57.3238 21.4036V9.56228C57.3238 6.44693 54.8248 3.91406 51.7508 3.91406Z" fill="#222325"/>
<path d="M61.0028 3.83887C60.2098 3.83887 59.5597 4.48524 59.5597 5.27817L59.5259 21.3998C59.5259 21.7869 59.6762 22.1477 59.9468 22.422C60.2211 22.6963 60.5819 22.8467 60.9689 22.8467C61.7619 22.8467 62.412 22.2003 62.412 21.4074L62.4458 5.28568C62.4458 4.89861 62.2955 4.53785 62.0249 4.26352C61.7506 3.98919 61.3898 3.83887 61.0028 3.83887Z" fill="#222325"/>
<path d="M72.2993 11.4113L72.2091 11.3662C70.6045 10.6108 68.609 9.66757 68.609 8.63788C68.609 6.77769 71.6003 6.72508 71.6304 6.72508C72.9569 6.72508 74.5015 7.25495 74.5015 7.9389V8.03285C74.5015 8.84457 75.1441 9.50597 75.9596 9.50973C76.7487 9.50973 77.3876 8.84457 77.3876 8.03285V7.9389C77.3876 6.53718 76.5721 5.36094 75.099 4.62062C74.1407 4.12081 72.8743 3.83521 71.6266 3.83521C70.379 3.83521 68.9998 4.19221 67.9476 4.81603C66.5308 5.66533 65.7191 7.05578 65.7191 8.63413C65.7191 11.4 68.3346 12.689 70.8675 13.9329L70.9803 13.9892C73.0584 14.9926 75.0163 15.9396 75.0163 17.3789C75.0163 19.4946 72.63 19.9005 71.2208 19.9569C69.1689 19.9569 67.5004 18.5101 67.5004 17.5631V17.4353C67.5004 17.0369 67.3425 16.6649 67.0569 16.3906C66.7713 16.1162 66.3692 15.9509 65.9446 15.9847C65.1967 16.0185 64.6143 16.6386 64.6143 17.3902V17.5631C64.6143 20.374 67.7183 22.843 71.2696 22.843C76.1662 22.7265 77.9024 19.8253 77.9024 17.3789C77.9024 14.1696 74.9261 12.7002 72.2993 11.4075" fill="#222325"/>
<path d="M87.7939 11.4113L87.7037 11.3662C86.0991 10.6108 84.1036 9.66757 84.1036 8.63788C84.1036 6.77769 87.0949 6.72508 87.125 6.72508C88.4553 6.72508 89.9961 7.25495 89.9961 7.9389V8.03285C89.9961 8.84457 90.6387 9.50597 91.4542 9.50973C92.2434 9.50973 92.8822 8.84457 92.8822 8.03285V7.9389C92.8822 6.53718 92.0667 5.36094 90.5936 4.62062C89.6353 4.12081 88.3689 3.83521 87.1213 3.83521C85.8736 3.83521 84.4944 4.19221 83.4422 4.81603C82.0254 5.66533 81.2137 7.05578 81.2137 8.63413C81.2137 11.4 83.8293 12.689 86.3621 13.9329L86.4749 13.9892C88.5493 14.9926 90.5109 15.9396 90.5109 17.3789C90.5109 19.4946 88.1246 19.9005 86.7154 19.9569C84.6598 19.9569 82.995 18.5101 82.995 17.5631V17.4691C82.995 16.6574 82.3524 15.996 81.5369 15.9922C80.7477 15.9922 80.1089 16.6574 80.1089 17.4691V17.5631C80.1089 20.374 83.213 22.843 86.7642 22.843C91.6609 22.7265 93.3971 19.8253 93.3971 17.3789C93.3971 14.1696 90.4207 12.704 87.7939 11.4075" fill="#222325"/>
<path d="M97.0721 3.83887C96.2792 3.83887 95.629 4.48524 95.629 5.27817L95.5952 21.3998C95.5952 21.7869 95.7455 22.1477 96.0161 22.422C96.2904 22.6963 96.6512 22.8467 97.0383 22.8467C97.8312 22.8467 98.4813 22.2003 98.4813 21.4074L98.5151 5.28568C98.5151 4.89861 98.3648 4.53785 98.0943 4.26352C97.8199 3.98919 97.4592 3.83887 97.0721 3.83887Z" fill="#222325"/>
<path d="M110.168 3.87671C104.937 3.87671 100.683 8.13073 100.683 13.3618C100.683 18.5929 104.937 22.8469 110.168 22.8469C115.399 22.8469 119.691 18.5929 119.691 13.3618C119.691 8.13073 115.418 3.87671 110.168 3.87671ZM116.805 13.3618C116.805 16.9995 113.828 19.9608 110.168 19.9608C106.508 19.9608 103.569 16.9995 103.569 13.3618C103.569 9.7241 106.53 6.76283 110.168 6.76283C113.806 6.76283 116.805 9.7241 116.805 13.3618Z" fill="#222325"/>
<path d="M133.829 8.20562C132.852 5.42849 130.758 3.83887 128.09 3.83887C125.422 3.83887 123.333 5.43224 122.356 8.20562C122.017 9.14887 121.852 10.1485 121.852 11.2571V21.4036C121.852 22.2003 122.502 22.8467 123.295 22.8467C124.088 22.8467 124.738 22.2003 124.738 21.4036V11.2571C124.738 10.4792 124.855 9.76518 125.084 9.17894C125.655 7.52919 126.64 6.72498 128.09 6.72498C129.541 6.72498 130.525 7.52919 131.1 9.19397C131.322 9.76518 131.442 10.4792 131.442 11.2571V21.4036C131.442 22.2003 132.089 22.8467 132.885 22.8467C133.682 22.8467 134.328 22.2003 134.328 21.4036V11.2571C134.328 10.1447 134.163 9.14511 133.825 8.20562" fill="#222325"/>
<path d="M13.5886 2.64005C13.5886 2.78286 13.5736 2.9219 13.5473 3.06094C13.5473 3.06094 13.5473 3.06094 13.5473 3.0647C13.5322 3.13986 13.5097 3.21126 13.4871 3.28266C13.4683 3.34279 13.4533 3.40292 13.4308 3.45929C13.4007 3.53445 13.3669 3.60209 13.3331 3.67349C13.3068 3.72235 13.2842 3.76744 13.2579 3.81254C13.2128 3.8877 13.1677 3.95534 13.1151 4.02298C13.0926 4.05305 13.0662 4.08311 13.0399 4.11317C13.0249 4.12821 13.0136 4.147 13.0024 4.15827C13.0211 4.15827 13.0362 4.15827 13.055 4.15827C15.4075 4.15827 17.6585 5.00005 19.4473 6.56337C21.4052 8.27324 22.5777 10.6445 22.7543 13.2413C22.7994 13.9064 22.7768 14.5791 22.6866 15.233C22.5626 16.1387 23.1977 16.9767 24.1034 17.1045C25.0053 17.2285 25.8471 16.5934 25.9749 15.6877C26.0951 14.8083 26.1252 13.9102 26.065 13.0196C25.8321 9.53968 24.2575 6.36044 21.6306 4.06808C20.1838 2.8054 18.5228 1.89222 16.6964 1.36234C15.4037 0.990306 14.0734 0.828713 12.728 0.862535C13.2466 1.28343 13.5886 1.92228 13.5886 2.64005Z" fill="#222325"/>
<path d="M8.98548 2.64002C8.98548 2.49346 9.00051 2.35066 9.03057 2.21161C9.04185 2.15524 9.06064 2.10263 9.07191 2.05002C9.09446 1.96735 9.11701 1.88843 9.14707 1.80951C9.16962 1.74938 9.19968 1.68926 9.22975 1.63289C9.26357 1.569 9.29739 1.50136 9.33497 1.44123C9.34624 1.42244 9.35376 1.39989 9.36879 1.3811C8.55331 1.61786 7.76038 1.92977 7.00879 2.32059C8.10611 2.51601 8.94414 3.47053 8.94414 4.62423C8.94414 4.79334 8.92159 4.94741 8.88777 5.09022C9.28612 4.90232 9.69573 4.74072 10.1204 4.6092C9.44771 4.20709 8.993 3.47805 8.993 2.64002" fill="#222325"/>
<path d="M8.94371 22.7229C9.0076 22.9333 9.04893 23.1513 9.04893 23.3805C9.04893 24.4478 8.31613 25.3384 7.33154 25.5977C8.16205 26.0074 9.0339 26.3381 9.95084 26.5635C9.94709 26.556 9.93957 26.5485 9.93581 26.541C9.91702 26.5147 9.90199 26.4884 9.8832 26.4621C9.81932 26.3756 9.76295 26.2817 9.71409 26.1877C9.6953 26.1464 9.67651 26.1051 9.65772 26.0637C9.61639 25.9735 9.58256 25.8796 9.55626 25.7856C9.54498 25.7443 9.52995 25.7067 9.52244 25.6654C9.48862 25.5301 9.46607 25.3911 9.45855 25.2483C9.42097 24.6244 9.63142 24.0194 10.0486 23.5534C10.1425 23.4482 10.244 23.358 10.3492 23.2791C10.3567 23.2716 10.368 23.264 10.3755 23.2565C9.87944 23.1137 9.40218 22.9371 8.94747 22.7229" fill="#222325"/>
<path d="M6.50111 21.1031C4.68601 19.4571 3.51353 17.1384 3.34066 14.5492C3.16779 11.9524 4.01334 9.44585 5.72321 7.48795C5.81716 7.38273 5.91111 7.28126 6.00506 7.1798C6.00882 7.17604 6.01633 7.16852 6.02009 7.16477C6.18168 6.99942 6.35079 6.84158 6.52366 6.6875L6.5913 6.62738C6.72659 6.50712 6.86563 6.37935 7.00843 6.26661C7.08359 6.20648 7.15499 6.15012 7.2264 6.0975L7.30531 6.04113C7.42181 5.9547 7.48945 5.90585 7.56086 5.85699L7.62474 5.81566C7.62474 5.81566 7.63977 5.79687 7.65105 5.78935C7.65105 5.78935 7.66984 5.77808 7.67735 5.77056L7.77882 5.70292C8.12831 5.34215 8.27863 5.01897 8.27863 4.62814C8.27863 3.69241 7.51576 2.92578 6.57627 2.92578H6.46729C6.26436 2.92578 6.03512 2.92578 5.8848 2.97463C5.69315 3.09865 5.46391 3.25272 5.24219 3.41807C4.90773 3.66234 4.59958 3.94043 4.27639 4.2298L4.07722 4.41394C3.93442 4.54922 3.79537 4.68827 3.66009 4.82731C3.50225 4.99642 3.36321 5.14674 3.22792 5.30082C0.931805 7.93139 -0.203101 11.2948 0.0298932 14.7709C0.266645 18.2959 1.93894 21.4751 4.47932 23.6998C4.46429 23.5946 4.4455 23.4894 4.4455 23.3804C4.4455 22.1966 5.34741 21.2271 6.50111 21.1031Z" fill="#222325"/>
<path d="M9.45508 25.248C9.46259 25.3908 9.4889 25.5299 9.51896 25.6652C9.48514 25.5299 9.46259 25.3908 9.45508 25.248Z" fill="#222325"/>
<path d="M11.259 26.8151L11.2966 26.8226C11.3792 26.8339 11.4619 26.8489 11.5446 26.8564H11.5559L11.8302 26.8902C12.221 26.9278 12.6156 26.9466 13.0064 26.9466H13.0891C13.3672 26.9466 13.6453 26.9391 13.9271 26.9165L14.1864 26.894C14.551 26.8602 14.9155 26.8076 15.2762 26.7437C15.3326 26.7324 15.389 26.7324 15.4453 26.7211C15.8775 26.6422 16.2909 26.5445 16.6855 26.428C18.1811 25.9921 19.5754 25.3044 20.823 24.3799C20.8794 24.3386 20.947 24.316 21.0147 24.316C21.0973 24.316 21.18 24.3498 21.2439 24.41L23.7542 26.9203C23.8256 26.9917 23.9008 27.0518 23.9797 27.1044C24.6261 27.5591 25.5468 27.4727 26.1029 26.9203C26.257 26.7662 26.3773 26.5896 26.4599 26.3867C26.723 25.7628 26.5802 25.0488 26.1029 24.5716L22.578 21.0466C22.578 21.0466 22.5028 20.9865 22.4991 20.9827C21.8452 20.171 20.7103 20.1146 20.0226 20.7535C19.8873 20.8474 19.8008 20.9113 19.7257 20.9827C18.0947 22.5197 15.9564 23.4555 13.7129 23.6058H13.5814L13.5138 23.6133H13.1304C12.8749 23.617 12.6043 23.617 12.3488 23.5945C12.191 23.5795 12.0068 23.5644 11.8302 23.5456C11.7325 23.5344 11.6348 23.5193 11.5408 23.5081C11.5258 23.5081 11.5145 23.5156 11.4995 23.5156C11.0636 23.5569 10.7892 23.6847 10.5299 23.9778C10.2293 24.316 10.0752 24.752 10.1015 25.2067C10.1278 25.6614 10.327 26.0785 10.669 26.3791L10.7517 26.4543C10.8193 26.5144 10.8907 26.5783 10.9621 26.6347C10.9696 26.6422 10.9771 26.6497 10.9846 26.6535C11.0523 26.7098 11.1199 26.7512 11.1838 26.785C11.1951 26.7888 11.2026 26.7963 11.2139 26.8L11.2627 26.8076L11.259 26.8151Z" fill="#222325"/>
<path d="M10.3456 23.2791C10.2403 23.358 10.1426 23.4482 10.0449 23.5534C10.1389 23.4482 10.2403 23.358 10.3456 23.2791Z" fill="#222325"/>
<path d="M9.52246 25.6653C9.53373 25.7066 9.54501 25.7442 9.55628 25.7855C9.54501 25.7442 9.52998 25.7066 9.52246 25.6653Z" fill="#222325"/>
<path d="M9.65771 26.0635C9.6765 26.1048 9.69529 26.1462 9.71408 26.1875C9.69154 26.1462 9.6765 26.1048 9.65771 26.0635Z" fill="#222325"/>
<path d="M10.9466 1.0203C10.9053 1.02781 10.864 1.0466 10.8226 1.05788C10.7738 1.07291 10.7212 1.08418 10.6723 1.10673C10.6159 1.12928 10.5671 1.15934 10.5145 1.18565C10.4769 1.20444 10.4393 1.22323 10.4055 1.24578C10.3566 1.27584 10.3115 1.31342 10.2664 1.34724C10.2326 1.37355 10.1988 1.39985 10.1687 1.42992C10.1274 1.4675 10.0898 1.50883 10.0522 1.55017C10.0222 1.58399 9.99211 1.61781 9.96581 1.65539C9.93574 1.69673 9.90568 1.74183 9.87562 1.78692C9.84931 1.82826 9.82676 1.87336 9.80421 1.91845C9.78167 1.96355 9.75912 2.00489 9.74409 2.04998C9.72154 2.10635 9.70651 2.16272 9.69148 2.22285C9.6802 2.26043 9.66893 2.29801 9.66141 2.33934C9.64262 2.44081 9.63135 2.54227 9.63135 2.6475C9.63135 3.56068 10.3754 4.30476 11.2886 4.30476C11.3112 4.30476 11.3337 4.301 11.3563 4.29724L11.4352 4.28973C11.8861 4.24839 12.2845 4.02667 12.5588 3.69597C12.5701 3.68094 12.5814 3.66966 12.5926 3.65839C12.634 3.60202 12.6753 3.54565 12.7091 3.48552C12.7242 3.45922 12.7392 3.43291 12.7505 3.40661C12.7805 3.35024 12.8068 3.29387 12.8294 3.23374C12.8407 3.20368 12.8482 3.16985 12.8594 3.13603C12.8782 3.07591 12.897 3.01578 12.9083 2.95189C12.9271 2.85419 12.9384 2.75272 12.9384 2.6475C12.9384 1.73431 12.1943 0.990234 11.2811 0.990234C11.2172 0.990234 11.1533 1.00151 11.0932 1.00902C11.0443 1.01654 10.9917 1.0203 10.9429 1.02781" fill="#222325"/>
<path d="M8.40681 23.3804C8.40681 22.828 8.13248 22.3395 7.71535 22.0388C7.68152 22.0163 7.65146 21.9975 7.61764 21.9749C7.36585 21.8171 7.06897 21.7231 6.74955 21.7231C5.83636 21.7231 5.09229 22.4672 5.09229 23.3804C5.09229 23.8539 5.29522 24.2786 5.61464 24.583C5.75369 24.6807 5.89649 24.7821 6.03929 24.8723C6.25725 24.9775 6.49401 25.0377 6.74955 25.0377C7.66273 25.0377 8.40681 24.2936 8.40681 23.3804Z" fill="#222325"/>
<path d="M137.929 2.94445C137.884 2.79037 137.82 2.64381 137.737 2.51228C137.658 2.38075 137.56 2.2605 137.448 2.15528C137.335 2.05005 137.215 1.95986 137.083 1.88846C136.952 1.81706 136.813 1.76069 136.666 1.71935C136.35 1.63668 136.008 1.64419 135.719 1.73063C135.565 1.77572 135.418 1.83961 135.287 1.92228C135.155 2.0012 135.035 2.09891 134.934 2.21164C134.828 2.32063 134.738 2.44464 134.667 2.57617C134.595 2.7077 134.535 2.84674 134.498 2.9933C134.46 3.13986 134.438 3.29018 134.438 3.4405C134.438 3.61712 134.46 3.78247 134.505 3.93655C134.55 4.09063 134.614 4.23719 134.697 4.36872C134.779 4.50025 134.873 4.6205 134.986 4.72572C135.095 4.83095 135.219 4.92114 135.351 4.99254C135.482 5.06394 135.621 5.12031 135.768 5.16165C135.914 5.19923 136.065 5.22177 136.215 5.22177C136.388 5.22177 136.553 5.19923 136.711 5.15413C136.869 5.10904 137.012 5.04515 137.143 4.96248C137.275 4.88356 137.391 4.78585 137.496 4.67311C137.602 4.56037 137.692 4.44012 137.763 4.30859C137.835 4.17706 137.891 4.03802 137.932 3.89145C137.97 3.74489 137.993 3.59458 137.993 3.44426C137.993 3.27139 137.97 3.10604 137.925 2.94821M137.594 3.44426C137.594 3.57954 137.575 3.70731 137.542 3.82381C137.508 3.94407 137.459 4.05681 137.395 4.15827C137.335 4.25974 137.26 4.35368 137.173 4.4326C137.087 4.51528 136.993 4.58668 136.888 4.64305C136.786 4.69942 136.677 4.74451 136.565 4.77458C136.32 4.84222 136.061 4.8347 135.835 4.76706C135.715 4.73324 135.602 4.68439 135.501 4.6205C135.4 4.56037 135.306 4.48521 135.227 4.39878C135.148 4.31235 135.076 4.2184 135.016 4.11693C134.96 4.01547 134.915 3.90649 134.885 3.78999C134.855 3.67725 134.84 3.56075 134.84 3.44426C134.84 3.31273 134.858 3.18496 134.892 3.06846C134.926 2.94821 134.975 2.83547 135.039 2.73776C135.103 2.63629 135.174 2.54235 135.26 2.46343C135.347 2.38075 135.441 2.30935 135.542 2.25298C135.644 2.19661 135.753 2.15152 135.869 2.1177C135.982 2.08763 136.102 2.06884 136.223 2.06884C136.354 2.06884 136.482 2.08763 136.602 2.12145C136.722 2.15528 136.835 2.20413 136.937 2.26801C137.038 2.32814 137.132 2.4033 137.211 2.48973C137.294 2.57617 137.361 2.67012 137.421 2.77158C137.478 2.87305 137.523 2.98203 137.557 3.09852C137.587 3.21126 137.602 3.32776 137.602 3.44426" fill="#222325"/>
<path d="M136.767 3.63594C136.854 3.59085 136.929 3.53448 136.989 3.46683C137.072 3.36537 137.113 3.2376 137.113 3.06849C137.113 2.95199 137.087 2.84677 137.034 2.76409C136.985 2.68142 136.914 2.61378 136.824 2.56116C136.741 2.51231 136.64 2.47473 136.523 2.45218C136.414 2.42964 136.294 2.42212 136.166 2.42212H135.685C135.659 2.42212 135.633 2.42212 135.602 2.42964C135.572 2.43715 135.542 2.44842 135.516 2.46346C135.486 2.48225 135.463 2.50479 135.445 2.53486C135.426 2.56492 135.415 2.6025 135.415 2.64384V4.33492C135.415 4.40632 135.448 4.46269 135.508 4.489C135.58 4.51906 135.67 4.51906 135.741 4.50027C135.809 4.48148 135.85 4.42887 135.847 4.36123V3.74492C135.847 3.74492 135.873 3.74868 135.884 3.74868H136.159C136.2 3.74868 136.238 3.74868 136.271 3.74868C136.29 3.74868 136.305 3.74868 136.324 3.74868L136.692 4.42511C136.715 4.46645 136.756 4.49652 136.813 4.51155C136.85 4.52282 136.891 4.52658 136.929 4.52658C136.97 4.52658 137.012 4.51531 137.046 4.49652C137.094 4.47021 137.124 4.42136 137.124 4.36499C137.124 4.34996 137.124 4.33117 137.117 4.31613L136.756 3.6397L136.767 3.63594ZM136.576 2.88811C136.643 2.92944 136.673 2.98206 136.673 3.05722V3.09479C136.673 3.14365 136.662 3.18499 136.643 3.21129C136.621 3.24136 136.591 3.26766 136.553 3.28269C136.508 3.30148 136.456 3.31651 136.395 3.32779C136.328 3.3353 136.26 3.34282 136.185 3.34282H135.892C135.892 3.34282 135.869 3.34282 135.858 3.34658V2.81671H136.185C136.365 2.81671 136.493 2.84301 136.576 2.88811Z" fill="#222325"/>
<path d="M35.9187 12.8392C35.9187 12.0463 35.2723 11.3999 34.4794 11.3961L29.6504 11.3623C29.2634 11.3623 28.9026 11.5126 28.6283 11.7832C28.3539 12.0538 28.2036 12.4183 28.2036 12.8054C28.2036 13.5983 28.85 14.2447 29.6429 14.2484L34.4719 14.2822C34.859 14.2822 35.2197 14.1319 35.4941 13.8614C35.7684 13.5908 35.9187 13.2263 35.9187 12.8392Z" fill="#222325"/>
</g>
<defs>
<clipPath id="clip0_1248_12194">
<rect width="138" height="26.5388" fill="white" transform="translate(0 0.858887)"/>
</clipPath>
</defs>
</svg>
